{"glyphs":{"0":{"ha":806,"x_min":76,"x_max":729,"o":"m 403 -14 q 164 107 251 -14 q 76 486 76 228 q 164 865 76 744 q 403 986 251 986 q 642 865 554 986 q 729 486 729 744 q 642 107 729 228 q 403 -14 554 -14 m 403 83 q 540 174 490 83 q 590 486 590 264 q 540 799 590 708 q 403 889 490 889 q 265 799 315 889 q 215 486 215 708 q 265 174 215 264 q 403 83 315 83 z "},"1":{"ha":542,"x_min":28,"x_max":514,"o":"m 69 0 l 69 97 l 222 97 l 222 819 l 83 729 l 28 806 l 236 972 l 361 972 l 361 97 l 514 97 l 514 0 l 69 0 z "},"2":{"ha":694,"x_min":42,"x_max":632,"o":"m 42 97 q 74 223 42 164 q 155 330 107 282 q 281 443 203 378 q 394 545 353 504 q 465 635 436 586 q 493 736 493 683 q 442 845 493 801 q 306 889 392 889 q 161 857 231 889 q 111 826 129 842 l 97 826 l 49 910 q 117 947 74 929 q 319 986 200 986 q 488 952 417 986 q 595 858 558 918 q 632 722 632 799 q 597 588 632 651 q 510 474 561 525 q 376 353 458 424 q 228 212 276 267 q 181 97 181 157 l 632 97 l 632 0 l 42 0 l 42 97 z "},"3":{"ha":694,"x_min":21,"x_max":639,"o":"m 292 -14 q 89 24 169 -14 q 21 63 44 42 l 69 146 l 83 146 q 133 114 101 131 q 278 83 200 83 q 446 133 392 83 q 500 278 500 182 q 446 423 500 374 q 278 472 392 472 l 132 472 l 132 569 l 444 875 l 42 875 l 42 972 l 611 972 l 611 875 l 299 569 q 553 492 467 569 q 639 278 639 415 q 553 62 639 138 q 292 -14 467 -14 z "},"4":{"ha":750,"x_min":14,"x_max":722,"o":"m 472 0 l 472 236 l 14 236 l 14 333 l 472 972 l 611 972 l 611 333 l 722 333 l 722 236 l 611 236 l 611 0 l 472 0 m 472 333 l 472 694 q 478 756 472 728 l 483 792 l 478 792 q 469 775 474 785 q 458 756 464 765 q 424 694 435 711 l 167 333 l 472 333 z "},"5":{"ha":701,"x_min":35,"x_max":646,"o":"m 306 -14 q 103 24 183 -14 q 35 63 58 42 l 83 146 l 97 146 q 147 114 115 131 q 292 83 214 83 q 507 292 507 83 q 292 500 507 500 l 125 500 l 83 542 l 83 972 l 610 972 l 610 875 l 222 875 l 222 597 l 313 597 q 562 519 478 597 q 646 292 646 440 q 561 65 646 143 q 306 -14 476 -14 z "},"6":{"ha":743,"x_min":76,"x_max":688,"o":"m 390 -14 q 156 69 236 -14 q 76 319 76 153 l 76 569 q 162 883 76 781 q 403 986 247 986 q 588 947 507 986 q 653 910 626 929 l 604 826 l 590 826 q 543 857 571 842 q 417 889 476 889 q 215 569 215 889 q 264 597 238 585 q 396 625 322 625 q 610 545 533 625 q 688 319 688 465 q 610 70 688 154 q 390 -14 533 -14 m 389 83 q 505 142 461 83 q 549 319 549 200 q 501 475 549 422 q 368 528 453 528 q 256 500 304 528 q 215 472 233 488 l 215 319 q 261 141 215 199 q 389 83 307 83 z "},"7":{"ha":611,"x_min":0,"x_max":597,"o":"m 194 125 q 267 548 194 347 q 444 875 340 749 l 0 875 l 0 972 l 597 972 l 597 875 q 411 545 489 744 q 333 125 333 346 l 333 0 l 194 0 l 194 125 z "},"8":{"ha":778,"x_min":56,"x_max":722,"o":"m 389 -14 q 213 22 289 -14 q 97 119 138 58 q 56 250 56 179 q 85 376 56 324 q 163 463 115 429 q 271 514 208 497 q 183 561 219 531 q 97 743 97 631 q 133 865 97 810 q 234 953 168 921 q 389 986 300 986 q 544 953 478 986 q 645 865 610 921 q 681 743 681 810 q 593 561 681 632 q 507 514 557 532 q 614 463 567 497 q 722 250 722 383 q 681 119 722 179 q 565 22 640 58 q 389 -14 489 -14 m 389 569 q 499 634 457 592 q 542 743 542 676 q 496 845 542 801 q 389 889 450 889 q 281 845 326 889 q 236 743 236 801 q 278 634 236 676 q 389 569 319 592 m 389 83 q 533 128 482 83 q 583 250 583 174 q 531 375 583 326 q 389 458 479 424 q 247 375 299 424 q 194 250 194 326 q 245 128 194 174 q 389 83 296 83 z "},"9":{"ha":743,"x_min":56,"x_max":667,"o":"m 340 -14 q 156 24 233 -14 q 90 63 115 42 l 139 146 l 153 146 q 200 114 171 129 q 326 83 264 83 q 528 403 528 83 q 479 375 497 383 q 347 347 421 347 q 133 427 210 347 q 56 653 56 507 q 133 902 56 818 q 353 986 210 986 q 587 903 507 986 q 667 653 667 819 l 667 403 q 581 88 667 190 q 340 -14 496 -14 m 375 444 q 488 472 439 444 q 528 500 510 485 l 528 653 q 482 831 528 774 q 354 889 436 889 q 238 831 282 889 q 194 653 194 772 q 242 497 194 550 q 375 444 290 444 z "},"\u0000":{"ha":0,"x_min":0,"x_max":0,"o":""},"\r":{"ha":403,"x_min":0,"x_max":0,"o":""}," ":{"ha":403,"x_min":0,"x_max":0,"o":""},"A":{"ha":792,"x_min":21,"x_max":771,"o":"m 21 0 l 306 972 l 486 972 l 771 0 l 632 0 l 556 250 l 236 250 l 160 0 l 21 0 m 528 347 l 417 729 q 408 765 411 744 q 403 794 404 785 l 399 826 l 393 826 l 389 793 q 375 729 379 746 l 264 347 l 528 347 z "},"Á":{"ha":792,"x_min":21,"x_max":771,"o":"m 21 0 l 306 972 l 486 972 l 771 0 l 632 0 l 556 250 l 236 250 l 160 0 l 21 0 m 528 347 l 417 729 q 408 765 411 744 q 403 794 404 785 l 399 826 l 393 826 l 389 793 q 375 729 379 746 l 264 347 l 528 347 m 329 1042 l 392 1250 l 544 1250 l 419 1042 l 329 1042 z "},"Ă":{"ha":792,"x_min":21,"x_max":771,"o":"m 21 0 l 306 972 l 486 972 l 771 0 l 632 0 l 556 250 l 236 250 l 160 0 l 21 0 m 528 347 l 417 729 q 408 765 411 744 q 403 794 404 785 l 399 826 l 393 826 l 389 793 q 375 729 379 746 l 264 347 l 528 347 m 396 1056 q 240 1103 293 1056 q 188 1236 188 1151 l 313 1236 q 333 1162 313 1185 q 396 1139 353 1139 q 459 1162 439 1139 q 479 1236 479 1185 l 604 1236 q 551 1103 604 1151 q 396 1056 499 1056 z "},"Â":{"ha":792,"x_min":21,"x_max":771,"o":"m 21 0 l 306 972 l 486 972 l 771 0 l 632 0 l 556 250 l 236 250 l 160 0 l 21 0 m 528 347 l 417 729 q 408 765 411 744 q 403 794 404 785 l 399 826 l 393 826 l 389 793 q 375 729 379 746 l 264 347 l 528 347 m 201 1042 l 347 1222 l 444 1222 l 590 1042 l 500 1042 l 396 1132 l 292 1042 l 201 1042 z "},"Ä":{"ha":792,"x_min":21,"x_max":771,"o":"m 21 0 l 306 972 l 486 972 l 771 0 l 632 0 l 556 250 l 236 250 l 160 0 l 21 0 m 528 347 l 417 729 q 408 765 411 744 q 403 794 404 785 l 399 826 l 393 826 l 389 793 q 375 729 379 746 l 264 347 l 528 347 m 271 1049 q 216 1070 238 1049 q 194 1125 194 1092 q 216 1180 194 1158 q 271 1201 238 1201 q 326 1180 304 1201 q 347 1125 347 1158 q 326 1070 347 1092 q 271 1049 304 1049 m 514 1049 q 459 1070 481 1049 q 438 1125 438 1092 q 459 1180 438 1158 q 514 1201 481 1201 q 569 1180 547 1201 q 590 1125 590 1158 q 569 1070 590 1092 q 514 1049 547 1049 z "},"À":{"ha":792,"x_min":21,"x_max":771,"o":"m 21 0 l 306 972 l 486 972 l 771 0 l 632 0 l 556 250 l 236 250 l 160 0 l 21 0 m 528 347 l 417 729 q 408 765 411 744 q 403 794 404 785 l 399 826 l 393 826 l 389 793 q 375 729 379 746 l 264 347 l 528 347 m 357 1042 l 232 1250 l 385 1250 l 447 1042 l 357 1042 z "},"Ā":{"ha":792,"x_min":21,"x_max":771,"o":"m 21 0 l 306 972 l 486 972 l 771 0 l 632 0 l 556 250 l 236 250 l 160 0 l 21 0 m 528 347 l 417 729 q 408 765 411 744 q 403 794 404 785 l 399 826 l 393 826 l 389 793 q 375 729 379 746 l 264 347 l 528 347 m 208 1083 l 208 1181 l 583 1181 l 583 1083 l 208 1083 z "},"Ą":{"ha":799,"x_min":21,"x_max":840,"o":"m 21 0 l 306 972 l 486 972 l 771 0 l 632 0 l 556 250 l 236 250 l 160 0 l 21 0 m 528 347 l 417 729 q 408 765 411 744 q 403 794 404 785 l 399 826 l 393 826 l 389 793 q 375 729 379 746 l 264 347 l 528 347 m 729 -215 q 636 -187 668 -215 q 604 -111 604 -160 q 639 -32 604 -72 q 674 0 653 -17 l 771 0 q 736 -26 751 -11 q 701 -90 701 -58 q 715 -125 701 -111 q 750 -139 729 -139 q 785 -132 768 -139 q 814 -118 803 -125 q 828 -108 825 -111 l 840 -108 l 840 -181 q 811 -199 825 -193 q 729 -215 775 -215 z "},"Å":{"ha":792,"x_min":21,"x_max":771,"o":"m 21 0 l 306 972 l 486 972 l 771 0 l 632 0 l 556 250 l 236 250 l 160 0 l 21 0 m 528 347 l 417 729 q 408 765 411 744 q 403 794 404 785 l 399 826 l 393 826 l 389 793 q 375 729 379 746 l 264 347 l 528 347 m 396 1028 q 295 1065 333 1028 q 257 1160 257 1101 q 295 1255 257 1218 q 396 1292 333 1292 q 497 1255 458 1292 q 535 1160 535 1218 q 497 1065 535 1101 q 396 1028 458 1028 m 396 1097 q 435 1113 418 1097 q 451 1160 451 1129 q 435 1206 451 1190 q 396 1222 418 1222 q 357 1206 374 1222 q 340 1160 340 1190 q 357 1113 340 1129 q 396 1097 374 1097 z "},"Ã":{"ha":792,"x_min":21,"x_max":771,"o":"m 21 0 l 306 972 l 486 972 l 771 0 l 632 0 l 556 250 l 236 250 l 160 0 l 21 0 m 528 347 l 417 729 q 408 765 411 744 q 403 794 404 785 l 399 826 l 393 826 l 389 793 q 375 729 379 746 l 264 347 l 528 347 m 578 1160 q 453 1042 539 1042 q 409 1051 426 1042 q 374 1079 392 1061 q 362 1090 371 1082 q 344 1101 353 1097 q 328 1104 336 1104 q 296 1092 310 1104 q 274 1066 282 1079 q 264 1049 265 1053 l 251 1049 l 196 1083 q 244 1170 215 1139 q 321 1201 272 1201 q 365 1192 347 1201 q 401 1164 382 1182 q 426 1144 417 1150 q 447 1139 435 1139 q 480 1151 465 1139 q 503 1178 494 1164 q 510 1194 511 1193 l 522 1194 l 578 1160 z "},"Æ":{"ha":1132,"x_min":-28,"x_max":1090,"o":"m -28 0 l 382 972 l 1090 972 l 1090 875 l 688 875 l 688 556 l 1007 556 l 1007 458 l 688 458 l 688 97 l 1090 97 l 1090 0 l 549 0 l 549 278 l 229 278 l 111 0 l -28 0 m 271 375 l 549 375 l 549 875 l 479 875 l 271 375 z "},"B":{"ha":799,"x_min":125,"x_max":729,"o":"m 125 972 l 389 972 q 615 905 535 972 q 694 729 694 838 q 614 554 694 618 q 535 514 576 526 q 632 469 586 501 q 729 264 729 394 q 645 70 729 140 q 389 0 561 0 l 125 0 l 125 972 m 389 556 q 512 598 468 556 q 556 715 556 640 q 512 833 556 790 q 389 875 468 875 l 264 875 l 264 556 l 389 556 m 389 97 q 590 278 590 97 q 389 458 590 458 l 264 458 l 264 97 l 389 97 z "},"C":{"ha":715,"x_min":76,"x_max":681,"o":"m 438 -14 q 170 106 264 -14 q 76 486 76 225 q 168 866 76 746 q 424 986 260 986 q 603 947 522 986 q 667 910 642 929 l 618 826 l 604 826 q 557 857 583 842 q 438 889 496 889 q 215 486 215 889 q 277 176 215 269 q 451 83 339 83 q 571 114 513 83 q 618 146 600 131 l 632 146 l 681 63 q 617 24 657 43 q 438 -14 539 -14 z "},"Ć":{"ha":715,"x_min":76,"x_max":681,"o":"m 438 -14 q 170 106 264 -14 q 76 486 76 225 q 168 866 76 746 q 424 986 260 986 q 603 947 522 986 q 667 910 642 929 l 618 826 l 604 826 q 557 857 583 842 q 438 889 496 889 q 215 486 215 889 q 277 176 215 269 q 451 83 339 83 q 571 114 513 83 q 618 146 600 131 l 632 146 l 681 63 q 617 24 657 43 q 438 -14 539 -14 m 375 1042 l 438 1250 l 590 1250 l 465 1042 l 375 1042 z "},"Č":{"ha":715,"x_min":76,"x_max":681,"o":"m 438 -14 q 170 106 264 -14 q 76 486 76 225 q 168 866 76 746 q 424 986 260 986 q 603 947 522 986 q 667 910 642 929 l 618 826 l 604 826 q 557 857 583 842 q 438 889 496 889 q 215 486 215 889 q 277 176 215 269 q 451 83 339 83 q 571 114 513 83 q 618 146 600 131 l 632 146 l 681 63 q 617 24 657 43 q 438 -14 539 -14 m 378 1056 l 232 1236 l 322 1236 l 426 1146 l 531 1236 l 621 1236 l 475 1056 l 378 1056 z "},"Ç":{"ha":715,"x_min":76,"x_max":681,"o":"m 617 24 q 438 -14 539 -14 l 438 -42 q 528 -73 494 -42 q 563 -153 563 -104 q 527 -233 563 -201 q 431 -264 492 -264 q 349 -250 390 -264 q 319 -236 329 -243 l 342 -181 l 354 -181 q 364 -187 356 -182 q 387 -197 372 -192 q 417 -201 401 -201 q 457 -187 442 -201 q 472 -153 472 -174 q 456 -117 472 -131 q 410 -104 440 -104 l 354 -104 l 354 -7 q 148 139 219 19 q 76 486 76 258 q 168 866 76 746 q 424 986 260 986 q 603 947 522 986 q 667 910 642 929 l 618 826 l 604 826 q 557 857 583 842 q 438 889 496 889 q 215 486 215 889 q 277 176 215 269 q 451 83 339 83 q 571 114 513 83 q 618 146 600 131 l 632 146 l 681 63 q 617 24 657 43 z "},"D":{"ha":813,"x_min":125,"x_max":736,"o":"m 125 972 l 333 972 q 636 857 536 972 q 736 486 736 742 q 636 115 736 231 q 333 0 536 0 l 125 0 l 125 972 m 333 97 q 531 186 465 97 q 597 486 597 275 q 531 786 597 697 q 333 875 465 875 l 264 875 l 264 97 l 333 97 z "},"Ð":{"ha":813,"x_min":49,"x_max":736,"o":"m 125 444 l 49 444 l 49 556 l 125 556 l 125 972 l 333 972 q 636 857 536 972 q 736 486 736 742 q 636 115 736 231 q 333 0 536 0 l 125 0 l 125 444 m 333 97 q 531 186 465 97 q 597 486 597 275 q 531 786 597 697 q 333 875 465 875 l 264 875 l 264 556 l 424 556 l 424 444 l 264 444 l 264 97 l 333 97 z "},"Ď":{"ha":813,"x_min":125,"x_max":736,"o":"m 125 972 l 333 972 q 636 857 536 972 q 736 486 736 742 q 636 115 736 231 q 333 0 536 0 l 125 0 l 125 972 m 333 97 q 531 186 465 97 q 597 486 597 275 q 531 786 597 697 q 333 875 465 875 l 264 875 l 264 97 l 333 97 m 322 1056 l 176 1236 l 267 1236 l 371 1146 l 475 1236 l 565 1236 l 419 1056 l 322 1056 z "},"Đ":{"ha":813,"x_min":49,"x_max":736,"o":"m 125 444 l 49 444 l 49 556 l 125 556 l 125 972 l 333 972 q 636 857 536 972 q 736 486 736 742 q 636 115 736 231 q 333 0 536 0 l 125 0 l 125 444 m 333 97 q 531 186 465 97 q 597 486 597 275 q 531 786 597 697 q 333 875 465 875 l 264 875 l 264 556 l 424 556 l 424 444 l 264 444 l 264 97 l 333 97 z "},"E":{"ha":708,"x_min":125,"x_max":667,"o":"m 125 0 l 125 972 l 667 972 l 667 875 l 264 875 l 264 556 l 583 556 l 583 458 l 264 458 l 264 97 l 667 97 l 667 0 l 125 0 z "},"É":{"ha":708,"x_min":125,"x_max":667,"o":"m 125 0 l 125 972 l 667 972 l 667 875 l 264 875 l 264 556 l 583 556 l 583 458 l 264 458 l 264 97 l 667 97 l 667 0 l 125 0 m 319 1042 l 382 1250 l 535 1250 l 410 1042 l 319 1042 z "},"Ě":{"ha":708,"x_min":125,"x_max":667,"o":"m 125 0 l 125 972 l 667 972 l 667 875 l 264 875 l 264 556 l 583 556 l 583 458 l 264 458 l 264 97 l 667 97 l 667 0 l 125 0 m 364 1056 l 218 1236 l 308 1236 l 413 1146 l 517 1236 l 607 1236 l 461 1056 l 364 1056 z "},"Ê":{"ha":708,"x_min":125,"x_max":667,"o":"m 125 0 l 125 972 l 667 972 l 667 875 l 264 875 l 264 556 l 583 556 l 583 458 l 264 458 l 264 97 l 667 97 l 667 0 l 125 0 m 204 1056 l 350 1236 l 447 1236 l 593 1056 l 503 1056 l 399 1146 l 294 1056 l 204 1056 z "},"Ë":{"ha":708,"x_min":125,"x_max":667,"o":"m 125 0 l 125 972 l 667 972 l 667 875 l 264 875 l 264 556 l 583 556 l 583 458 l 264 458 l 264 97 l 667 97 l 667 0 l 125 0 m 274 1063 q 219 1084 240 1063 q 197 1139 197 1106 q 219 1194 197 1172 q 274 1215 240 1215 q 328 1194 307 1215 q 350 1139 350 1172 q 328 1084 350 1106 q 274 1063 307 1063 m 517 1063 q 462 1084 483 1063 q 440 1139 440 1106 q 462 1194 440 1172 q 517 1215 483 1215 q 572 1194 550 1215 q 593 1139 593 1172 q 572 1084 593 1106 q 517 1063 550 1063 z "},"Ė":{"ha":708,"x_min":125,"x_max":667,"o":"m 125 0 l 125 972 l 667 972 l 667 875 l 264 875 l 264 556 l 583 556 l 583 458 l 264 458 l 264 97 l 667 97 l 667 0 l 125 0 m 413 1056 q 353 1079 376 1056 q 329 1139 329 1103 q 353 1199 329 1175 q 413 1222 376 1222 q 472 1199 449 1222 q 496 1139 496 1175 q 472 1079 496 1103 q 413 1056 449 1056 z "},"È":{"ha":708,"x_min":125,"x_max":667,"o":"m 125 0 l 125 972 l 667 972 l 667 875 l 264 875 l 264 556 l 583 556 l 583 458 l 264 458 l 264 97 l 667 97 l 667 0 l 125 0 m 375 1042 l 250 1250 l 403 1250 l 465 1042 l 375 1042 z "},"Ē":{"ha":708,"x_min":125,"x_max":667,"o":"m 125 0 l 125 972 l 667 972 l 667 875 l 264 875 l 264 556 l 583 556 l 583 458 l 264 458 l 264 97 l 667 97 l 667 0 l 125 0 m 211 1097 l 211 1194 l 586 1194 l 586 1097 l 211 1097 z "},"Ę":{"ha":708,"x_min":125,"x_max":667,"o":"m 125 0 l 125 972 l 667 972 l 667 875 l 264 875 l 264 556 l 583 556 l 583 458 l 264 458 l 264 97 l 667 97 l 667 0 l 125 0 m 431 -215 q 338 -187 369 -215 q 306 -111 306 -160 q 340 -32 306 -72 q 375 0 354 -17 l 472 0 q 438 -26 453 -11 q 403 -90 403 -58 q 417 -125 403 -111 q 451 -139 431 -139 q 487 -132 469 -139 q 515 -118 504 -125 q 529 -108 526 -111 l 542 -108 l 542 -181 q 513 -199 526 -193 q 431 -215 476 -215 z "},"F":{"ha":694,"x_min":125,"x_max":667,"o":"m 125 0 l 125 972 l 667 972 l 667 875 l 264 875 l 264 542 l 583 542 l 583 444 l 264 444 l 264 0 l 125 0 z "},"G":{"ha":785,"x_min":76,"x_max":694,"o":"m 438 -14 q 174 110 272 -14 q 76 486 76 235 q 122 767 76 654 q 245 933 167 879 q 424 986 324 986 q 603 947 522 986 q 667 910 642 929 l 618 826 l 604 826 q 557 857 583 842 q 438 889 496 889 q 215 486 215 889 q 277 176 215 269 q 451 83 339 83 q 499 90 476 83 q 537 103 522 96 q 556 111 551 110 l 556 431 l 396 431 l 396 528 l 653 528 l 694 486 l 694 63 q 626 24 667 40 q 438 -14 546 -14 z "},"Ğ":{"ha":785,"x_min":76,"x_max":694,"o":"m 438 -14 q 174 110 272 -14 q 76 486 76 235 q 122 767 76 654 q 245 933 167 879 q 424 986 324 986 q 603 947 522 986 q 667 910 642 929 l 618 826 l 604 826 q 557 857 583 842 q 438 889 496 889 q 215 486 215 889 q 277 176 215 269 q 451 83 339 83 q 499 90 476 83 q 537 103 522 96 q 556 111 551 110 l 556 431 l 396 431 l 396 528 l 653 528 l 694 486 l 694 63 q 626 24 667 40 q 438 -14 546 -14 m 413 1042 q 257 1090 310 1042 q 204 1222 204 1138 l 329 1222 q 349 1148 329 1171 q 413 1125 369 1125 q 476 1148 456 1125 q 496 1222 496 1171 l 621 1222 q 568 1090 621 1138 q 413 1042 515 1042 z "},"Ģ":{"ha":785,"x_min":76,"x_max":694,"o":"m 438 -14 q 174 110 272 -14 q 76 486 76 235 q 122 767 76 654 q 245 933 167 879 q 424 986 324 986 q 603 947 522 986 q 667 910 642 929 l 618 826 l 604 826 q 557 857 583 842 q 438 889 496 889 q 215 486 215 889 q 277 176 215 269 q 451 83 339 83 q 499 90 476 83 q 537 103 522 96 q 556 111 551 110 l 556 431 l 396 431 l 396 528 l 653 528 l 694 486 l 694 63 q 626 24 667 40 q 438 -14 546 -14 m 350 -325 q 385 -294 375 -306 q 419 -221 419 -251 q 372 -199 393 -221 q 350 -144 350 -176 q 372 -90 350 -112 q 419 -68 393 -68 q 480 -92 457 -68 q 503 -157 503 -117 q 447 -318 503 -249 q 392 -368 422 -350 l 350 -325 z "},"H":{"ha":875,"x_min":125,"x_max":750,"o":"m 125 0 l 125 972 l 264 972 l 264 542 l 611 542 l 611 972 l 750 972 l 750 0 l 611 0 l 611 444 l 264 444 l 264 0 l 125 0 z "},"I":{"ha":389,"x_min":125,"x_max":264,"o":"m 125 0 l 125 972 l 264 972 l 264 0 l 125 0 z "},"Í":{"ha":385,"x_min":125,"x_max":357,"o":"m 125 0 l 125 972 l 264 972 l 264 0 l 125 0 m 142 1042 l 204 1250 l 357 1250 l 232 1042 l 142 1042 z "},"Î":{"ha":375,"x_min":-6,"x_max":383,"o":"m 125 0 l 125 972 l 264 972 l 264 0 l 125 0 m -6 1056 l 140 1236 l 238 1236 l 383 1056 l 293 1056 l 189 1146 l 85 1056 l -6 1056 z "},"Ï":{"ha":361,"x_min":-19,"x_max":376,"o":"m 125 0 l 125 972 l 264 972 l 264 0 l 125 0 m 57 1063 q 2 1084 24 1063 q -19 1139 -19 1106 q 2 1194 -19 1172 q 57 1215 24 1215 q 112 1194 90 1215 q 133 1139 133 1172 q 112 1084 133 1106 q 57 1063 90 1063 m 300 1063 q 245 1084 267 1063 q 224 1139 224 1106 q 245 1194 224 1172 q 300 1215 267 1215 q 355 1194 333 1215 q 376 1139 376 1172 q 355 1084 376 1106 q 300 1063 333 1063 z "},"İ":{"ha":361,"x_min":97,"x_max":264,"o":"m 125 0 l 125 972 l 264 972 l 264 0 l 125 0 m 181 1056 q 121 1079 144 1056 q 97 1139 97 1103 q 121 1199 97 1175 q 181 1222 144 1222 q 240 1199 217 1222 q 264 1139 264 1175 q 240 1079 264 1103 q 181 1056 217 1056 z "},"Ì":{"ha":386,"x_min":28,"x_max":264,"o":"m 125 0 l 125 972 l 264 972 l 264 0 l 125 0 m 153 1042 l 28 1250 l 181 1250 l 243 1042 l 153 1042 z "},"Ī":{"ha":361,"x_min":-6,"x_max":369,"o":"m 125 0 l 125 972 l 264 972 l 264 0 l 125 0 m -6 1083 l -6 1181 l 369 1181 l 369 1083 l -6 1083 z "},"Į":{"ha":375,"x_min":90,"x_max":326,"o":"m 125 0 l 125 972 l 264 972 l 264 0 l 125 0 m 215 -215 q 122 -187 154 -215 q 90 -111 90 -160 q 125 -32 90 -72 q 160 0 139 -17 l 257 0 q 222 -26 238 -11 q 188 -90 188 -58 q 201 -125 188 -111 q 236 -139 215 -139 q 272 -132 254 -139 q 300 -118 289 -125 q 314 -108 311 -111 l 326 -108 l 326 -181 q 297 -199 311 -193 q 215 -215 261 -215 z "},"Ĩ":{"ha":347,"x_min":-25,"x_max":357,"o":"m 125 0 l 125 972 l 264 972 l 264 0 l 125 0 m 357 1201 q 232 1083 318 1083 q 188 1093 206 1083 q 153 1121 171 1103 q 141 1131 150 1124 q 124 1142 132 1139 q 107 1146 115 1146 q 75 1133 89 1146 q 53 1108 61 1121 q 43 1090 44 1094 l 31 1090 l -25 1125 q 23 1212 -6 1181 q 100 1243 51 1243 q 144 1233 126 1243 q 181 1206 161 1224 q 205 1186 196 1192 q 226 1181 214 1181 q 259 1193 244 1181 q 282 1220 274 1206 q 289 1236 290 1235 l 301 1236 l 357 1201 z "},"J":{"ha":590,"x_min":0,"x_max":472,"o":"m 188 -14 q 51 17 118 -14 q 0 49 19 32 l 42 139 l 56 139 q 92 111 74 124 q 174 83 132 83 q 294 127 254 83 q 333 264 333 171 l 333 972 l 472 972 l 472 264 q 401 56 472 126 q 188 -14 329 -14 z "},"Ĵ":{"ha":569,"x_min":0,"x_max":590,"o":"m 188 -14 q 51 17 118 -14 q 0 49 19 32 l 42 139 l 56 139 q 92 111 74 124 q 174 83 132 83 q 294 127 254 83 q 333 264 333 171 l 333 972 l 472 972 l 472 264 q 401 56 472 126 q 188 -14 329 -14 m 201 1028 l 347 1208 l 444 1208 l 590 1028 l 500 1028 l 396 1118 l 292 1028 l 201 1028 z "},"K":{"ha":771,"x_min":125,"x_max":750,"o":"m 125 0 l 125 972 l 264 972 l 264 514 l 576 972 l 736 972 l 417 500 l 750 0 l 590 0 l 264 486 l 264 0 l 125 0 z "},"Ķ":{"ha":771,"x_min":125,"x_max":750,"o":"m 125 0 l 125 972 l 264 972 l 264 514 l 576 972 l 736 972 l 417 500 l 750 0 l 590 0 l 264 486 l 264 0 l 125 0 m 329 -271 q 364 -240 354 -251 q 399 -167 399 -197 q 351 -144 372 -167 q 329 -90 329 -122 q 351 -36 329 -58 q 399 -14 372 -14 q 459 -38 436 -14 q 482 -103 482 -62 q 426 -264 482 -194 q 371 -314 401 -296 l 329 -271 z "},"L":{"ha":681,"x_min":125,"x_max":667,"o":"m 125 0 l 125 972 l 264 972 l 264 97 l 667 97 l 667 0 l 125 0 z "},"Ĺ":{"ha":681,"x_min":125,"x_max":667,"o":"m 125 0 l 125 972 l 264 972 l 264 97 l 667 97 l 667 0 l 125 0 m 167 1042 l 229 1250 l 382 1250 l 257 1042 l 167 1042 z "},"Ľ":{"ha":681,"x_min":125,"x_max":667,"o":"m 125 0 l 125 972 l 264 972 l 264 97 l 667 97 l 667 0 l 125 0 m 368 715 q 403 746 393 735 q 438 819 438 789 q 390 842 411 819 q 368 896 368 864 q 390 950 368 928 q 438 972 411 972 q 498 948 475 972 q 521 883 521 924 q 465 722 521 792 q 410 672 440 690 l 368 715 z "},"Ļ":{"ha":681,"x_min":125,"x_max":667,"o":"m 125 0 l 125 972 l 264 972 l 264 97 l 667 97 l 667 0 l 125 0 m 322 -325 q 357 -294 347 -306 q 392 -221 392 -251 q 344 -199 365 -221 q 322 -144 322 -176 q 344 -90 322 -112 q 392 -68 365 -68 q 452 -92 429 -68 q 475 -157 475 -117 q 419 -318 475 -249 q 364 -368 394 -350 l 322 -325 z "},"Ł":{"ha":656,"x_min":21,"x_max":642,"o":"m 114 0 l 114 375 l 21 306 l 21 458 l 114 528 l 114 972 l 253 972 l 253 632 l 410 750 l 410 597 l 253 479 l 253 97 l 642 97 l 642 0 l 114 0 z "},"M":{"ha":1167,"x_min":125,"x_max":1042,"o":"m 125 972 l 264 972 l 556 382 q 574 339 567 364 q 581 313 579 318 l 586 313 q 593 339 588 318 q 611 382 600 364 l 903 972 l 1042 972 l 1042 0 l 903 0 l 903 611 q 906 686 903 633 l 908 729 l 903 729 l 890 686 q 878 651 886 675 q 861 611 869 626 l 639 174 l 528 174 l 306 611 q 289 651 297 626 q 276 686 281 675 l 264 729 l 258 729 l 261 686 q 264 611 264 633 l 264 0 l 125 0 l 125 972 z "},"N":{"ha":875,"x_min":125,"x_max":750,"o":"m 125 972 l 278 972 l 569 326 q 578 305 575 315 q 585 286 582 294 l 597 251 q 605 228 601 239 q 611 208 608 217 l 617 208 l 614 251 q 611 326 611 299 l 611 972 l 750 972 l 750 0 l 597 0 l 306 646 q 278 721 293 674 q 272 740 275 729 q 264 764 268 751 l 258 764 l 261 721 q 264 646 264 668 l 264 0 l 125 0 l 125 972 z "},"Ń":{"ha":875,"x_min":125,"x_max":750,"o":"m 125 972 l 278 972 l 569 326 q 578 305 575 315 q 585 286 582 294 l 597 251 q 605 228 601 239 q 611 208 608 217 l 617 208 l 614 251 q 611 326 611 299 l 611 972 l 750 972 l 750 0 l 597 0 l 306 646 q 278 721 293 674 q 272 740 275 729 q 264 764 268 751 l 258 764 l 261 721 q 264 646 264 668 l 264 0 l 125 0 l 125 972 m 371 1028 l 433 1236 l 586 1236 l 461 1028 l 371 1028 z "},"Ň":{"ha":875,"x_min":125,"x_max":750,"o":"m 125 972 l 278 972 l 569 326 q 578 305 575 315 q 585 286 582 294 l 597 251 q 605 228 601 239 q 611 208 608 217 l 617 208 l 614 251 q 611 326 611 299 l 611 972 l 750 972 l 750 0 l 597 0 l 306 646 q 278 721 293 674 q 272 740 275 729 q 264 764 268 751 l 258 764 l 261 721 q 264 646 264 668 l 264 0 l 125 0 l 125 972 m 389 1042 l 243 1222 l 333 1222 l 438 1132 l 542 1222 l 632 1222 l 486 1042 l 389 1042 z "},"Ņ":{"ha":875,"x_min":125,"x_max":750,"o":"m 125 972 l 278 972 l 569 326 q 578 305 575 315 q 585 286 582 294 l 597 251 q 605 228 601 239 q 611 208 608 217 l 617 208 l 614 251 q 611 326 611 299 l 611 972 l 750 972 l 750 0 l 597 0 l 306 646 q 278 721 293 674 q 272 740 275 729 q 264 764 268 751 l 258 764 l 261 721 q 264 646 264 668 l 264 0 l 125 0 l 125 972 m 361 -271 q 396 -240 386 -251 q 431 -167 431 -197 q 383 -144 404 -167 q 361 -90 361 -122 q 383 -36 361 -58 q 431 -14 404 -14 q 491 -38 468 -14 q 514 -103 514 -62 q 458 -264 514 -194 q 403 -314 433 -296 l 361 -271 z "},"Ñ":{"ha":875,"x_min":125,"x_max":750,"o":"m 125 972 l 278 972 l 569 326 q 578 305 575 315 q 585 286 582 294 l 597 251 q 605 228 601 239 q 611 208 608 217 l 617 208 l 614 251 q 611 326 611 299 l 611 972 l 750 972 l 750 0 l 597 0 l 306 646 q 278 721 293 674 q 272 740 275 729 q 264 764 268 751 l 258 764 l 261 721 q 264 646 264 668 l 264 0 l 125 0 l 125 972 m 619 1160 q 494 1042 581 1042 q 451 1051 468 1042 q 415 1079 433 1061 q 403 1090 413 1082 q 386 1101 394 1097 q 369 1104 378 1104 q 338 1092 351 1104 q 315 1066 324 1079 q 306 1049 307 1053 l 293 1049 l 238 1083 q 285 1170 257 1139 q 363 1201 314 1201 q 406 1192 389 1201 q 443 1164 424 1182 q 467 1144 458 1150 q 489 1139 476 1139 q 522 1151 507 1139 q 544 1178 536 1164 q 551 1194 553 1193 l 564 1194 l 619 1160 z "},"O":{"ha":833,"x_min":76,"x_max":757,"o":"m 417 -14 q 167 106 257 -14 q 76 486 76 226 q 167 866 76 746 q 417 986 257 986 q 667 866 576 986 q 757 486 757 746 q 667 106 757 226 q 417 -14 576 -14 m 417 83 q 561 178 504 83 q 618 486 618 274 q 561 794 618 699 q 417 889 504 889 q 272 794 329 889 q 215 486 215 699 q 272 178 215 274 q 417 83 329 83 z "},"Ó":{"ha":833,"x_min":76,"x_max":757,"o":"m 417 -14 q 167 106 257 -14 q 76 486 76 226 q 167 866 76 746 q 417 986 257 986 q 667 866 576 986 q 757 486 757 746 q 667 106 757 226 q 417 -14 576 -14 m 417 83 q 561 178 504 83 q 618 486 618 274 q 561 794 618 699 q 417 889 504 889 q 272 794 329 889 q 215 486 215 699 q 272 178 215 274 q 417 83 329 83 m 350 1042 l 413 1250 l 565 1250 l 440 1042 l 350 1042 z "},"Ô":{"ha":833,"x_min":76,"x_max":757,"o":"m 417 -14 q 167 106 257 -14 q 76 486 76 226 q 167 866 76 746 q 417 986 257 986 q 667 866 576 986 q 757 486 757 746 q 667 106 757 226 q 417 -14 576 -14 m 417 83 q 561 178 504 83 q 618 486 618 274 q 561 794 618 699 q 417 889 504 889 q 272 794 329 889 q 215 486 215 699 q 272 178 215 274 q 417 83 329 83 m 222 1056 l 368 1236 l 465 1236 l 611 1056 l 521 1056 l 417 1146 l 313 1056 l 222 1056 z "},"Ö":{"ha":833,"x_min":76,"x_max":757,"o":"m 417 -14 q 167 106 257 -14 q 76 486 76 226 q 167 866 76 746 q 417 986 257 986 q 667 866 576 986 q 757 486 757 746 q 667 106 757 226 q 417 -14 576 -14 m 417 83 q 561 178 504 83 q 618 486 618 274 q 561 794 618 699 q 417 889 504 889 q 272 794 329 889 q 215 486 215 699 q 272 178 215 274 q 417 83 329 83 m 292 1063 q 237 1084 258 1063 q 215 1139 215 1106 q 237 1194 215 1172 q 292 1215 258 1215 q 347 1194 325 1215 q 368 1139 368 1172 q 347 1084 368 1106 q 292 1063 325 1063 m 535 1063 q 480 1084 501 1063 q 458 1139 458 1106 q 480 1194 458 1172 q 535 1215 501 1215 q 590 1194 568 1215 q 611 1139 611 1172 q 590 1084 611 1106 q 535 1063 568 1063 z "},"Ò":{"ha":833,"x_min":76,"x_max":757,"o":"m 417 -14 q 167 106 257 -14 q 76 486 76 226 q 167 866 76 746 q 417 986 257 986 q 667 866 576 986 q 757 486 757 746 q 667 106 757 226 q 417 -14 576 -14 m 417 83 q 561 178 504 83 q 618 486 618 274 q 561 794 618 699 q 417 889 504 889 q 272 794 329 889 q 215 486 215 699 q 272 178 215 274 q 417 83 329 83 m 392 1042 l 267 1250 l 419 1250 l 482 1042 l 392 1042 z "},"Ő":{"ha":833,"x_min":76,"x_max":757,"o":"m 417 -14 q 167 106 257 -14 q 76 486 76 226 q 167 866 76 746 q 417 986 257 986 q 667 866 576 986 q 757 486 757 746 q 667 106 757 226 q 417 -14 576 -14 m 417 83 q 561 178 504 83 q 618 486 618 274 q 561 794 618 699 q 417 889 504 889 q 272 794 329 889 q 215 486 215 699 q 272 178 215 274 q 417 83 329 83 m 281 1042 l 343 1250 l 475 1250 l 357 1042 l 281 1042 m 468 1042 l 531 1250 l 663 1250 l 544 1042 l 468 1042 z "},"Ō":{"ha":833,"x_min":76,"x_max":757,"o":"m 417 -14 q 167 106 257 -14 q 76 486 76 226 q 167 866 76 746 q 417 986 257 986 q 667 866 576 986 q 757 486 757 746 q 667 106 757 226 q 417 -14 576 -14 m 417 83 q 561 178 504 83 q 618 486 618 274 q 561 794 618 699 q 417 889 504 889 q 272 794 329 889 q 215 486 215 699 q 272 178 215 274 q 417 83 329 83 m 229 1097 l 229 1194 l 604 1194 l 604 1097 l 229 1097 z "},"Ø":{"ha":833,"x_min":76,"x_max":757,"o":"m 417 -14 q 222 49 301 -14 l 194 0 l 83 0 l 154 124 q 76 486 76 251 q 167 866 76 746 q 417 986 257 986 q 611 924 532 986 l 639 972 l 750 972 l 679 847 q 757 486 757 724 q 667 106 757 226 q 417 -14 576 -14 m 549 814 q 417 889 497 889 q 272 794 329 889 q 215 486 215 699 q 238 269 215 353 l 549 814 m 417 83 q 561 178 504 83 q 618 486 618 274 q 596 701 618 621 l 285 157 q 417 83 336 83 z "},"Õ":{"ha":833,"x_min":76,"x_max":757,"o":"m 417 -14 q 167 106 257 -14 q 76 486 76 226 q 167 866 76 746 q 417 986 257 986 q 667 866 576 986 q 757 486 757 746 q 667 106 757 226 q 417 -14 576 -14 m 417 83 q 561 178 504 83 q 618 486 618 274 q 561 794 618 699 q 417 889 504 889 q 272 794 329 889 q 215 486 215 699 q 272 178 215 274 q 417 83 329 83 m 599 1174 q 474 1056 560 1056 q 430 1065 447 1056 q 394 1093 413 1075 q 383 1103 392 1096 q 365 1115 374 1111 q 349 1118 357 1118 q 317 1106 331 1118 q 294 1080 303 1093 q 285 1063 286 1067 l 272 1063 l 217 1097 q 265 1184 236 1153 q 342 1215 293 1215 q 385 1206 368 1215 q 422 1178 403 1196 q 447 1158 438 1164 q 468 1153 456 1153 q 501 1165 486 1153 q 524 1192 515 1178 q 531 1208 532 1207 l 543 1208 l 599 1174 z "},"Œ":{"ha":1132,"x_min":76,"x_max":1090,"o":"m 479 0 q 176 115 276 0 q 76 486 76 231 q 176 857 76 742 q 479 972 276 972 l 1090 972 l 1090 875 l 688 875 l 688 556 l 1007 556 l 1007 458 l 688 458 l 688 97 l 1090 97 l 1090 0 l 479 0 m 549 97 l 549 875 l 479 875 q 281 786 347 875 q 215 486 215 697 q 281 186 215 275 q 479 97 347 97 l 549 97 z "},"P":{"ha":785,"x_min":125,"x_max":722,"o":"m 125 972 l 375 972 q 637 892 551 972 q 722 653 722 811 q 637 414 722 494 q 375 333 551 333 l 264 333 l 264 0 l 125 0 l 125 972 m 375 431 q 532 485 481 431 q 583 653 583 539 q 532 821 583 767 q 375 875 481 875 l 264 875 l 264 431 l 375 431 z "},"Þ":{"ha":854,"x_min":125,"x_max":792,"o":"m 125 1000 l 264 1000 l 264 889 l 389 889 q 688 785 583 889 q 792 486 792 681 q 688 188 792 292 q 389 83 583 83 l 264 83 l 264 -28 l 125 -28 l 125 1000 m 389 181 q 583 259 513 181 q 653 486 653 338 q 583 713 653 635 q 389 792 513 792 l 264 792 l 264 181 l 389 181 z "},"Q":{"ha":833,"x_min":76,"x_max":757,"o":"m 563 -215 q 405 -159 463 -215 q 347 -7 347 -103 q 149 135 221 14 q 76 486 76 257 q 167 866 76 746 q 417 986 257 986 q 667 866 576 986 q 757 486 757 746 q 685 135 757 257 q 486 -7 613 14 q 576 -118 486 -118 q 611 -111 594 -118 l 625 -104 l 639 -104 l 667 -194 q 650 -201 658 -199 q 635 -206 642 -203 q 563 -215 599 -215 m 417 83 q 561 178 504 83 q 618 486 618 274 q 561 794 618 699 q 417 889 504 889 q 272 794 329 889 q 215 486 215 699 q 272 178 215 274 q 417 83 329 83 z "},"R":{"ha":799,"x_min":125,"x_max":750,"o":"m 125 972 l 361 972 q 622 894 536 972 q 708 667 708 817 q 518 382 708 444 l 750 0 l 590 0 l 375 361 l 264 361 l 264 0 l 125 0 l 125 972 m 361 458 q 569 667 569 458 q 361 875 569 875 l 264 875 l 264 458 l 361 458 z "},"Ŕ":{"ha":799,"x_min":125,"x_max":750,"o":"m 125 972 l 361 972 q 622 894 536 972 q 708 667 708 817 q 518 382 708 444 l 750 0 l 590 0 l 375 361 l 264 361 l 264 0 l 125 0 l 125 972 m 361 458 q 569 667 569 458 q 361 875 569 875 l 264 875 l 264 458 l 361 458 m 326 1042 l 389 1250 l 542 1250 l 417 1042 l 326 1042 z "},"Ř":{"ha":799,"x_min":125,"x_max":750,"o":"m 125 972 l 361 972 q 622 894 536 972 q 708 667 708 817 q 518 382 708 444 l 750 0 l 590 0 l 375 361 l 264 361 l 264 0 l 125 0 l 125 972 m 361 458 q 569 667 569 458 q 361 875 569 875 l 264 875 l 264 458 l 361 458 m 329 1056 l 183 1236 l 274 1236 l 378 1146 l 482 1236 l 572 1236 l 426 1056 l 329 1056 z "},"Ŗ":{"ha":799,"x_min":125,"x_max":750,"o":"m 125 972 l 361 972 q 622 894 536 972 q 708 667 708 817 q 518 382 708 444 l 750 0 l 590 0 l 375 361 l 264 361 l 264 0 l 125 0 l 125 972 m 361 458 q 569 667 569 458 q 361 875 569 875 l 264 875 l 264 458 l 361 458 m 329 -271 q 364 -240 354 -251 q 399 -167 399 -197 q 351 -144 372 -167 q 329 -90 329 -122 q 351 -36 329 -58 q 399 -14 372 -14 q 459 -38 436 -14 q 482 -103 482 -62 q 426 -264 482 -194 q 371 -314 401 -296 l 329 -271 z "},"S":{"ha":701,"x_min":49,"x_max":653,"o":"m 333 -14 q 124 24 211 -14 q 49 63 78 42 l 97 146 l 111 146 q 168 114 131 132 q 319 83 243 83 q 463 128 413 83 q 514 250 514 174 q 488 333 514 299 q 422 389 461 367 q 315 443 383 411 q 183 510 233 479 q 98 594 133 542 q 63 722 63 646 q 98 858 63 799 q 199 952 133 918 q 354 986 265 986 q 557 947 471 986 q 625 910 594 932 l 576 826 l 563 826 q 513 857 544 842 q 368 889 443 889 q 249 844 297 889 q 201 736 201 799 q 228 653 201 688 q 293 597 254 619 q 400 543 332 575 q 532 476 482 507 q 617 392 582 444 q 653 264 653 340 q 569 61 653 136 q 333 -14 486 -14 z "},"Ś":{"ha":701,"x_min":49,"x_max":653,"o":"m 333 -14 q 124 24 211 -14 q 49 63 78 42 l 97 146 l 111 146 q 168 114 131 132 q 319 83 243 83 q 463 128 413 83 q 514 250 514 174 q 488 333 514 299 q 422 389 461 367 q 315 443 383 411 q 183 510 233 479 q 98 594 133 542 q 63 722 63 646 q 98 858 63 799 q 199 952 133 918 q 354 986 265 986 q 557 947 471 986 q 625 910 594 932 l 576 826 l 563 826 q 513 857 544 842 q 368 889 443 889 q 249 844 297 889 q 201 736 201 799 q 228 653 201 688 q 293 597 254 619 q 400 543 332 575 q 532 476 482 507 q 617 392 582 444 q 653 264 653 340 q 569 61 653 136 q 333 -14 486 -14 m 299 1042 l 361 1250 l 514 1250 l 389 1042 l 299 1042 z "},"Š":{"ha":701,"x_min":49,"x_max":653,"o":"m 333 -14 q 124 24 211 -14 q 49 63 78 42 l 97 146 l 111 146 q 168 114 131 132 q 319 83 243 83 q 463 128 413 83 q 514 250 514 174 q 488 333 514 299 q 422 389 461 367 q 315 443 383 411 q 183 510 233 479 q 98 594 133 542 q 63 722 63 646 q 98 858 63 799 q 199 952 133 918 q 354 986 265 986 q 557 947 471 986 q 625 910 594 932 l 576 826 l 563 826 q 513 857 544 842 q 368 889 443 889 q 249 844 297 889 q 201 736 201 799 q 228 653 201 688 q 293 597 254 619 q 400 543 332 575 q 532 476 482 507 q 617 392 582 444 q 653 264 653 340 q 569 61 653 136 q 333 -14 486 -14 m 301 1056 l 156 1236 l 246 1236 l 350 1146 l 454 1236 l 544 1236 l 399 1056 l 301 1056 z "},"Ş":{"ha":701,"x_min":49,"x_max":653,"o":"m 653 264 q 577 67 653 142 q 361 -14 501 -7 l 361 -42 q 452 -73 418 -42 q 486 -153 486 -104 q 451 -233 486 -201 q 354 -264 415 -264 q 272 -250 314 -264 q 243 -236 253 -243 l 265 -181 l 278 -181 q 288 -187 279 -182 q 310 -197 296 -192 q 340 -201 325 -201 q 381 -187 365 -201 q 396 -153 396 -174 q 380 -117 396 -131 q 333 -104 364 -104 l 278 -104 l 278 -11 q 124 24 189 -6 q 49 63 78 42 l 97 146 l 111 146 q 168 114 131 132 q 319 83 243 83 q 463 128 413 83 q 514 250 514 174 q 488 333 514 299 q 422 389 461 367 q 315 443 383 411 q 183 510 233 479 q 98 594 133 542 q 63 722 63 646 q 98 858 63 799 q 199 952 133 918 q 354 986 265 986 q 557 947 471 986 q 625 910 594 932 l 576 826 l 563 826 q 513 857 544 842 q 368 889 443 889 q 249 844 297 889 q 201 736 201 799 q 228 653 201 688 q 293 597 254 619 q 400 543 332 575 q 532 476 482 507 q 617 392 582 444 q 653 264 653 340 z "},"Ș":{"ha":701,"x_min":49,"x_max":653,"o":"m 333 -14 q 124 24 211 -14 q 49 63 78 42 l 97 146 l 111 146 q 168 114 131 132 q 319 83 243 83 q 463 128 413 83 q 514 250 514 174 q 488 333 514 299 q 422 389 461 367 q 315 443 383 411 q 183 510 233 479 q 98 594 133 542 q 63 722 63 646 q 98 858 63 799 q 199 952 133 918 q 354 986 265 986 q 557 947 471 986 q 625 910 594 932 l 576 826 l 563 826 q 513 857 544 842 q 368 889 443 889 q 249 844 297 889 q 201 736 201 799 q 228 653 201 688 q 293 597 254 619 q 400 543 332 575 q 532 476 482 507 q 617 392 582 444 q 653 264 653 340 q 569 61 653 136 q 333 -14 486 -14 m 285 -332 q 319 -301 310 -312 q 354 -228 354 -258 q 306 -206 328 -228 q 285 -151 285 -183 q 306 -97 285 -119 q 354 -75 328 -75 q 415 -99 392 -75 q 438 -164 438 -124 q 382 -325 438 -256 q 326 -375 357 -357 l 285 -332 z "},"T":{"ha":667,"x_min":14,"x_max":653,"o":"m 264 0 l 264 875 l 14 875 l 14 972 l 653 972 l 653 875 l 403 875 l 403 0 l 264 0 z "},"Ť":{"ha":667,"x_min":14,"x_max":653,"o":"m 264 0 l 264 875 l 14 875 l 14 972 l 653 972 l 653 875 l 403 875 l 403 0 l 264 0 m 285 1056 l 139 1236 l 229 1236 l 333 1146 l 438 1236 l 528 1236 l 382 1056 l 285 1056 z "},"Ț":{"ha":667,"x_min":14,"x_max":653,"o":"m 264 0 l 264 875 l 14 875 l 14 972 l 653 972 l 653 875 l 403 875 l 403 0 l 264 0 m 257 -339 q 292 -308 282 -319 q 326 -235 326 -265 q 278 -212 300 -235 q 257 -158 257 -190 q 278 -104 257 -126 q 326 -82 300 -82 q 387 -106 364 -82 q 410 -171 410 -131 q 354 -332 410 -262 q 299 -382 329 -364 l 257 -339 z "},"U":{"ha":861,"x_min":118,"x_max":743,"o":"m 431 -14 q 199 67 279 -14 q 118 306 118 149 l 118 972 l 257 972 l 257 306 q 303 138 257 193 q 431 83 349 83 q 558 138 513 83 q 604 306 604 193 l 604 972 l 743 972 l 743 306 q 663 67 743 149 q 431 -14 582 -14 z "},"Ú":{"ha":861,"x_min":118,"x_max":743,"o":"m 431 -14 q 199 67 279 -14 q 118 306 118 149 l 118 972 l 257 972 l 257 306 q 303 138 257 193 q 431 83 349 83 q 558 138 513 83 q 604 306 604 193 l 604 972 l 743 972 l 743 306 q 663 67 743 149 q 431 -14 582 -14 m 378 1014 l 440 1222 l 593 1222 l 468 1014 l 378 1014 z "},"Û":{"ha":861,"x_min":118,"x_max":743,"o":"m 431 -14 q 199 67 279 -14 q 118 306 118 149 l 118 972 l 257 972 l 257 306 q 303 138 257 193 q 431 83 349 83 q 558 138 513 83 q 604 306 604 193 l 604 972 l 743 972 l 743 306 q 663 67 743 149 q 431 -14 582 -14 m 236 1056 l 382 1236 l 479 1236 l 625 1056 l 535 1056 l 431 1146 l 326 1056 l 236 1056 z "},"Ü":{"ha":861,"x_min":118,"x_max":743,"o":"m 431 -14 q 199 67 279 -14 q 118 306 118 149 l 118 972 l 257 972 l 257 306 q 303 138 257 193 q 431 83 349 83 q 558 138 513 83 q 604 306 604 193 l 604 972 l 743 972 l 743 306 q 663 67 743 149 q 431 -14 582 -14 m 306 1063 q 251 1084 272 1063 q 229 1139 229 1106 q 251 1194 229 1172 q 306 1215 272 1215 q 360 1194 339 1215 q 382 1139 382 1172 q 360 1084 382 1106 q 306 1063 339 1063 m 549 1063 q 494 1084 515 1063 q 472 1139 472 1106 q 494 1194 472 1172 q 549 1215 515 1215 q 603 1194 582 1215 q 625 1139 625 1172 q 603 1084 625 1106 q 549 1063 582 1063 z "},"Ù":{"ha":861,"x_min":118,"x_max":743,"o":"m 431 -14 q 199 67 279 -14 q 118 306 118 149 l 118 972 l 257 972 l 257 306 q 303 138 257 193 q 431 83 349 83 q 558 138 513 83 q 604 306 604 193 l 604 972 l 743 972 l 743 306 q 663 67 743 149 q 431 -14 582 -14 m 406 1014 l 281 1222 l 433 1222 l 496 1014 l 406 1014 z "},"Ű":{"ha":861,"x_min":118,"x_max":743,"o":"m 431 -14 q 199 67 279 -14 q 118 306 118 149 l 118 972 l 257 972 l 257 306 q 303 138 257 193 q 431 83 349 83 q 558 138 513 83 q 604 306 604 193 l 604 972 l 743 972 l 743 306 q 663 67 743 149 q 431 -14 582 -14 m 294 1028 l 357 1236 l 489 1236 l 371 1028 l 294 1028 m 482 1028 l 544 1236 l 676 1236 l 558 1028 l 482 1028 z "},"Ū":{"ha":861,"x_min":118,"x_max":743,"o":"m 431 -14 q 199 67 279 -14 q 118 306 118 149 l 118 972 l 257 972 l 257 306 q 303 138 257 193 q 431 83 349 83 q 558 138 513 83 q 604 306 604 193 l 604 972 l 743 972 l 743 306 q 663 67 743 149 q 431 -14 582 -14 m 243 1083 l 243 1181 l 618 1181 l 618 1083 l 243 1083 z "},"Ų":{"ha":861,"x_min":118,"x_max":743,"o":"m 743 972 l 743 306 q 674 79 743 160 q 475 -12 606 -1 q 458 -26 464 -21 q 424 -90 424 -58 q 438 -125 424 -111 q 472 -139 451 -139 q 508 -132 490 -139 q 536 -118 525 -125 q 550 -108 547 -111 l 563 -108 l 563 -181 q 533 -199 547 -193 q 451 -215 497 -215 q 358 -187 390 -215 q 326 -111 326 -160 q 361 -32 326 -72 q 382 -11 369 -22 q 185 82 253 1 q 118 306 118 163 l 118 972 l 257 972 l 257 306 q 303 138 257 193 q 431 83 349 83 q 558 138 513 83 q 604 306 604 193 l 604 972 l 743 972 z "},"Ů":{"ha":861,"x_min":118,"x_max":743,"o":"m 431 -14 q 199 67 279 -14 q 118 306 118 149 l 118 972 l 257 972 l 257 306 q 303 138 257 193 q 431 83 349 83 q 558 138 513 83 q 604 306 604 193 l 604 972 l 743 972 l 743 306 q 663 67 743 149 q 431 -14 582 -14 m 431 1014 q 330 1051 368 1014 q 292 1146 292 1088 q 330 1241 292 1204 q 431 1278 368 1278 q 531 1241 493 1278 q 569 1146 569 1204 q 531 1051 569 1088 q 431 1014 493 1014 m 431 1083 q 469 1099 453 1083 q 486 1146 486 1115 q 469 1192 486 1176 q 431 1208 453 1208 q 392 1192 408 1208 q 375 1146 375 1176 q 392 1099 375 1115 q 431 1083 408 1083 z "},"V":{"ha":726,"x_min":21,"x_max":706,"o":"m 21 972 l 146 972 l 347 243 q 354 210 351 229 q 360 179 357 190 l 365 146 l 371 146 l 375 179 q 389 243 385 226 l 590 972 l 706 972 l 435 0 l 292 0 l 21 972 z "},"W":{"ha":1135,"x_min":21,"x_max":1114,"o":"m 21 972 l 146 972 l 306 292 q 317 221 311 261 q 319 181 319 196 l 325 181 l 329 221 l 333 250 q 340 292 335 269 l 500 972 l 635 972 l 794 292 q 800 256 797 281 l 806 221 l 810 181 l 815 181 q 818 221 815 208 q 824 257 821 232 q 829 292 826 279 l 989 972 l 1114 972 l 885 0 l 744 0 l 585 681 q 578 716 581 693 q 572 751 575 739 l 567 792 l 561 792 l 556 751 l 543 681 l 383 0 l 250 0 l 21 972 z "},"X":{"ha":736,"x_min":21,"x_max":715,"o":"m 278 493 l 28 972 l 181 972 l 340 660 q 357 619 353 631 l 365 597 l 371 597 l 379 619 q 396 660 388 646 l 556 972 l 708 972 l 458 493 l 715 0 l 563 0 l 396 326 q 379 367 389 338 l 371 389 l 365 389 l 357 367 q 340 326 350 344 l 174 0 l 21 0 l 278 493 z "},"Y":{"ha":736,"x_min":0,"x_max":736,"o":"m 299 319 l 0 972 l 146 972 l 347 507 q 365 453 360 474 q 372 424 371 433 l 378 424 q 385 453 379 433 q 403 507 394 492 l 611 972 l 736 972 l 438 319 l 438 0 l 299 0 l 299 319 z "},"Ý":{"ha":736,"x_min":0,"x_max":736,"o":"m 299 319 l 0 972 l 146 972 l 347 507 q 365 453 360 474 q 372 424 371 433 l 378 424 q 385 453 379 433 q 403 507 394 492 l 611 972 l 736 972 l 438 319 l 438 0 l 299 0 l 299 319 m 315 1014 l 378 1222 l 531 1222 l 406 1014 l 315 1014 z "},"Ÿ":{"ha":736,"x_min":0,"x_max":736,"o":"m 299 319 l 0 972 l 146 972 l 347 507 q 365 453 360 474 q 372 424 371 433 l 378 424 q 385 453 379 433 q 403 507 394 492 l 611 972 l 736 972 l 438 319 l 438 0 l 299 0 l 299 319 m 243 1063 q 188 1084 210 1063 q 167 1139 167 1106 q 188 1194 167 1172 q 243 1215 210 1215 q 298 1194 276 1215 q 319 1139 319 1172 q 298 1084 319 1106 q 243 1063 276 1063 m 486 1063 q 431 1084 453 1063 q 410 1139 410 1106 q 431 1194 410 1172 q 486 1215 453 1215 q 541 1194 519 1215 q 563 1139 563 1172 q 541 1084 563 1106 q 486 1063 519 1063 z "},"Z":{"ha":674,"x_min":35,"x_max":639,"o":"m 35 0 l 35 104 l 465 875 l 35 875 l 35 972 l 632 972 l 632 868 l 201 97 l 639 97 l 639 0 l 35 0 z "},"Ź":{"ha":674,"x_min":35,"x_max":639,"o":"m 35 0 l 35 104 l 465 875 l 35 875 l 35 972 l 632 972 l 632 868 l 201 97 l 639 97 l 639 0 l 35 0 m 271 1042 l 333 1250 l 486 1250 l 361 1042 l 271 1042 z "},"Ž":{"ha":674,"x_min":35,"x_max":639,"o":"m 35 0 l 35 104 l 465 875 l 35 875 l 35 972 l 632 972 l 632 868 l 201 97 l 639 97 l 639 0 l 35 0 m 288 1056 l 142 1236 l 232 1236 l 336 1146 l 440 1236 l 531 1236 l 385 1056 l 288 1056 z "},"Ż":{"ha":674,"x_min":35,"x_max":639,"o":"m 35 0 l 35 104 l 465 875 l 35 875 l 35 972 l 632 972 l 632 868 l 201 97 l 639 97 l 639 0 l 35 0 m 336 1056 q 276 1079 300 1056 q 253 1139 253 1103 q 276 1199 253 1175 q 336 1222 300 1222 q 396 1199 372 1222 q 419 1139 419 1175 q 396 1079 419 1103 q 336 1056 372 1056 z "},"a":{"ha":708,"x_min":63,"x_max":611,"o":"m 292 -14 q 123 44 183 -14 q 63 201 63 101 q 134 355 63 300 q 361 410 206 410 l 472 410 l 472 444 q 434 569 472 526 q 326 611 396 611 q 218 579 276 611 q 174 549 189 563 l 160 549 l 111 632 q 174 669 139 653 q 340 708 249 708 q 481 674 419 708 q 576 580 542 640 q 611 444 611 519 l 611 0 l 514 0 l 500 83 l 493 83 q 444 35 474 56 q 292 -14 383 -14 m 326 90 q 431 132 378 90 q 472 174 454 151 l 472 313 l 361 313 q 242 282 282 313 q 201 201 201 251 q 233 119 201 147 q 326 90 264 90 z "},"á":{"ha":708,"x_min":63,"x_max":611,"o":"m 292 -14 q 123 44 183 -14 q 63 201 63 101 q 134 355 63 300 q 361 410 206 410 l 472 410 l 472 444 q 434 569 472 526 q 326 611 396 611 q 218 579 276 611 q 174 549 189 563 l 160 549 l 111 632 q 174 669 139 653 q 340 708 249 708 q 481 674 419 708 q 576 580 542 640 q 611 444 611 519 l 611 0 l 514 0 l 500 83 l 493 83 q 444 35 474 56 q 292 -14 383 -14 m 326 90 q 431 132 378 90 q 472 174 454 151 l 472 313 l 361 313 q 242 282 282 313 q 201 201 201 251 q 233 119 201 147 q 326 90 264 90 m 288 764 l 350 972 l 503 972 l 378 764 l 288 764 z "},"ă":{"ha":708,"x_min":63,"x_max":611,"o":"m 292 -14 q 123 44 183 -14 q 63 201 63 101 q 134 355 63 300 q 361 410 206 410 l 472 410 l 472 444 q 434 569 472 526 q 326 611 396 611 q 218 579 276 611 q 174 549 189 563 l 160 549 l 111 632 q 174 669 139 653 q 340 708 249 708 q 481 674 419 708 q 576 580 542 640 q 611 444 611 519 l 611 0 l 514 0 l 500 83 l 493 83 q 444 35 474 56 q 292 -14 383 -14 m 326 90 q 431 132 378 90 q 472 174 454 151 l 472 313 l 361 313 q 242 282 282 313 q 201 201 201 251 q 233 119 201 147 q 326 90 264 90 m 354 765 q 199 813 251 765 q 146 946 146 861 l 271 946 q 291 872 271 894 q 354 849 311 849 q 417 872 397 849 q 438 946 438 894 l 563 946 q 510 813 563 861 q 354 765 457 765 z "},"â":{"ha":708,"x_min":63,"x_max":611,"o":"m 292 -14 q 123 44 183 -14 q 63 201 63 101 q 134 355 63 300 q 361 410 206 410 l 472 410 l 472 444 q 434 569 472 526 q 326 611 396 611 q 218 579 276 611 q 174 549 189 563 l 160 549 l 111 632 q 174 669 139 653 q 340 708 249 708 q 481 674 419 708 q 576 580 542 640 q 611 444 611 519 l 611 0 l 514 0 l 500 83 l 493 83 q 444 35 474 56 q 292 -14 383 -14 m 326 90 q 431 132 378 90 q 472 174 454 151 l 472 313 l 361 313 q 242 282 282 313 q 201 201 201 251 q 233 119 201 147 q 326 90 264 90 m 160 778 l 306 958 l 403 958 l 549 778 l 458 778 l 354 868 l 250 778 l 160 778 z "},"ä":{"ha":708,"x_min":63,"x_max":611,"o":"m 292 -14 q 123 44 183 -14 q 63 201 63 101 q 134 355 63 300 q 361 410 206 410 l 472 410 l 472 444 q 434 569 472 526 q 326 611 396 611 q 218 579 276 611 q 174 549 189 563 l 160 549 l 111 632 q 174 669 139 653 q 340 708 249 708 q 481 674 419 708 q 576 580 542 640 q 611 444 611 519 l 611 0 l 514 0 l 500 83 l 493 83 q 444 35 474 56 q 292 -14 383 -14 m 326 90 q 431 132 378 90 q 472 174 454 151 l 472 313 l 361 313 q 242 282 282 313 q 201 201 201 251 q 233 119 201 147 q 326 90 264 90 m 229 785 q 174 806 196 785 q 153 861 153 828 q 174 916 153 894 q 229 938 196 938 q 284 916 263 938 q 306 861 306 894 q 284 806 306 828 q 229 785 263 785 m 472 785 q 417 806 439 785 q 396 861 396 828 q 417 916 396 894 q 472 938 439 938 q 527 916 506 938 q 549 861 549 894 q 527 806 549 828 q 472 785 506 785 z "},"à":{"ha":708,"x_min":63,"x_max":611,"o":"m 292 -14 q 123 44 183 -14 q 63 201 63 101 q 134 355 63 300 q 361 410 206 410 l 472 410 l 472 444 q 434 569 472 526 q 326 611 396 611 q 218 579 276 611 q 174 549 189 563 l 160 549 l 111 632 q 174 669 139 653 q 340 708 249 708 q 481 674 419 708 q 576 580 542 640 q 611 444 611 519 l 611 0 l 514 0 l 500 83 l 493 83 q 444 35 474 56 q 292 -14 383 -14 m 326 90 q 431 132 378 90 q 472 174 454 151 l 472 313 l 361 313 q 242 282 282 313 q 201 201 201 251 q 233 119 201 147 q 326 90 264 90 m 315 764 l 190 972 l 343 972 l 406 764 l 315 764 z "},"ā":{"ha":708,"x_min":63,"x_max":611,"o":"m 292 -14 q 123 44 183 -14 q 63 201 63 101 q 134 355 63 300 q 361 410 206 410 l 472 410 l 472 444 q 434 569 472 526 q 326 611 396 611 q 218 579 276 611 q 174 549 189 563 l 160 549 l 111 632 q 174 669 139 653 q 340 708 249 708 q 481 674 419 708 q 576 580 542 640 q 611 444 611 519 l 611 0 l 514 0 l 500 83 l 493 83 q 444 35 474 56 q 292 -14 383 -14 m 326 90 q 431 132 378 90 q 472 174 454 151 l 472 313 l 361 313 q 242 282 282 313 q 201 201 201 251 q 233 119 201 147 q 326 90 264 90 m 181 819 l 181 917 l 556 917 l 556 819 l 181 819 z "},"ą":{"ha":701,"x_min":63,"x_max":688,"o":"m 688 -108 l 688 -181 q 658 -199 672 -193 q 576 -215 622 -215 q 483 -187 515 -215 q 451 -111 451 -160 q 486 -32 451 -72 q 521 0 500 -17 l 514 0 l 500 83 l 493 83 q 444 35 474 56 q 292 -14 383 -14 q 123 44 183 -14 q 63 201 63 101 q 134 355 63 300 q 361 410 206 410 l 472 410 l 472 444 q 434 569 472 526 q 326 611 396 611 q 218 579 276 611 q 174 549 189 563 l 160 549 l 111 632 q 174 669 139 653 q 340 708 249 708 q 481 674 419 708 q 576 580 542 640 q 611 444 611 519 l 611 0 l 618 0 q 583 -26 600 -11 q 549 -90 549 -58 q 563 -125 549 -111 q 597 -139 576 -139 q 633 -132 615 -139 q 661 -118 650 -125 q 675 -108 672 -111 l 688 -108 m 472 313 l 361 313 q 242 282 282 313 q 201 201 201 251 q 233 119 201 147 q 326 90 264 90 q 431 132 378 90 q 472 174 454 151 l 472 313 z "},"å":{"ha":708,"x_min":63,"x_max":611,"o":"m 292 -14 q 123 44 183 -14 q 63 201 63 101 q 134 355 63 300 q 361 410 206 410 l 472 410 l 472 444 q 434 569 472 526 q 326 611 396 611 q 218 579 276 611 q 174 549 189 563 l 160 549 l 111 632 q 174 669 139 653 q 340 708 249 708 q 481 674 419 708 q 576 580 542 640 q 611 444 611 519 l 611 0 l 514 0 l 500 83 l 493 83 q 444 35 474 56 q 292 -14 383 -14 m 326 90 q 431 132 378 90 q 472 174 454 151 l 472 313 l 361 313 q 242 282 282 313 q 201 201 201 251 q 233 119 201 147 q 326 90 264 90 m 354 778 q 253 815 292 778 q 215 910 215 851 q 253 1005 215 968 q 354 1042 292 1042 q 455 1005 417 1042 q 493 910 493 968 q 455 815 493 851 q 354 778 417 778 m 354 847 q 393 863 376 847 q 410 910 410 879 q 393 956 410 940 q 354 972 376 972 q 315 956 332 972 q 299 910 299 940 q 315 863 299 879 q 354 847 332 847 z "},"ã":{"ha":708,"x_min":63,"x_max":611,"o":"m 292 -14 q 123 44 183 -14 q 63 201 63 101 q 134 355 63 300 q 361 410 206 410 l 472 410 l 472 444 q 434 569 472 526 q 326 611 396 611 q 218 579 276 611 q 174 549 189 563 l 160 549 l 111 632 q 174 669 139 653 q 340 708 249 708 q 481 674 419 708 q 576 580 542 640 q 611 444 611 519 l 611 0 l 514 0 l 500 83 l 493 83 q 444 35 474 56 q 292 -14 383 -14 m 326 90 q 431 132 378 90 q 472 174 454 151 l 472 313 l 361 313 q 242 282 282 313 q 201 201 201 251 q 233 119 201 147 q 326 90 264 90 m 536 897 q 411 779 497 779 q 367 789 385 779 q 332 817 350 799 q 320 827 329 819 q 303 838 311 835 q 286 842 294 842 q 254 829 268 842 q 232 803 240 817 q 222 786 224 790 l 210 786 l 154 821 q 202 908 174 876 q 279 939 231 939 q 323 929 306 939 q 360 901 340 919 q 384 882 375 888 q 406 876 393 876 q 438 889 424 876 q 461 916 453 901 q 468 932 469 931 l 481 932 l 536 897 z "},"æ":{"ha":1090,"x_min":63,"x_max":1028,"o":"m 292 -14 q 123 44 183 -14 q 63 201 63 101 q 134 355 63 300 q 361 410 206 410 l 472 410 l 472 444 q 434 569 472 526 q 326 611 396 611 q 218 579 276 611 q 174 549 189 563 l 160 549 l 111 632 q 174 669 139 653 q 340 708 249 708 q 469 681 417 708 q 549 604 521 653 q 638 681 586 653 q 750 708 689 708 q 951 616 875 708 q 1028 347 1028 524 l 1028 326 l 1000 299 l 611 299 q 656 138 611 193 q 778 83 701 83 q 885 114 829 83 q 931 146 914 131 l 944 146 l 993 63 q 931 24 968 42 q 764 -14 858 -14 q 635 14 694 -14 q 538 97 576 42 q 472 42 511 69 q 292 -14 386 -14 m 889 396 q 850 558 889 504 q 750 611 811 611 q 650 558 689 611 q 611 396 611 504 l 889 396 m 326 90 q 431 132 378 90 q 472 174 454 151 l 472 313 l 361 313 q 242 282 282 313 q 201 201 201 251 q 233 119 201 147 q 326 90 264 90 z "},"b":{"ha":743,"x_min":104,"x_max":674,"o":"m 424 -14 q 271 35 332 -14 q 222 83 242 56 l 215 83 l 201 0 l 104 0 l 104 931 l 146 972 l 243 972 l 243 667 q 288 688 260 676 q 396 708 347 708 q 597 616 521 708 q 674 347 674 524 q 640 149 674 231 q 549 27 606 68 q 424 -14 492 -14 m 389 90 q 494 153 453 90 q 535 347 535 215 q 491 548 535 485 q 375 611 447 611 q 281 597 328 611 q 243 583 256 590 l 243 174 q 285 132 263 150 q 389 90 338 90 z "},"c":{"ha":632,"x_min":69,"x_max":604,"o":"m 375 -14 q 150 78 231 -14 q 69 347 69 169 q 148 617 69 525 q 361 708 226 708 q 528 669 453 708 q 590 632 564 653 l 542 549 l 528 549 q 482 579 510 563 q 375 611 424 611 q 253 549 297 611 q 208 347 208 486 q 255 145 208 207 q 389 83 301 83 q 496 114 440 83 q 542 146 525 131 l 556 146 l 604 63 q 542 24 579 42 q 375 -14 469 -14 z "},"ć":{"ha":632,"x_min":69,"x_max":604,"o":"m 375 -14 q 150 78 231 -14 q 69 347 69 169 q 148 617 69 525 q 361 708 226 708 q 528 669 453 708 q 590 632 564 653 l 542 549 l 528 549 q 482 579 510 563 q 375 611 424 611 q 253 549 297 611 q 208 347 208 486 q 255 145 208 207 q 389 83 301 83 q 496 114 440 83 q 542 146 525 131 l 556 146 l 604 63 q 542 24 579 42 q 375 -14 469 -14 m 294 764 l 357 972 l 510 972 l 385 764 l 294 764 z "},"č":{"ha":632,"x_min":69,"x_max":604,"o":"m 375 -14 q 150 78 231 -14 q 69 347 69 169 q 148 617 69 525 q 361 708 226 708 q 528 669 453 708 q 590 632 564 653 l 542 549 l 528 549 q 482 579 510 563 q 375 611 424 611 q 253 549 297 611 q 208 347 208 486 q 255 145 208 207 q 389 83 301 83 q 496 114 440 83 q 542 146 525 131 l 556 146 l 604 63 q 542 24 579 42 q 375 -14 469 -14 m 299 778 l 153 958 l 243 958 l 347 868 l 451 958 l 542 958 l 396 778 l 299 778 z "},"ç":{"ha":632,"x_min":69,"x_max":604,"o":"m 542 24 q 385 -14 471 -12 l 385 -42 q 476 -73 442 -42 q 510 -153 510 -104 q 474 -233 510 -201 q 378 -264 439 -264 q 296 -250 338 -264 q 267 -236 276 -243 l 289 -181 l 301 -181 q 311 -187 303 -182 q 334 -197 319 -192 q 364 -201 349 -201 q 404 -187 389 -201 q 419 -153 419 -174 q 403 -117 419 -131 q 357 -104 388 -104 l 301 -104 l 301 -7 q 130 103 190 14 q 69 347 69 193 q 148 617 69 525 q 361 708 226 708 q 528 669 453 708 q 590 632 564 653 l 542 549 l 528 549 q 482 579 510 563 q 375 611 424 611 q 253 549 297 611 q 208 347 208 486 q 255 145 208 207 q 389 83 301 83 q 496 114 440 83 q 542 146 525 131 l 556 146 l 604 63 q 542 24 579 42 z "},"d":{"ha":743,"x_min":69,"x_max":639,"o":"m 319 -14 q 194 27 251 -14 q 103 149 138 68 q 69 347 69 231 q 146 616 69 524 q 347 708 222 708 q 454 688 394 708 l 500 667 l 500 931 l 542 972 l 639 972 l 639 0 l 542 0 l 528 83 l 521 83 q 472 35 501 56 q 319 -14 411 -14 m 354 90 q 458 132 406 90 q 500 174 482 151 l 500 583 q 463 597 488 590 q 368 611 415 611 q 252 548 296 611 q 208 347 208 485 q 249 153 208 215 q 354 90 290 90 z "},"ð":{"ha":715,"x_min":56,"x_max":639,"o":"m 347 -14 q 135 72 215 -14 q 56 313 56 158 q 90 488 56 414 q 183 600 125 561 q 313 639 242 639 q 439 616 389 639 q 521 542 489 593 q 496 680 521 622 q 417 774 471 738 l 375 686 l 288 728 l 329 815 q 257 833 301 824 l 181 847 l 194 944 l 278 931 q 372 908 333 921 l 411 990 l 500 950 l 461 868 q 594 713 550 814 q 639 451 639 613 l 639 313 q 559 72 639 158 q 347 -14 479 -14 m 347 83 q 457 141 414 83 q 500 313 500 199 q 457 478 500 421 q 347 535 414 535 q 238 478 281 535 q 194 313 194 421 q 238 141 194 199 q 347 83 281 83 z "},"ď":{"ha":896,"x_min":69,"x_max":882,"o":"m 319 -14 q 194 27 251 -14 q 103 149 138 68 q 69 347 69 231 q 146 616 69 524 q 347 708 222 708 q 454 688 394 708 l 500 667 l 500 931 l 542 972 l 639 972 l 639 0 l 542 0 l 528 83 l 521 83 q 472 35 501 56 q 319 -14 411 -14 m 729 715 q 764 746 754 735 q 799 819 799 789 q 751 842 772 819 q 729 896 729 864 q 751 950 729 928 q 799 972 772 972 q 859 948 836 972 q 882 883 882 924 q 826 722 882 792 q 771 672 801 690 l 729 715 m 354 90 q 458 132 406 90 q 500 174 482 151 l 500 583 q 463 597 488 590 q 368 611 415 611 q 252 548 296 611 q 208 347 208 485 q 249 153 208 215 q 354 90 290 90 z "},"đ":{"ha":757,"x_min":69,"x_max":729,"o":"m 319 -14 q 194 25 251 -14 q 103 140 138 64 q 69 319 69 215 q 105 500 69 425 q 203 614 140 575 q 347 653 267 653 q 454 632 394 653 l 500 611 l 500 736 l 354 736 l 354 833 l 500 833 l 500 931 l 542 972 l 639 972 l 639 833 l 729 833 l 729 736 l 639 736 l 639 0 l 542 0 l 528 83 l 521 83 q 472 35 501 56 q 319 -14 411 -14 m 354 90 q 458 132 406 90 q 500 174 482 151 l 500 528 q 463 542 488 535 q 368 556 415 556 q 252 497 296 556 q 208 319 208 439 q 250 148 208 206 q 354 90 292 90 z "},"e":{"ha":701,"x_min":69,"x_max":639,"o":"m 375 -14 q 150 78 231 -14 q 69 347 69 169 q 147 616 69 524 q 354 708 225 708 q 561 616 483 708 q 639 347 639 524 l 639 326 l 611 299 l 208 299 q 256 138 208 192 q 389 83 303 83 q 496 114 440 83 q 542 146 525 131 l 556 146 l 604 63 q 542 24 579 42 q 375 -14 469 -14 m 500 396 q 460 558 500 506 q 354 611 421 611 q 248 558 288 611 q 208 396 208 506 l 500 396 z "},"é":{"ha":701,"x_min":69,"x_max":639,"o":"m 375 -14 q 150 78 231 -14 q 69 347 69 169 q 147 616 69 524 q 354 708 225 708 q 561 616 483 708 q 639 347 639 524 l 639 326 l 611 299 l 208 299 q 256 138 208 192 q 389 83 303 83 q 496 114 440 83 q 542 146 525 131 l 556 146 l 604 63 q 542 24 579 42 q 375 -14 469 -14 m 500 396 q 460 558 500 506 q 354 611 421 611 q 248 558 288 611 q 208 396 208 506 l 500 396 m 299 764 l 361 972 l 514 972 l 389 764 l 299 764 z "},"ě":{"ha":701,"x_min":69,"x_max":639,"o":"m 375 -14 q 150 78 231 -14 q 69 347 69 169 q 147 616 69 524 q 354 708 225 708 q 561 616 483 708 q 639 347 639 524 l 639 326 l 611 299 l 208 299 q 256 138 208 192 q 389 83 303 83 q 496 114 440 83 q 542 146 525 131 l 556 146 l 604 63 q 542 24 579 42 q 375 -14 469 -14 m 500 396 q 460 558 500 506 q 354 611 421 611 q 248 558 288 611 q 208 396 208 506 l 500 396 m 301 778 l 156 958 l 246 958 l 350 868 l 454 958 l 544 958 l 399 778 l 301 778 z "},"ê":{"ha":701,"x_min":69,"x_max":639,"o":"m 375 -14 q 150 78 231 -14 q 69 347 69 169 q 147 616 69 524 q 354 708 225 708 q 561 616 483 708 q 639 347 639 524 l 639 326 l 611 299 l 208 299 q 256 138 208 192 q 389 83 303 83 q 496 114 440 83 q 542 146 525 131 l 556 146 l 604 63 q 542 24 579 42 q 375 -14 469 -14 m 500 396 q 460 558 500 506 q 354 611 421 611 q 248 558 288 611 q 208 396 208 506 l 500 396 m 156 778 l 301 958 l 399 958 l 544 778 l 454 778 l 350 868 l 246 778 l 156 778 z "},"ë":{"ha":701,"x_min":69,"x_max":639,"o":"m 375 -14 q 150 78 231 -14 q 69 347 69 169 q 147 616 69 524 q 354 708 225 708 q 561 616 483 708 q 639 347 639 524 l 639 326 l 611 299 l 208 299 q 256 138 208 192 q 389 83 303 83 q 496 114 440 83 q 542 146 525 131 l 556 146 l 604 63 q 542 24 579 42 q 375 -14 469 -14 m 500 396 q 460 558 500 506 q 354 611 421 611 q 248 558 288 611 q 208 396 208 506 l 500 396 m 225 785 q 170 806 192 785 q 149 861 149 828 q 170 916 149 894 q 225 938 192 938 q 280 916 258 938 q 301 861 301 894 q 280 806 301 828 q 225 785 258 785 m 468 785 q 413 806 435 785 q 392 861 392 828 q 413 916 392 894 q 468 938 435 938 q 523 916 501 938 q 544 861 544 894 q 523 806 544 828 q 468 785 501 785 z "},"ė":{"ha":701,"x_min":69,"x_max":639,"o":"m 375 -14 q 150 78 231 -14 q 69 347 69 169 q 147 616 69 524 q 354 708 225 708 q 561 616 483 708 q 639 347 639 524 l 639 326 l 611 299 l 208 299 q 256 138 208 192 q 389 83 303 83 q 496 114 440 83 q 542 146 525 131 l 556 146 l 604 63 q 542 24 579 42 q 375 -14 469 -14 m 500 396 q 460 558 500 506 q 354 611 421 611 q 248 558 288 611 q 208 396 208 506 l 500 396 m 350 778 q 290 801 314 778 q 267 861 267 825 q 290 921 267 897 q 350 944 314 944 q 410 921 386 944 q 433 861 433 897 q 410 801 433 825 q 350 778 386 778 z "},"è":{"ha":701,"x_min":69,"x_max":639,"o":"m 375 -14 q 150 78 231 -14 q 69 347 69 169 q 147 616 69 524 q 354 708 225 708 q 561 616 483 708 q 639 347 639 524 l 639 326 l 611 299 l 208 299 q 256 138 208 192 q 389 83 303 83 q 496 114 440 83 q 542 146 525 131 l 556 146 l 604 63 q 542 24 579 42 q 375 -14 469 -14 m 500 396 q 460 558 500 506 q 354 611 421 611 q 248 558 288 611 q 208 396 208 506 l 500 396 m 313 764 l 188 972 l 340 972 l 403 764 l 313 764 z "},"ē":{"ha":701,"x_min":69,"x_max":639,"o":"m 375 -14 q 150 78 231 -14 q 69 347 69 169 q 147 616 69 524 q 354 708 225 708 q 561 616 483 708 q 639 347 639 524 l 639 326 l 611 299 l 208 299 q 256 138 208 192 q 389 83 303 83 q 496 114 440 83 q 542 146 525 131 l 556 146 l 604 63 q 542 24 579 42 q 375 -14 469 -14 m 500 396 q 460 558 500 506 q 354 611 421 611 q 248 558 288 611 q 208 396 208 506 l 500 396 m 176 819 l 176 917 l 551 917 l 551 819 l 176 819 z "},"ę":{"ha":701,"x_min":69,"x_max":639,"o":"m 354 708 q 561 616 483 708 q 639 347 639 524 l 639 326 l 611 299 l 208 299 q 256 138 208 192 q 389 83 303 83 q 496 114 440 83 q 542 146 525 131 l 556 146 l 604 63 q 542 24 579 42 q 413 -12 481 -7 q 396 -26 406 -17 q 361 -90 361 -58 q 375 -125 361 -111 q 410 -139 389 -139 q 445 -132 428 -139 q 474 -118 463 -125 q 488 -108 485 -111 l 500 -108 l 500 -181 q 471 -199 485 -193 q 389 -215 435 -215 q 296 -187 328 -215 q 264 -111 264 -160 q 299 -32 264 -72 q 321 -10 321 -10 q 135 97 201 7 q 69 347 69 188 q 147 616 69 524 q 354 708 225 708 m 500 396 q 460 558 500 506 q 354 611 421 611 q 248 558 288 611 q 208 396 208 506 l 500 396 z "},"f":{"ha":472,"x_min":28,"x_max":549,"o":"m 118 597 l 28 597 l 28 694 l 118 694 l 118 764 q 181 925 118 864 q 347 986 243 986 q 492 947 422 986 q 549 910 525 929 l 500 826 l 486 826 q 447 857 468 842 q 361 889 397 889 q 285 857 313 889 q 257 764 257 825 l 257 694 l 444 694 l 444 597 l 257 597 l 257 0 l 118 0 l 118 597 z "},"g":{"ha":743,"x_min":69,"x_max":639,"o":"m 340 -292 q 174 -254 246 -292 q 111 -215 136 -236 l 160 -132 l 174 -132 q 218 -164 188 -146 q 326 -194 274 -194 q 458 -151 415 -194 q 500 -14 500 -108 l 500 28 q 454 7 479 15 q 347 -14 403 -14 q 146 78 222 -14 q 69 347 69 171 q 103 545 69 464 q 194 667 138 626 q 319 708 251 708 q 472 660 404 708 q 521 611 506 633 l 528 611 l 542 694 l 639 694 l 639 -14 q 559 -216 639 -140 q 340 -292 479 -292 m 368 83 q 463 97 415 83 q 500 111 488 104 l 500 521 q 458 563 481 544 q 354 604 406 604 q 249 542 290 604 q 208 347 208 479 q 252 147 208 210 q 368 83 296 83 z "},"ğ":{"ha":743,"x_min":69,"x_max":639,"o":"m 340 -292 q 174 -254 246 -292 q 111 -215 136 -236 l 160 -132 l 174 -132 q 218 -164 188 -146 q 326 -194 274 -194 q 458 -151 415 -194 q 500 -14 500 -108 l 500 28 q 454 7 479 15 q 347 -14 403 -14 q 146 78 222 -14 q 69 347 69 171 q 103 545 69 464 q 194 667 138 626 q 319 708 251 708 q 472 660 404 708 q 521 611 506 633 l 528 611 l 542 694 l 639 694 l 639 -14 q 559 -216 639 -140 q 340 -292 479 -292 m 368 83 q 463 97 415 83 q 500 111 488 104 l 500 521 q 458 563 481 544 q 354 604 406 604 q 249 542 290 604 q 208 347 208 479 q 252 147 208 210 q 368 83 296 83 m 371 778 q 215 826 268 778 q 163 958 163 874 l 288 958 q 308 884 288 907 q 371 861 328 861 q 434 884 414 861 q 454 958 454 907 l 579 958 q 526 826 579 874 q 371 778 474 778 z "},"ģ":{"ha":743,"x_min":69,"x_max":639,"o":"m 431 1049 q 396 1018 406 1029 q 361 944 361 975 q 409 922 388 944 q 431 868 431 900 q 409 814 431 836 q 361 792 388 792 q 301 816 324 792 q 278 881 278 840 q 333 1042 278 972 q 389 1092 358 1074 l 431 1049 m 340 -292 q 174 -254 246 -292 q 111 -215 136 -236 l 160 -132 l 174 -132 q 218 -164 188 -146 q 326 -194 274 -194 q 458 -151 415 -194 q 500 -14 500 -108 l 500 28 q 454 7 479 15 q 347 -14 403 -14 q 146 78 222 -14 q 69 347 69 171 q 103 545 69 464 q 194 667 138 626 q 319 708 251 708 q 472 660 404 708 q 521 611 506 633 l 528 611 l 542 694 l 639 694 l 639 -14 q 559 -216 639 -140 q 340 -292 479 -292 m 368 83 q 463 97 415 83 q 500 111 488 104 l 500 521 q 458 563 481 544 q 354 604 406 604 q 249 542 290 604 q 208 347 208 479 q 252 147 208 210 q 368 83 296 83 z "},"h":{"ha":757,"x_min":104,"x_max":660,"o":"m 104 931 l 146 972 l 243 972 l 243 639 q 289 674 265 661 q 424 708 356 708 q 594 642 528 708 q 660 472 660 576 l 660 0 l 521 0 l 521 472 q 484 567 521 531 q 389 604 447 604 q 285 563 338 604 q 243 521 263 543 l 243 0 l 104 0 l 104 931 z "},"ħ":{"ha":778,"x_min":35,"x_max":681,"o":"m 125 722 l 35 722 l 35 819 l 125 819 l 125 931 l 167 972 l 264 972 l 264 819 l 451 819 l 451 722 l 264 722 l 264 556 q 310 590 286 578 q 444 625 376 625 q 615 559 549 625 q 681 389 681 493 l 681 0 l 542 0 l 542 389 q 505 484 542 447 q 410 521 468 521 q 306 479 358 521 q 264 438 283 461 l 264 0 l 125 0 l 125 722 z "},"i":{"ha":347,"x_min":90,"x_max":257,"o":"m 174 806 q 114 829 138 806 q 90 889 90 853 q 114 949 90 925 q 174 972 138 972 q 233 949 210 972 q 257 889 257 925 q 233 829 257 853 q 174 806 210 806 m 104 0 l 104 694 l 243 694 l 243 0 l 104 0 z "},"ı":{"ha":347,"x_min":104,"x_max":243,"o":"m 104 0 l 104 694 l 243 694 l 243 0 l 104 0 z "},"í":{"ha":357,"x_min":104,"x_max":336,"o":"m 121 764 l 183 972 l 336 972 l 211 764 l 121 764 m 104 0 l 104 694 l 243 694 l 243 0 l 104 0 z "},"î":{"ha":361,"x_min":-14,"x_max":375,"o":"m -14 778 l 132 958 l 229 958 l 375 778 l 285 778 l 181 868 l 76 778 l -14 778 m 111 0 l 111 694 l 250 694 l 250 0 l 111 0 z "},"ï":{"ha":361,"x_min":-21,"x_max":375,"o":"m 56 785 q 1 806 22 785 q -21 861 -21 828 q 1 916 -21 894 q 56 938 22 938 q 110 916 89 938 q 132 861 132 894 q 110 806 132 828 q 56 785 89 785 m 299 785 q 244 806 265 785 q 222 861 222 828 q 244 916 222 894 q 299 938 265 938 q 353 916 332 938 q 375 861 375 894 q 353 806 375 828 q 299 785 332 785 m 111 0 l 111 694 l 250 694 l 250 0 l 111 0 z "},"ì":{"ha":358,"x_min":21,"x_max":254,"o":"m 146 764 l 21 972 l 174 972 l 236 764 l 146 764 m 115 0 l 115 694 l 254 694 l 254 0 l 115 0 z "},"ĳ":{"ha":701,"x_min":90,"x_max":611,"o":"m 174 806 q 114 829 138 806 q 90 889 90 853 q 114 949 90 925 q 174 972 138 972 q 233 949 210 972 q 257 889 257 925 q 233 829 257 853 q 174 806 210 806 m 528 806 q 468 829 492 806 q 444 889 444 853 q 468 949 444 925 q 528 972 492 972 q 588 949 564 972 q 611 889 611 925 q 588 829 611 853 q 528 806 564 806 m 368 -278 q 267 -257 311 -278 q 229 -236 244 -249 l 264 -146 l 278 -146 q 300 -164 292 -160 q 354 -181 326 -181 q 431 -149 403 -181 q 458 -56 458 -117 l 458 597 l 243 597 l 243 0 l 104 0 l 104 694 l 597 694 l 597 -56 q 535 -217 597 -156 q 368 -278 472 -278 z "},"ī":{"ha":347,"x_min":-14,"x_max":361,"o":"m -14 806 l -14 903 l 361 903 l 361 806 l -14 806 m 104 0 l 104 694 l 243 694 l 243 0 l 104 0 z "},"į":{"ha":340,"x_min":76,"x_max":313,"o":"m 174 806 q 114 829 138 806 q 90 889 90 853 q 114 949 90 925 q 174 972 138 972 q 233 949 210 972 q 257 889 257 925 q 233 829 257 853 q 174 806 210 806 m 104 0 l 104 694 l 243 694 l 243 0 l 104 0 m 201 -215 q 108 -187 140 -215 q 76 -111 76 -160 q 111 -32 76 -72 q 146 0 125 -17 l 243 0 q 208 -26 224 -11 q 174 -90 174 -58 q 188 -125 174 -111 q 222 -139 201 -139 q 258 -132 240 -139 q 286 -118 275 -125 q 300 -108 297 -111 l 313 -108 l 313 -181 q 283 -199 297 -193 q 201 -215 247 -215 z "},"ĩ":{"ha":333,"x_min":-32,"x_max":350,"o":"m 104 0 l 104 694 l 243 694 l 243 0 l 104 0 m 350 924 q 225 806 311 806 q 181 815 199 806 q 146 843 164 825 q 134 853 143 846 q 117 865 125 861 q 100 868 108 868 q 68 856 82 868 q 46 830 54 843 q 36 813 38 817 l 24 813 l -32 847 q 16 934 -12 903 q 93 965 44 965 q 137 956 119 965 q 174 928 154 946 q 198 908 189 914 q 219 903 207 903 q 252 915 238 903 q 275 942 267 928 q 282 958 283 957 l 294 958 l 350 924 z "},"j":{"ha":347,"x_min":-125,"x_max":257,"o":"m 174 806 q 114 829 138 806 q 90 889 90 853 q 114 949 90 925 q 174 972 138 972 q 233 949 210 972 q 257 889 257 925 q 233 829 257 853 q 174 806 210 806 m 14 -278 q -87 -257 -43 -278 q -125 -236 -111 -249 l -90 -146 l -76 -146 q -54 -164 -62 -160 q 0 -181 -28 -181 q 76 -149 49 -181 q 104 -56 104 -117 l 104 694 l 243 694 l 243 -56 q 181 -217 243 -156 q 14 -278 118 -278 z "},"ĵ":{"ha":372,"x_min":-97,"x_max":386,"o":"m -3 764 l 143 944 l 240 944 l 386 764 l 296 764 l 192 854 l 88 764 l -3 764 m 42 -278 q -60 -257 -15 -278 q -97 -236 -83 -249 l -62 -146 l -49 -146 q -26 -164 -35 -160 q 28 -181 0 -181 q 104 -149 76 -181 q 132 -56 132 -117 l 132 694 l 271 694 l 271 -56 q 208 -217 271 -156 q 42 -278 146 -278 z "},"k":{"ha":667,"x_min":104,"x_max":653,"o":"m 104 0 l 104 931 l 146 972 l 243 972 l 243 375 l 479 694 l 639 694 l 389 361 l 653 0 l 493 0 l 243 347 l 243 0 l 104 0 z "},"ķ":{"ha":667,"x_min":104,"x_max":653,"o":"m 104 0 l 104 931 l 146 972 l 243 972 l 243 375 l 479 694 l 639 694 l 389 361 l 653 0 l 493 0 l 243 347 l 243 0 l 104 0 m 274 -271 q 308 -240 299 -251 q 343 -167 343 -197 q 295 -144 317 -167 q 274 -90 274 -122 q 295 -36 274 -58 q 343 -14 317 -14 q 403 -38 381 -14 q 426 -103 426 -62 q 371 -264 426 -194 q 315 -314 346 -296 l 274 -271 z "},"ĸ":{"ha":667,"x_min":104,"x_max":653,"o":"m 104 0 l 104 653 l 146 694 l 243 694 l 243 375 l 479 694 l 639 694 l 389 361 l 653 0 l 493 0 l 243 347 l 243 0 l 104 0 z "},"l":{"ha":347,"x_min":104,"x_max":243,"o":"m 104 0 l 104 931 l 146 972 l 243 972 l 243 0 l 104 0 z "},"ĺ":{"ha":350,"x_min":104,"x_max":350,"o":"m 104 0 l 104 931 l 146 972 l 243 972 l 243 0 l 104 0 m 135 1042 l 197 1250 l 350 1250 l 225 1042 l 135 1042 z "},"ľ":{"ha":507,"x_min":104,"x_max":493,"o":"m 104 0 l 104 931 l 146 972 l 243 972 l 243 0 l 104 0 m 340 715 q 375 746 365 735 q 410 819 410 789 q 362 842 383 819 q 340 896 340 864 q 362 950 340 928 q 410 972 383 972 q 470 948 447 972 q 493 883 493 924 q 438 722 493 792 q 382 672 413 690 l 340 715 z "},"ļ":{"ha":347,"x_min":97,"x_max":250,"o":"m 104 0 l 104 931 l 146 972 l 243 972 l 243 0 l 104 0 m 97 -325 q 132 -294 122 -306 q 167 -221 167 -251 q 119 -199 140 -221 q 97 -144 97 -176 q 119 -90 97 -112 q 167 -68 140 -68 q 227 -92 204 -68 q 250 -157 250 -117 q 194 -318 250 -249 q 139 -368 169 -350 l 97 -325 z "},"ŀ":{"ha":500,"x_min":104,"x_max":486,"o":"m 104 0 l 104 931 l 146 972 l 243 972 l 243 0 l 104 0 m 403 403 q 343 426 367 403 q 319 486 319 450 q 343 546 319 522 q 403 569 367 569 q 463 546 439 569 q 486 486 486 522 q 463 426 486 450 q 403 403 439 403 z "},"ł":{"ha":403,"x_min":35,"x_max":368,"o":"m 118 0 l 118 374 l 35 306 l 35 458 l 118 526 l 118 931 l 160 972 l 257 972 l 257 638 l 368 736 l 368 583 l 257 485 l 257 0 l 118 0 z "},"m":{"ha":1118,"x_min":104,"x_max":1021,"o":"m 104 694 l 201 694 l 215 611 l 222 611 q 272 660 242 633 q 410 708 338 708 q 550 660 490 708 q 590 611 578 635 q 647 660 610 632 q 799 708 725 708 q 912 678 861 708 q 992 594 963 649 q 1021 472 1021 540 l 1021 0 l 882 0 l 882 472 q 847 567 882 529 q 764 604 813 604 q 672 569 721 604 q 632 535 657 560 l 632 0 l 493 0 l 493 472 q 458 567 493 529 q 375 604 424 604 q 283 563 331 604 q 243 521 265 547 l 243 0 l 104 0 l 104 694 z "},"n":{"ha":757,"x_min":104,"x_max":660,"o":"m 104 694 l 201 694 l 215 611 l 222 611 q 271 660 238 633 q 424 708 339 708 q 594 642 528 708 q 660 472 660 576 l 660 0 l 521 0 l 521 472 q 484 567 521 531 q 389 604 447 604 q 285 563 338 604 q 243 521 263 543 l 243 0 l 104 0 l 104 694 z "},"ń":{"ha":757,"x_min":104,"x_max":660,"o":"m 104 694 l 201 694 l 215 611 l 222 611 q 271 660 238 633 q 424 708 339 708 q 594 642 528 708 q 660 472 660 576 l 660 0 l 521 0 l 521 472 q 484 567 521 531 q 389 604 447 604 q 285 563 338 604 q 243 521 263 543 l 243 0 l 104 0 l 104 694 m 326 764 l 389 972 l 542 972 l 417 764 l 326 764 z "},"ň":{"ha":757,"x_min":104,"x_max":660,"o":"m 104 694 l 201 694 l 215 611 l 222 611 q 271 660 238 633 q 424 708 339 708 q 594 642 528 708 q 660 472 660 576 l 660 0 l 521 0 l 521 472 q 484 567 521 531 q 389 604 447 604 q 285 563 338 604 q 243 521 263 543 l 243 0 l 104 0 l 104 694 m 329 778 l 183 958 l 274 958 l 378 868 l 482 958 l 572 958 l 426 778 l 329 778 z "},"ņ":{"ha":757,"x_min":104,"x_max":660,"o":"m 104 694 l 201 694 l 215 611 l 222 611 q 271 660 238 633 q 424 708 339 708 q 594 642 528 708 q 660 472 660 576 l 660 0 l 521 0 l 521 472 q 484 567 521 531 q 389 604 447 604 q 285 563 338 604 q 243 521 263 543 l 243 0 l 104 0 l 104 694 m 308 -271 q 343 -240 333 -251 q 378 -167 378 -197 q 330 -144 351 -167 q 308 -90 308 -122 q 330 -36 308 -58 q 378 -14 351 -14 q 438 -38 415 -14 q 461 -103 461 -62 q 406 -264 461 -194 q 350 -314 381 -296 l 308 -271 z "},"ñ":{"ha":757,"x_min":104,"x_max":660,"o":"m 104 694 l 201 694 l 215 611 l 222 611 q 271 660 238 633 q 424 708 339 708 q 594 642 528 708 q 660 472 660 576 l 660 0 l 521 0 l 521 472 q 484 567 521 531 q 389 604 447 604 q 285 563 338 604 q 243 521 263 543 l 243 0 l 104 0 l 104 694 m 574 911 q 449 793 535 793 q 405 803 422 793 q 369 831 388 813 q 358 841 367 833 q 340 852 349 849 q 324 856 332 856 q 292 843 306 856 q 269 817 278 831 q 260 800 261 804 l 247 800 l 192 835 q 240 922 211 890 q 317 953 268 953 q 360 943 343 953 q 397 915 378 933 q 422 896 413 901 q 443 890 431 890 q 476 903 461 890 q 499 930 490 915 q 506 946 507 944 l 518 946 l 574 911 z "},"o":{"ha":736,"x_min":69,"x_max":667,"o":"m 368 -14 q 149 78 228 -14 q 69 347 69 169 q 149 617 69 525 q 368 708 228 708 q 587 617 507 708 q 667 347 667 525 q 587 78 667 169 q 368 -14 507 -14 m 368 83 q 484 147 440 83 q 528 347 528 210 q 484 548 528 485 q 368 611 440 611 q 252 548 296 611 q 208 347 208 485 q 252 147 208 210 q 368 83 296 83 z "},"ó":{"ha":736,"x_min":69,"x_max":667,"o":"m 368 -14 q 149 78 228 -14 q 69 347 69 169 q 149 617 69 525 q 368 708 228 708 q 587 617 507 708 q 667 347 667 525 q 587 78 667 169 q 368 -14 507 -14 m 368 83 q 484 147 440 83 q 528 347 528 210 q 484 548 528 485 q 368 611 440 611 q 252 548 296 611 q 208 347 208 485 q 252 147 208 210 q 368 83 296 83 m 315 764 l 378 972 l 531 972 l 406 764 l 315 764 z "},"ô":{"ha":736,"x_min":69,"x_max":667,"o":"m 368 -14 q 149 78 228 -14 q 69 347 69 169 q 149 617 69 525 q 368 708 228 708 q 587 617 507 708 q 667 347 667 525 q 587 78 667 169 q 368 -14 507 -14 m 368 83 q 484 147 440 83 q 528 347 528 210 q 484 548 528 485 q 368 611 440 611 q 252 548 296 611 q 208 347 208 485 q 252 147 208 210 q 368 83 296 83 m 174 778 l 319 958 l 417 958 l 563 778 l 472 778 l 368 868 l 264 778 l 174 778 z "},"ö":{"ha":736,"x_min":69,"x_max":667,"o":"m 368 -14 q 149 78 228 -14 q 69 347 69 169 q 149 617 69 525 q 368 708 228 708 q 587 617 507 708 q 667 347 667 525 q 587 78 667 169 q 368 -14 507 -14 m 368 83 q 484 147 440 83 q 528 347 528 210 q 484 548 528 485 q 368 611 440 611 q 252 548 296 611 q 208 347 208 485 q 252 147 208 210 q 368 83 296 83 m 243 785 q 188 806 210 785 q 167 861 167 828 q 188 916 167 894 q 243 938 210 938 q 298 916 276 938 q 319 861 319 894 q 298 806 319 828 q 243 785 276 785 m 486 785 q 431 806 453 785 q 410 861 410 828 q 431 916 410 894 q 486 938 453 938 q 541 916 519 938 q 563 861 563 894 q 541 806 563 828 q 486 785 519 785 z "},"ò":{"ha":736,"x_min":69,"x_max":667,"o":"m 368 -14 q 149 78 228 -14 q 69 347 69 169 q 149 617 69 525 q 368 708 228 708 q 587 617 507 708 q 667 347 667 525 q 587 78 667 169 q 368 -14 507 -14 m 368 83 q 484 147 440 83 q 528 347 528 210 q 484 548 528 485 q 368 611 440 611 q 252 548 296 611 q 208 347 208 485 q 252 147 208 210 q 368 83 296 83 m 329 764 l 204 972 l 357 972 l 419 764 l 329 764 z "},"ő":{"ha":736,"x_min":69,"x_max":667,"o":"m 368 -14 q 149 78 228 -14 q 69 347 69 169 q 149 617 69 525 q 368 708 228 708 q 587 617 507 708 q 667 347 667 525 q 587 78 667 169 q 368 -14 507 -14 m 368 83 q 484 147 440 83 q 528 347 528 210 q 484 548 528 485 q 368 611 440 611 q 252 548 296 611 q 208 347 208 485 q 252 147 208 210 q 368 83 296 83 m 218 764 l 281 972 l 413 972 l 294 764 l 218 764 m 406 764 l 468 972 l 600 972 l 482 764 l 406 764 z "},"ō":{"ha":736,"x_min":69,"x_max":667,"o":"m 368 -14 q 149 78 228 -14 q 69 347 69 169 q 149 617 69 525 q 368 708 228 708 q 587 617 507 708 q 667 347 667 525 q 587 78 667 169 q 368 -14 507 -14 m 368 83 q 484 147 440 83 q 528 347 528 210 q 484 548 528 485 q 368 611 440 611 q 252 548 296 611 q 208 347 208 485 q 252 147 208 210 q 368 83 296 83 m 181 819 l 181 917 l 556 917 l 556 819 l 181 819 z "},"ø":{"ha":736,"x_min":69,"x_max":667,"o":"m 368 -14 q 211 25 279 -14 l 194 0 l 83 0 l 140 88 q 69 347 69 179 q 149 617 69 525 q 368 708 228 708 q 525 669 461 708 l 542 694 l 653 694 l 594 607 q 667 347 667 513 q 587 78 667 169 q 368 -14 507 -14 m 463 575 q 368 611 424 611 q 252 548 296 611 q 208 347 208 485 q 224 213 208 271 l 463 575 m 368 83 q 484 147 440 83 q 528 347 528 210 q 513 482 528 424 l 272 119 q 368 83 308 83 z "},"õ":{"ha":736,"x_min":69,"x_max":667,"o":"m 368 -14 q 149 78 228 -14 q 69 347 69 169 q 149 617 69 525 q 368 708 228 708 q 587 617 507 708 q 667 347 667 525 q 587 78 667 169 q 368 -14 507 -14 m 368 83 q 484 147 440 83 q 528 347 528 210 q 484 548 528 485 q 368 611 440 611 q 252 548 296 611 q 208 347 208 485 q 252 147 208 210 q 368 83 296 83 m 550 897 q 425 779 511 779 q 381 789 399 779 q 346 817 364 799 q 334 827 343 819 q 317 838 325 835 q 300 842 308 842 q 268 829 282 842 q 246 803 254 817 q 236 786 238 790 l 224 786 l 168 821 q 216 908 188 876 q 293 939 244 939 q 337 929 319 939 q 374 901 354 919 q 398 882 389 888 q 419 876 407 876 q 452 889 438 876 q 475 916 467 901 q 482 932 483 931 l 494 932 l 550 897 z "},"œ":{"ha":1139,"x_min":69,"x_max":1076,"o":"m 361 -14 q 148 78 226 -14 q 69 347 69 169 q 148 617 69 525 q 361 708 226 708 q 583 597 497 708 q 799 708 669 708 q 1000 616 924 708 q 1076 347 1076 524 l 1076 326 l 1049 299 l 660 299 q 705 138 660 193 q 826 83 750 83 q 933 114 878 83 q 979 146 963 131 l 993 146 l 1042 63 q 979 24 1017 42 q 813 -14 907 -14 q 683 14 743 -14 q 585 97 624 42 q 494 13 547 40 q 361 -14 440 -14 m 361 83 q 469 143 428 83 q 514 332 511 203 l 514 361 q 469 551 511 492 q 361 611 428 611 q 250 548 292 611 q 208 347 208 485 q 250 147 208 210 q 361 83 292 83 m 938 396 q 899 558 938 504 q 799 611 860 611 q 699 558 738 611 q 660 396 660 504 l 938 396 z "},"p":{"ha":743,"x_min":104,"x_max":674,"o":"m 104 694 l 201 694 l 215 611 l 222 611 q 271 660 238 633 q 424 708 339 708 q 549 667 492 708 q 640 545 606 626 q 674 347 674 464 q 597 78 674 171 q 396 -14 521 -14 q 288 7 340 -14 q 243 28 261 15 l 243 -236 l 201 -278 l 104 -278 l 104 694 m 375 83 q 491 147 447 83 q 535 347 535 210 q 494 542 535 479 q 389 604 453 604 q 285 563 338 604 q 243 521 263 543 l 243 111 q 281 97 257 104 q 375 83 328 83 z "},"þ":{"ha":750,"x_min":111,"x_max":681,"o":"m 111 931 l 153 972 l 250 972 l 250 667 q 294 688 267 676 q 403 708 354 708 q 604 616 528 708 q 681 347 681 524 q 604 78 681 171 q 403 -14 528 -14 q 294 7 347 -14 q 250 28 268 15 l 250 -278 l 111 -278 l 111 931 m 382 83 q 498 147 454 83 q 542 347 542 210 q 498 548 542 485 q 382 611 454 611 q 288 597 335 611 q 250 583 263 590 l 250 111 q 288 97 264 104 q 382 83 335 83 z "},"q":{"ha":743,"x_min":69,"x_max":639,"o":"m 500 -236 l 500 28 q 454 7 479 15 q 347 -14 403 -14 q 146 78 222 -14 q 69 347 69 171 q 103 545 69 464 q 194 667 138 626 q 319 708 251 708 q 472 660 404 708 q 521 611 506 633 l 528 611 l 542 694 l 639 694 l 639 -278 l 542 -278 l 500 -236 m 368 83 q 463 97 415 83 q 500 111 488 104 l 500 521 q 458 563 481 544 q 354 604 406 604 q 249 542 290 604 q 208 347 208 479 q 252 147 208 210 q 368 83 296 83 z "},"r":{"ha":507,"x_min":104,"x_max":507,"o":"m 104 694 l 201 694 l 215 611 l 222 611 q 269 660 236 632 q 417 708 335 708 q 481 701 453 708 l 507 694 l 486 583 l 472 583 q 443 590 463 585 q 382 597 413 597 q 283 556 336 597 q 243 514 265 540 l 243 0 l 104 0 l 104 694 z "},"ŕ":{"ha":507,"x_min":104,"x_max":507,"o":"m 104 694 l 201 694 l 215 611 l 222 611 q 269 660 236 632 q 417 708 335 708 q 481 701 453 708 l 507 694 l 486 583 l 472 583 q 443 590 463 585 q 382 597 413 597 q 283 556 336 597 q 243 514 265 540 l 243 0 l 104 0 l 104 694 m 239 764 l 301 972 l 454 972 l 329 764 l 239 764 z "},"ř":{"ha":528,"x_min":104,"x_max":514,"o":"m 104 694 l 201 694 l 215 611 l 222 611 q 269 660 236 632 q 417 708 335 708 q 481 701 453 708 l 507 694 l 486 583 l 472 583 q 443 590 463 585 q 382 597 413 597 q 283 556 336 597 q 243 514 265 540 l 243 0 l 104 0 l 104 694 m 271 778 l 125 958 l 215 958 l 319 868 l 424 958 l 514 958 l 368 778 l 271 778 z "},"ŗ":{"ha":507,"x_min":97,"x_max":507,"o":"m 104 694 l 201 694 l 215 611 l 222 611 q 269 660 236 632 q 417 708 335 708 q 481 701 453 708 l 507 694 l 486 583 l 472 583 q 443 590 463 585 q 382 597 413 597 q 283 556 336 597 q 243 514 265 540 l 243 0 l 104 0 l 104 694 m 97 -325 q 132 -294 122 -306 q 167 -221 167 -251 q 119 -199 140 -221 q 97 -144 97 -176 q 119 -90 97 -112 q 167 -68 140 -68 q 227 -92 204 -68 q 250 -157 250 -117 q 194 -318 250 -249 q 139 -368 169 -350 l 97 -325 z "},"s":{"ha":639,"x_min":49,"x_max":590,"o":"m 306 -14 q 114 24 192 -14 q 49 63 74 42 l 97 146 l 111 146 q 160 114 126 132 q 292 83 224 83 q 413 110 375 83 q 451 181 451 136 q 412 250 451 226 q 289 301 372 274 q 171 347 215 326 q 94 407 126 368 q 63 507 63 446 q 128 654 63 600 q 326 708 194 708 q 506 669 425 708 q 569 632 544 651 l 521 549 l 507 549 q 460 579 486 564 q 340 611 399 611 q 236 585 271 611 q 201 521 201 560 q 241 451 201 475 q 364 400 281 428 q 482 354 438 375 q 558 294 526 333 q 590 194 590 256 q 521 41 590 96 q 306 -14 451 -14 z "},"ś":{"ha":639,"x_min":49,"x_max":590,"o":"m 306 -14 q 114 24 192 -14 q 49 63 74 42 l 97 146 l 111 146 q 160 114 126 132 q 292 83 224 83 q 413 110 375 83 q 451 181 451 136 q 412 250 451 226 q 289 301 372 274 q 171 347 215 326 q 94 407 126 368 q 63 507 63 446 q 128 654 63 600 q 326 708 194 708 q 506 669 425 708 q 569 632 544 651 l 521 549 l 507 549 q 460 579 486 564 q 340 611 399 611 q 236 585 271 611 q 201 521 201 560 q 241 451 201 475 q 364 400 281 428 q 482 354 438 375 q 558 294 526 333 q 590 194 590 256 q 521 41 590 96 q 306 -14 451 -14 m 253 764 l 315 972 l 468 972 l 343 764 l 253 764 z "},"š":{"ha":639,"x_min":49,"x_max":590,"o":"m 306 -14 q 114 24 192 -14 q 49 63 74 42 l 97 146 l 111 146 q 160 114 126 132 q 292 83 224 83 q 413 110 375 83 q 451 181 451 136 q 412 250 451 226 q 289 301 372 274 q 171 347 215 326 q 94 407 126 368 q 63 507 63 446 q 128 654 63 600 q 326 708 194 708 q 506 669 425 708 q 569 632 544 651 l 521 549 l 507 549 q 460 579 486 564 q 340 611 399 611 q 236 585 271 611 q 201 521 201 560 q 241 451 201 475 q 364 400 281 428 q 482 354 438 375 q 558 294 526 333 q 590 194 590 256 q 521 41 590 96 q 306 -14 451 -14 m 271 778 l 125 958 l 215 958 l 319 868 l 424 958 l 514 958 l 368 778 l 271 778 z "},"ş":{"ha":639,"x_min":49,"x_max":590,"o":"m 590 194 q 530 49 590 103 q 343 -12 469 -6 l 343 -42 q 434 -73 400 -42 q 468 -153 468 -104 q 433 -233 468 -201 q 336 -264 397 -264 q 254 -250 296 -264 q 225 -236 235 -243 l 247 -181 l 260 -181 q 269 -187 261 -182 q 292 -197 278 -192 q 322 -201 307 -201 q 363 -187 347 -201 q 378 -153 378 -174 q 362 -117 378 -131 q 315 -104 346 -104 l 260 -104 l 260 -12 q 114 24 172 -4 q 49 63 74 42 l 97 146 l 111 146 q 160 114 126 132 q 292 83 224 83 q 413 110 375 83 q 451 181 451 136 q 412 250 451 226 q 289 301 372 274 q 171 347 215 326 q 94 407 126 368 q 63 507 63 446 q 128 654 63 600 q 326 708 194 708 q 506 669 425 708 q 569 632 544 651 l 521 549 l 507 549 q 460 579 486 564 q 340 611 399 611 q 236 585 271 611 q 201 521 201 560 q 241 451 201 475 q 364 400 281 428 q 482 354 438 375 q 558 294 526 333 q 590 194 590 256 z "},"ș":{"ha":639,"x_min":49,"x_max":590,"o":"m 306 -14 q 114 24 192 -14 q 49 63 74 42 l 97 146 l 111 146 q 160 114 126 132 q 292 83 224 83 q 413 110 375 83 q 451 181 451 136 q 412 250 451 226 q 289 301 372 274 q 171 347 215 326 q 94 407 126 368 q 63 507 63 446 q 128 654 63 600 q 326 708 194 708 q 506 669 425 708 q 569 632 544 651 l 521 549 l 507 549 q 460 579 486 564 q 340 611 399 611 q 236 585 271 611 q 201 521 201 560 q 241 451 201 475 q 364 400 281 428 q 482 354 438 375 q 558 294 526 333 q 590 194 590 256 q 521 41 590 96 q 306 -14 451 -14 m 257 -332 q 292 -301 282 -312 q 326 -228 326 -258 q 278 -206 300 -228 q 257 -151 257 -183 q 278 -97 257 -119 q 326 -75 300 -75 q 387 -99 364 -75 q 410 -164 410 -124 q 354 -325 410 -256 q 299 -375 329 -357 l 257 -332 z "},"ß":{"ha":861,"x_min":49,"x_max":813,"o":"m 542 -14 q 429 7 479 -14 q 389 28 406 15 l 424 118 l 438 118 q 461 100 451 104 q 528 83 488 83 q 635 123 596 83 q 674 236 674 163 q 647 322 674 286 q 564 403 619 357 q 494 467 519 440 q 449 534 468 494 q 431 625 431 574 q 435 665 431 649 q 451 708 440 682 q 472 792 472 753 q 446 861 472 833 q 382 889 419 889 q 306 857 333 889 q 278 764 278 825 l 278 0 l 139 0 l 139 583 l 49 583 l 49 681 l 139 681 l 139 764 q 201 925 139 864 q 368 986 264 986 q 548 932 485 986 q 611 792 611 878 q 604 744 611 763 q 582 700 597 725 q 563 664 569 681 q 556 625 556 647 q 583 549 556 581 q 667 474 610 517 q 743 410 714 438 q 792 343 772 383 q 813 250 813 303 q 740 58 813 129 q 542 -14 667 -14 z "},"t":{"ha":556,"x_min":28,"x_max":556,"o":"m 361 -14 q 194 47 257 -14 q 132 208 132 108 l 132 597 l 28 597 l 28 681 l 208 861 l 271 861 l 271 694 l 444 694 l 444 597 l 271 597 l 271 208 q 299 115 271 147 q 375 83 326 83 q 457 111 417 83 q 493 139 475 124 l 507 139 l 556 56 q 500 21 525 32 q 361 -14 433 -14 z "},"ť":{"ha":667,"x_min":28,"x_max":653,"o":"m 361 -14 q 194 47 257 -14 q 132 208 132 108 l 132 597 l 28 597 l 28 681 l 208 861 l 271 861 l 271 694 l 444 694 l 444 597 l 271 597 l 271 208 q 299 115 271 147 q 375 83 326 83 q 457 111 417 83 q 493 139 475 124 l 507 139 l 556 56 q 500 21 525 32 q 361 -14 433 -14 m 500 604 q 535 635 525 624 q 569 708 569 678 q 522 731 543 708 q 500 785 500 753 q 522 839 500 817 q 569 861 543 861 q 630 837 607 861 q 653 772 653 813 q 597 611 653 681 q 542 561 572 579 l 500 604 z "},"ț":{"ha":556,"x_min":28,"x_max":556,"o":"m 361 -14 q 194 47 257 -14 q 132 208 132 108 l 132 597 l 28 597 l 28 681 l 208 861 l 271 861 l 271 694 l 444 694 l 444 597 l 271 597 l 271 208 q 299 115 271 147 q 375 83 326 83 q 457 111 417 83 q 493 139 475 124 l 507 139 l 556 56 q 500 21 525 32 q 361 -14 433 -14 m 264 -339 q 299 -308 289 -319 q 333 -235 333 -265 q 285 -212 307 -235 q 264 -158 264 -190 q 285 -104 264 -126 q 333 -82 307 -82 q 394 -106 371 -82 q 417 -171 417 -131 q 361 -332 417 -262 q 306 -382 336 -364 l 264 -339 z "},"u":{"ha":764,"x_min":104,"x_max":660,"o":"m 340 -14 q 170 52 236 -14 q 104 222 104 118 l 104 694 l 243 694 l 243 222 q 280 127 243 164 q 375 90 317 90 q 479 132 426 90 q 521 174 501 150 l 521 694 l 660 694 l 660 0 l 563 0 l 549 83 l 542 83 q 493 35 522 56 q 340 -14 432 -14 z "},"ú":{"ha":764,"x_min":104,"x_max":660,"o":"m 340 -14 q 170 52 236 -14 q 104 222 104 118 l 104 694 l 243 694 l 243 222 q 280 127 243 164 q 375 90 317 90 q 479 132 426 90 q 521 174 501 150 l 521 694 l 660 694 l 660 0 l 563 0 l 549 83 l 542 83 q 493 35 522 56 q 340 -14 432 -14 m 329 751 l 392 960 l 544 960 l 419 751 l 329 751 z "},"û":{"ha":764,"x_min":104,"x_max":660,"o":"m 340 -14 q 170 52 236 -14 q 104 222 104 118 l 104 694 l 243 694 l 243 222 q 280 127 243 164 q 375 90 317 90 q 479 132 426 90 q 521 174 501 150 l 521 694 l 660 694 l 660 0 l 563 0 l 549 83 l 542 83 q 493 35 522 56 q 340 -14 432 -14 m 188 778 l 333 958 l 431 958 l 576 778 l 486 778 l 382 868 l 278 778 l 188 778 z "},"ü":{"ha":764,"x_min":104,"x_max":660,"o":"m 340 -14 q 170 52 236 -14 q 104 222 104 118 l 104 694 l 243 694 l 243 222 q 280 127 243 164 q 375 90 317 90 q 479 132 426 90 q 521 174 501 150 l 521 694 l 660 694 l 660 0 l 563 0 l 549 83 l 542 83 q 493 35 522 56 q 340 -14 432 -14 m 257 785 q 202 806 224 785 q 181 861 181 828 q 202 916 181 894 q 257 938 224 938 q 312 916 290 938 q 333 861 333 894 q 312 806 333 828 q 257 785 290 785 m 500 785 q 445 806 467 785 q 424 861 424 828 q 445 916 424 894 q 500 938 467 938 q 555 916 533 938 q 576 861 576 894 q 555 806 576 828 q 500 785 533 785 z "},"ù":{"ha":764,"x_min":104,"x_max":660,"o":"m 340 -14 q 170 52 236 -14 q 104 222 104 118 l 104 694 l 243 694 l 243 222 q 280 127 243 164 q 375 90 317 90 q 479 132 426 90 q 521 174 501 150 l 521 694 l 660 694 l 660 0 l 563 0 l 549 83 l 542 83 q 493 35 522 56 q 340 -14 432 -14 m 357 751 l 232 960 l 385 960 l 447 751 l 357 751 z "},"ű":{"ha":764,"x_min":104,"x_max":660,"o":"m 340 -14 q 170 52 236 -14 q 104 222 104 118 l 104 694 l 243 694 l 243 222 q 280 127 243 164 q 375 90 317 90 q 479 132 426 90 q 521 174 501 150 l 521 694 l 660 694 l 660 0 l 563 0 l 549 83 l 542 83 q 493 35 522 56 q 340 -14 432 -14 m 246 751 l 308 960 l 440 960 l 322 751 l 246 751 m 433 751 l 496 960 l 628 960 l 510 751 l 433 751 z "},"ū":{"ha":764,"x_min":104,"x_max":660,"o":"m 340 -14 q 170 52 236 -14 q 104 222 104 118 l 104 694 l 243 694 l 243 222 q 280 127 243 164 q 375 90 317 90 q 479 132 426 90 q 521 174 501 150 l 521 694 l 660 694 l 660 0 l 563 0 l 549 83 l 542 83 q 493 35 522 56 q 340 -14 432 -14 m 194 807 l 194 904 l 569 904 l 569 807 l 194 807 z "},"ų":{"ha":757,"x_min":104,"x_max":736,"o":"m 736 -108 l 736 -181 q 707 -199 721 -193 q 625 -215 671 -215 q 532 -187 564 -215 q 500 -111 500 -160 q 535 -32 500 -72 q 569 0 549 -17 l 563 0 l 549 83 l 542 83 q 493 35 522 56 q 340 -14 432 -14 q 170 52 236 -14 q 104 222 104 118 l 104 694 l 243 694 l 243 222 q 280 127 243 164 q 375 90 317 90 q 479 132 426 90 q 521 174 501 150 l 521 694 l 660 694 l 660 0 l 667 0 q 632 -26 649 -10 q 597 -90 597 -58 q 611 -125 597 -111 q 646 -139 625 -139 q 681 -132 664 -139 q 710 -118 699 -125 q 724 -108 721 -111 l 736 -108 z "},"ů":{"ha":764,"x_min":104,"x_max":660,"o":"m 340 -14 q 170 52 236 -14 q 104 222 104 118 l 104 694 l 243 694 l 243 222 q 280 127 243 164 q 375 90 317 90 q 479 132 426 90 q 521 174 501 150 l 521 694 l 660 694 l 660 0 l 563 0 l 549 83 l 542 83 q 493 35 522 56 q 340 -14 432 -14 m 382 764 q 281 801 319 764 q 243 896 243 838 q 281 991 243 954 q 382 1028 319 1028 q 483 991 444 1028 q 521 896 521 954 q 483 801 521 838 q 382 764 444 764 m 382 833 q 421 849 404 833 q 438 896 438 865 q 421 942 438 926 q 382 958 404 958 q 343 942 360 958 q 326 896 326 926 q 343 849 326 865 q 382 833 360 833 z "},"v":{"ha":653,"x_min":35,"x_max":608,"o":"m 35 694 l 160 694 l 306 236 q 315 201 311 221 q 319 172 318 181 l 324 139 l 329 139 l 333 172 q 338 201 335 181 q 347 236 342 221 l 493 694 l 608 694 l 386 0 l 257 0 l 35 694 z "},"w":{"ha":986,"x_min":21,"x_max":938,"o":"m 21 694 l 153 694 l 264 271 q 269 241 267 260 q 275 210 272 222 l 278 181 l 283 181 q 286 210 283 190 q 292 238 289 222 q 299 271 294 253 l 413 694 l 551 694 l 660 271 q 665 241 663 260 q 671 210 668 222 l 675 181 l 681 181 q 683 210 681 190 q 694 271 690 253 l 806 694 l 938 694 l 757 0 l 618 0 l 500 438 q 488 499 493 460 l 482 535 l 476 535 l 471 499 q 458 438 468 475 l 340 0 l 201 0 l 21 694 z "},"x":{"ha":639,"x_min":21,"x_max":618,"o":"m 236 354 l 28 694 l 181 694 l 292 500 q 308 464 304 475 l 317 444 l 322 444 l 331 464 q 347 500 339 488 l 458 694 l 611 694 l 403 354 l 618 0 l 465 0 l 347 201 q 329 238 332 228 q 322 257 324 253 l 317 257 q 310 238 315 253 q 292 201 307 229 l 174 0 l 21 0 l 236 354 z "},"y":{"ha":660,"x_min":26,"x_max":639,"o":"m 188 -292 q 86 -271 131 -292 q 49 -250 63 -262 l 83 -160 l 97 -160 q 119 -178 111 -174 q 174 -194 146 -194 q 238 -167 210 -194 q 278 -97 267 -140 l 306 0 l 264 0 l 26 694 l 160 694 l 313 236 q 332 165 319 215 q 342 125 336 153 l 347 125 q 356 165 350 147 l 374 236 l 500 694 l 639 694 l 417 -97 q 332 -238 392 -185 q 188 -292 272 -292 z "},"ý":{"ha":660,"x_min":26,"x_max":639,"o":"m 188 -292 q 86 -271 131 -292 q 49 -250 63 -262 l 83 -160 l 97 -160 q 119 -178 111 -174 q 174 -194 146 -194 q 238 -167 210 -194 q 278 -97 267 -140 l 306 0 l 264 0 l 26 694 l 160 694 l 313 236 q 332 165 319 215 q 342 125 336 153 l 347 125 q 356 165 350 147 l 374 236 l 500 694 l 639 694 l 417 -97 q 332 -238 392 -185 q 188 -292 272 -292 m 278 751 l 340 960 l 493 960 l 368 751 l 278 751 z "},"ÿ":{"ha":660,"x_min":26,"x_max":639,"o":"m 188 -292 q 86 -271 131 -292 q 49 -250 63 -262 l 83 -160 l 97 -160 q 119 -178 111 -174 q 174 -194 146 -194 q 238 -167 210 -194 q 278 -97 267 -140 l 306 0 l 264 0 l 26 694 l 160 694 l 313 236 q 332 165 319 215 q 342 125 336 153 l 347 125 q 356 165 350 147 l 374 236 l 500 694 l 639 694 l 417 -97 q 332 -238 392 -185 q 188 -292 272 -292 m 204 785 q 149 806 171 785 q 128 861 128 828 q 149 916 128 894 q 204 938 171 938 q 259 916 238 938 q 281 861 281 894 q 259 806 281 828 q 204 785 238 785 m 447 785 q 392 806 414 785 q 371 861 371 828 q 392 916 371 894 q 447 938 414 938 q 502 916 481 938 q 524 861 524 894 q 502 806 524 828 q 447 785 481 785 z "},"z":{"ha":611,"x_min":49,"x_max":563,"o":"m 49 0 l 49 104 l 403 597 l 49 597 l 49 694 l 556 694 l 556 590 l 201 97 l 563 97 l 563 0 l 49 0 z "},"ź":{"ha":611,"x_min":49,"x_max":563,"o":"m 49 0 l 49 104 l 403 597 l 49 597 l 49 694 l 556 694 l 556 590 l 201 97 l 563 97 l 563 0 l 49 0 m 239 764 l 301 972 l 454 972 l 329 764 l 239 764 z "},"ž":{"ha":611,"x_min":49,"x_max":563,"o":"m 49 0 l 49 104 l 403 597 l 49 597 l 49 694 l 556 694 l 556 590 l 201 97 l 563 97 l 563 0 l 49 0 m 257 778 l 111 958 l 201 958 l 306 868 l 410 958 l 500 958 l 354 778 l 257 778 z "},"ż":{"ha":611,"x_min":49,"x_max":563,"o":"m 49 0 l 49 104 l 403 597 l 49 597 l 49 694 l 556 694 l 556 590 l 201 97 l 563 97 l 563 0 l 49 0 m 306 778 q 246 801 269 778 q 222 861 222 825 q 246 921 222 897 q 306 944 269 944 q 365 921 342 944 q 389 861 389 897 q 365 801 389 825 q 306 778 342 778 z "},"ª":{"ha":500,"x_min":49,"x_max":451,"o":"m 217 486 q 94 527 139 486 q 49 632 49 568 q 101 744 49 703 q 264 785 153 785 l 326 785 l 326 819 q 302 880 326 857 q 236 903 278 903 q 158 882 194 903 q 132 861 139 868 l 118 861 l 82 924 q 128 954 99 939 q 257 986 189 986 q 401 941 350 986 q 451 819 451 896 l 451 500 l 356 500 l 347 556 l 340 556 q 310 521 325 533 q 217 486 269 486 m 243 569 q 303 590 274 569 q 326 611 315 597 l 326 701 l 264 701 q 174 632 174 701 q 192 588 174 606 q 243 569 211 569 z "},"º":{"ha":542,"x_min":49,"x_max":493,"o":"m 271 486 q 109 551 169 486 q 49 736 49 617 q 109 921 49 856 q 271 986 169 986 q 433 921 372 986 q 493 736 493 856 q 433 551 493 617 q 271 486 372 486 m 271 569 q 368 736 368 569 q 271 903 368 903 q 174 736 174 903 q 271 569 174 569 z "},"А":{"ha":792,"x_min":21,"x_max":771,"o":"m 21 0 l 306 972 l 486 972 l 771 0 l 632 0 l 556 250 l 236 250 l 160 0 l 21 0 m 528 347 l 417 729 q 408 765 411 744 q 403 794 404 785 l 399 826 l 393 826 l 389 793 q 375 729 379 746 l 264 347 l 528 347 z "},"Б":{"ha":792,"x_min":125,"x_max":729,"o":"m 125 972 l 667 972 l 667 875 l 264 875 l 264 583 l 389 583 q 643 506 557 583 q 729 292 729 429 q 644 76 729 153 q 389 0 558 0 l 125 0 l 125 972 m 389 97 q 540 147 489 97 q 590 292 590 196 q 540 437 590 388 q 389 486 489 486 l 264 486 l 264 97 l 389 97 z "},"В":{"ha":799,"x_min":125,"x_max":729,"o":"m 125 972 l 389 972 q 615 905 535 972 q 694 729 694 838 q 614 554 694 618 q 535 514 576 526 q 632 469 586 501 q 729 264 729 394 q 645 70 729 140 q 389 0 561 0 l 125 0 l 125 972 m 389 556 q 512 598 468 556 q 556 715 556 640 q 512 833 556 790 q 389 875 468 875 l 264 875 l 264 556 l 389 556 m 389 97 q 590 278 590 97 q 389 458 590 458 l 264 458 l 264 97 l 389 97 z "},"Г":{"ha":681,"x_min":125,"x_max":667,"o":"m 125 0 l 125 972 l 667 972 l 667 875 l 264 875 l 264 0 l 125 0 z "},"Ѓ":{"ha":681,"x_min":125,"x_max":667,"o":"m 125 0 l 125 972 l 667 972 l 667 875 l 264 875 l 264 0 l 125 0 m 382 1042 l 444 1250 l 597 1250 l 472 1042 l 382 1042 z "},"Ґ":{"ha":681,"x_min":125,"x_max":667,"o":"m 125 0 l 125 972 l 542 972 l 556 1111 l 667 1111 l 667 875 l 264 875 l 264 0 l 125 0 z "},"Д":{"ha":861,"x_min":14,"x_max":806,"o":"m 14 97 l 83 97 q 118 157 104 122 q 160 347 153 235 l 194 972 l 715 972 l 715 97 l 806 97 l 806 -208 l 694 -208 l 674 0 l 153 0 l 132 -208 l 14 -208 l 14 97 m 576 97 l 576 875 l 326 875 l 299 347 q 257 157 292 235 q 222 97 243 122 l 576 97 z "},"Е":{"ha":708,"x_min":125,"x_max":667,"o":"m 125 0 l 125 972 l 667 972 l 667 875 l 264 875 l 264 556 l 583 556 l 583 458 l 264 458 l 264 97 l 667 97 l 667 0 l 125 0 z "},"Ѐ":{"ha":708,"x_min":125,"x_max":667,"o":"m 125 0 l 125 972 l 667 972 l 667 875 l 264 875 l 264 556 l 583 556 l 583 458 l 264 458 l 264 97 l 667 97 l 667 0 l 125 0 m 360 1042 l 235 1250 l 388 1250 l 450 1042 l 360 1042 z "},"Ё":{"ha":708,"x_min":125,"x_max":667,"o":"m 125 0 l 125 972 l 667 972 l 667 875 l 264 875 l 264 556 l 583 556 l 583 458 l 264 458 l 264 97 l 667 97 l 667 0 l 125 0 m 290 1063 q 235 1084 257 1063 q 214 1139 214 1106 q 235 1194 214 1172 q 290 1215 257 1215 q 345 1194 324 1215 q 367 1139 367 1172 q 345 1084 367 1106 q 290 1063 324 1063 m 533 1063 q 478 1084 500 1063 q 457 1139 457 1106 q 478 1194 457 1172 q 533 1215 500 1215 q 588 1194 567 1215 q 610 1139 610 1172 q 588 1084 610 1106 q 533 1063 567 1063 z "},"Ж":{"ha":1194,"x_min":35,"x_max":1160,"o":"m 118 -14 q 56 -7 81 -14 q 35 0 46 -6 l 49 90 l 56 90 l 64 86 q 83 83 78 83 q 139 146 125 83 l 188 368 q 271 482 203 439 q 333 507 300 499 q 271 528 297 514 q 194 632 207 561 l 160 826 q 104 889 150 889 q 85 885 101 889 q 76 882 76 882 l 69 882 l 56 972 l 76 979 q 139 986 101 986 q 247 949 206 986 q 299 847 288 911 l 333 653 q 375 576 342 604 q 465 549 408 549 l 528 549 l 528 972 l 667 972 l 667 549 l 729 549 q 819 576 786 549 q 861 653 853 604 l 896 847 q 949 949 908 911 q 1056 986 990 986 q 1118 979 1093 986 l 1139 972 l 1125 882 l 1118 882 q 1110 885 1118 882 q 1090 889 1093 889 q 1035 826 1044 889 l 1000 632 q 924 528 988 561 q 861 507 896 514 q 924 482 894 499 q 1007 368 988 442 l 1056 146 q 1111 83 1071 83 q 1139 90 1125 83 l 1146 90 l 1160 0 q 1076 -14 1122 -14 q 971 23 1011 -14 q 917 125 931 60 l 868 347 q 743 451 843 451 l 667 451 l 667 0 l 528 0 l 528 451 l 451 451 q 326 347 351 451 l 278 125 q 224 23 264 60 q 118 -14 183 -14 z "},"З":{"ha":722,"x_min":28,"x_max":653,"o":"m 299 -14 q 96 24 176 -14 q 28 63 51 42 l 76 146 l 90 146 q 140 114 108 131 q 285 83 207 83 q 514 271 514 83 q 463 410 514 361 q 313 458 411 458 l 188 458 l 188 556 l 313 556 q 444 601 394 556 q 493 722 493 647 q 442 844 493 799 q 299 889 392 889 q 167 857 233 889 q 118 826 135 840 l 104 826 l 56 910 q 121 947 82 929 q 313 986 201 986 q 485 953 413 986 q 594 864 557 921 q 632 736 632 807 q 544 557 632 625 q 458 514 508 529 q 556 468 511 500 q 653 257 653 390 q 564 59 653 132 q 299 -14 475 -14 z "},"И":{"ha":875,"x_min":125,"x_max":750,"o":"m 125 972 l 264 972 l 264 354 q 261 279 264 326 l 258 236 l 264 236 l 276 279 q 282 294 279 286 q 288 308 285 301 q 306 354 299 342 l 611 972 l 750 972 l 750 0 l 611 0 l 611 618 q 614 693 611 640 l 617 736 l 611 736 l 599 693 q 569 618 576 633 l 264 0 l 125 0 l 125 972 z "},"Й":{"ha":875,"x_min":125,"x_max":750,"o":"m 125 972 l 264 972 l 264 354 q 261 279 264 326 l 258 236 l 264 236 l 276 279 q 282 294 279 286 q 288 308 285 301 q 306 354 299 342 l 611 972 l 750 972 l 750 0 l 611 0 l 611 618 q 614 693 611 640 l 617 736 l 611 736 l 599 693 q 569 618 576 633 l 264 0 l 125 0 l 125 972 m 438 1042 q 282 1090 335 1042 q 229 1222 229 1138 l 354 1222 q 374 1148 354 1171 q 438 1125 394 1125 q 501 1148 481 1125 q 521 1222 521 1171 l 646 1222 q 593 1090 646 1138 q 438 1042 540 1042 z "},"Ѝ":{"ha":875,"x_min":125,"x_max":750,"o":"m 125 972 l 264 972 l 264 354 q 261 279 264 326 l 258 236 l 264 236 l 276 279 q 282 294 279 286 q 288 308 285 301 q 306 354 299 342 l 611 972 l 750 972 l 750 0 l 611 0 l 611 618 q 614 693 611 640 l 617 736 l 611 736 l 599 693 q 569 618 576 633 l 264 0 l 125 0 l 125 972 m 385 1042 l 260 1250 l 413 1250 l 475 1042 l 385 1042 z "},"К":{"ha":813,"x_min":125,"x_max":778,"o":"m 694 -14 q 589 23 629 -14 q 535 125 549 60 l 486 347 q 361 451 461 451 l 264 451 l 264 0 l 125 0 l 125 972 l 264 972 l 264 549 l 347 549 q 438 576 404 549 q 479 653 471 604 l 514 847 q 567 949 526 911 q 674 986 608 986 q 736 979 711 986 l 757 972 l 743 882 l 736 882 q 728 885 736 882 q 708 889 711 889 q 653 826 663 889 l 618 632 q 542 528 606 561 q 479 507 515 514 q 542 482 513 499 q 625 368 606 442 l 674 146 q 729 83 689 83 q 749 86 735 83 l 757 90 l 764 90 l 778 0 q 757 -7 768 -6 q 694 -14 732 -14 z "},"Ќ":{"ha":813,"x_min":125,"x_max":778,"o":"m 694 -14 q 589 23 629 -14 q 535 125 549 60 l 486 347 q 361 451 461 451 l 264 451 l 264 0 l 125 0 l 125 972 l 264 972 l 264 549 l 347 549 q 438 576 404 549 q 479 653 471 604 l 514 847 q 567 949 526 911 q 674 986 608 986 q 736 979 711 986 l 757 972 l 743 882 l 736 882 q 728 885 736 882 q 708 889 711 889 q 653 826 663 889 l 618 632 q 542 528 606 561 q 479 507 515 514 q 542 482 513 499 q 625 368 606 442 l 674 146 q 729 83 689 83 q 749 86 735 83 l 757 90 l 764 90 l 778 0 q 757 -7 768 -6 q 694 -14 732 -14 m 365 1042 l 428 1250 l 581 1250 l 456 1042 l 365 1042 z "},"Л":{"ha":847,"x_min":14,"x_max":722,"o":"m 90 -14 q 36 -7 61 -14 q 14 0 28 -6 l 21 90 l 35 90 l 43 86 q 63 83 57 83 q 113 117 92 83 q 139 222 135 150 l 181 972 l 722 972 l 722 0 l 583 0 l 583 875 l 313 875 l 278 222 q 222 45 271 104 q 90 -14 172 -14 z "},"М":{"ha":1167,"x_min":125,"x_max":1042,"o":"m 125 972 l 264 972 l 556 382 q 574 339 567 364 q 581 313 579 318 l 586 313 q 593 339 588 318 q 611 382 600 364 l 903 972 l 1042 972 l 1042 0 l 903 0 l 903 611 q 906 686 903 633 l 908 729 l 903 729 l 890 686 q 878 651 886 675 q 861 611 869 626 l 639 174 l 528 174 l 306 611 q 289 651 297 626 q 276 686 281 675 l 264 729 l 258 729 l 261 686 q 264 611 264 633 l 264 0 l 125 0 l 125 972 z "},"Н":{"ha":875,"x_min":125,"x_max":750,"o":"m 125 0 l 125 972 l 264 972 l 264 542 l 611 542 l 611 972 l 750 972 l 750 0 l 611 0 l 611 444 l 264 444 l 264 0 l 125 0 z "},"О":{"ha":833,"x_min":76,"x_max":757,"o":"m 417 -14 q 167 106 257 -14 q 76 486 76 226 q 167 866 76 746 q 417 986 257 986 q 667 866 576 986 q 757 486 757 746 q 667 106 757 226 q 417 -14 576 -14 m 417 83 q 561 178 504 83 q 618 486 618 274 q 561 794 618 699 q 417 889 504 889 q 272 794 329 889 q 215 486 215 699 q 272 178 215 274 q 417 83 329 83 z "},"П":{"ha":875,"x_min":125,"x_max":750,"o":"m 125 0 l 125 972 l 750 972 l 750 0 l 611 0 l 611 875 l 264 875 l 264 0 l 125 0 z "},"Р":{"ha":785,"x_min":125,"x_max":722,"o":"m 125 972 l 375 972 q 637 892 551 972 q 722 653 722 811 q 637 414 722 494 q 375 333 551 333 l 264 333 l 264 0 l 125 0 l 125 972 m 375 431 q 532 485 481 431 q 583 653 583 539 q 532 821 583 767 q 375 875 481 875 l 264 875 l 264 431 l 375 431 z "},"С":{"ha":715,"x_min":76,"x_max":681,"o":"m 438 -14 q 170 106 264 -14 q 76 486 76 225 q 168 866 76 746 q 424 986 260 986 q 603 947 522 986 q 667 910 642 929 l 618 826 l 604 826 q 557 857 583 842 q 438 889 496 889 q 215 486 215 889 q 277 176 215 269 q 451 83 339 83 q 571 114 513 83 q 618 146 600 131 l 632 146 l 681 63 q 617 24 657 43 q 438 -14 539 -14 z "},"Т":{"ha":667,"x_min":14,"x_max":653,"o":"m 264 0 l 264 875 l 14 875 l 14 972 l 653 972 l 653 875 l 403 875 l 403 0 l 264 0 z "},"У":{"ha":744,"x_min":14,"x_max":731,"o":"m 231 -21 q 124 0 174 -21 q 85 21 101 8 l 119 111 l 133 111 q 157 93 147 97 q 217 76 183 76 q 289 103 257 76 q 335 174 321 131 l 363 257 l 300 257 l 14 972 l 160 972 l 363 465 q 383 400 375 432 l 393 361 l 399 361 q 407 400 401 382 l 425 465 l 592 972 l 731 972 l 474 174 q 381 35 447 92 q 231 -21 315 -21 z "},"Ў":{"ha":744,"x_min":14,"x_max":731,"o":"m 231 -21 q 124 0 174 -21 q 85 21 101 8 l 119 111 l 133 111 q 157 93 147 97 q 217 76 183 76 q 289 103 257 76 q 335 174 321 131 l 363 257 l 300 257 l 14 972 l 160 972 l 363 465 q 383 400 375 432 l 393 361 l 399 361 q 407 400 401 382 l 425 465 l 592 972 l 731 972 l 474 174 q 381 35 447 92 q 231 -21 315 -21 m 372 1042 q 217 1090 269 1042 q 164 1222 164 1138 l 289 1222 q 309 1148 289 1171 q 372 1125 329 1125 q 435 1148 415 1125 q 456 1222 456 1171 l 581 1222 q 528 1090 581 1138 q 372 1042 475 1042 z "},"Ф":{"ha":1069,"x_min":63,"x_max":1007,"o":"m 465 56 q 165 175 268 67 q 63 486 63 283 q 165 797 63 689 q 465 917 268 906 l 465 1014 l 604 1014 l 604 917 q 904 797 801 906 q 1007 486 1007 689 q 904 175 1007 283 q 604 56 801 67 l 604 -42 l 465 -42 l 465 56 m 465 819 q 271 725 340 807 q 201 486 201 643 q 272 246 201 329 q 465 153 342 163 l 465 819 m 604 153 q 798 246 728 163 q 868 486 868 329 q 799 725 868 643 q 604 819 729 807 l 604 153 z "},"Х":{"ha":736,"x_min":21,"x_max":715,"o":"m 278 493 l 28 972 l 181 972 l 340 660 q 357 619 353 631 l 365 597 l 371 597 l 379 619 q 396 660 388 646 l 556 972 l 708 972 l 458 493 l 715 0 l 563 0 l 396 326 q 379 367 389 338 l 371 389 l 365 389 l 357 367 q 340 326 350 344 l 174 0 l 21 0 l 278 493 z "},"Ч":{"ha":833,"x_min":83,"x_max":708,"o":"m 569 382 q 514 371 569 382 q 375 361 453 361 q 162 436 240 361 q 83 632 83 511 l 83 972 l 222 972 l 222 632 q 272 506 222 553 q 410 458 322 458 q 524 468 472 458 q 569 479 576 482 l 569 972 l 708 972 l 708 0 l 569 0 l 569 382 z "},"Ц":{"ha":882,"x_min":125,"x_max":826,"o":"m 715 -208 l 694 0 l 125 0 l 125 972 l 264 972 l 264 97 l 597 97 l 597 972 l 736 972 l 736 97 l 826 97 l 826 -208 l 715 -208 z "},"Ш":{"ha":1278,"x_min":125,"x_max":1153,"o":"m 125 0 l 125 972 l 264 972 l 264 97 l 569 97 l 569 972 l 708 972 l 708 97 l 1014 97 l 1014 972 l 1153 972 l 1153 0 l 125 0 z "},"Щ":{"ha":1299,"x_min":125,"x_max":1243,"o":"m 1132 -208 l 1111 0 l 125 0 l 125 972 l 264 972 l 264 97 l 569 97 l 569 972 l 708 972 l 708 97 l 1014 97 l 1014 972 l 1153 972 l 1153 97 l 1243 97 l 1243 -208 l 1132 -208 z "},"Џ":{"ha":875,"x_min":125,"x_max":750,"o":"m 382 -208 l 368 0 l 125 0 l 125 972 l 264 972 l 264 97 l 611 97 l 611 972 l 750 972 l 750 0 l 507 0 l 493 -208 l 382 -208 z "},"Ь":{"ha":778,"x_min":125,"x_max":729,"o":"m 125 972 l 264 972 l 264 611 l 389 611 q 644 533 560 611 q 729 306 729 454 q 644 78 729 157 q 389 0 560 0 l 125 0 l 125 972 m 389 97 q 590 306 590 97 q 389 514 590 514 l 264 514 l 264 97 l 389 97 z "},"Ъ":{"ha":861,"x_min":14,"x_max":813,"o":"m 208 875 l 14 875 l 14 972 l 347 972 l 347 611 l 472 611 q 728 533 643 611 q 813 306 813 454 q 728 78 813 157 q 472 0 643 0 l 208 0 l 208 875 m 472 97 q 674 306 674 97 q 472 514 674 514 l 347 514 l 347 97 l 472 97 z "},"Ы":{"ha":1111,"x_min":125,"x_max":986,"o":"m 125 972 l 264 972 l 264 611 l 375 611 q 631 533 546 611 q 715 306 715 454 q 631 78 715 157 q 375 0 546 0 l 125 0 l 125 972 m 847 0 l 847 972 l 986 972 l 986 0 l 847 0 m 375 97 q 576 306 576 97 q 375 514 576 514 l 264 514 l 264 97 l 375 97 z "},"Љ":{"ha":1224,"x_min":14,"x_max":1175,"o":"m 90 -14 q 36 -7 61 -14 q 14 0 28 -6 l 21 90 l 35 90 l 43 86 q 63 83 57 83 q 113 117 92 83 q 139 222 135 150 l 181 972 l 710 972 l 710 611 l 835 611 q 1090 533 1006 611 q 1175 306 1175 454 q 1090 78 1175 157 q 835 0 1006 0 l 569 0 l 569 875 l 313 875 l 278 222 q 222 45 271 104 q 90 -14 172 -14 m 835 97 q 1036 306 1036 97 q 835 514 1036 514 l 710 514 l 710 97 l 835 97 z "},"Њ":{"ha":1250,"x_min":125,"x_max":1201,"o":"m 125 972 l 264 972 l 264 583 l 597 583 l 597 972 l 736 972 l 736 583 l 861 583 q 1115 506 1029 583 q 1201 292 1201 429 q 1116 76 1201 153 q 861 0 1031 0 l 597 0 l 597 486 l 264 486 l 264 0 l 125 0 l 125 972 m 861 97 q 1012 147 961 97 q 1063 292 1063 196 q 1012 437 1063 388 q 861 486 961 486 l 736 486 l 736 97 l 861 97 z "},"Ѕ":{"ha":701,"x_min":49,"x_max":653,"o":"m 333 -14 q 124 24 211 -14 q 49 63 78 42 l 97 146 l 111 146 q 168 114 131 132 q 319 83 243 83 q 463 128 413 83 q 514 250 514 174 q 488 333 514 299 q 422 389 461 367 q 315 443 383 411 q 183 510 233 479 q 98 594 133 542 q 63 722 63 646 q 98 858 63 799 q 199 952 133 918 q 354 986 265 986 q 557 947 471 986 q 625 910 594 932 l 576 826 l 563 826 q 513 857 544 842 q 368 889 443 889 q 249 844 297 889 q 201 736 201 799 q 228 653 201 688 q 293 597 254 619 q 400 543 332 575 q 532 476 482 507 q 617 392 582 444 q 653 264 653 340 q 569 61 653 136 q 333 -14 486 -14 z "},"Є":{"ha":715,"x_min":76,"x_max":681,"o":"m 438 -14 q 170 106 264 -14 q 76 486 76 225 q 168 866 76 746 q 424 986 260 986 q 603 947 522 986 q 667 910 642 929 l 618 826 l 604 826 q 557 857 583 842 q 438 889 496 889 q 217 542 232 889 l 542 542 l 542 444 l 215 444 q 283 167 221 251 q 451 83 344 83 q 571 114 513 83 q 618 146 600 131 l 632 146 l 681 63 q 617 24 657 43 q 438 -14 539 -14 z "},"Э":{"ha":715,"x_min":35,"x_max":639,"o":"m 278 -14 q 99 24 176 -14 q 35 63 58 43 l 83 146 l 97 146 q 144 114 115 131 q 264 83 203 83 q 433 167 371 83 q 500 444 494 251 l 174 444 l 174 542 l 499 542 q 278 889 483 889 q 158 857 219 889 q 111 826 132 842 l 97 826 l 49 910 q 113 947 74 929 q 292 986 193 986 q 547 866 456 986 q 639 486 639 746 q 545 106 639 225 q 278 -14 451 -14 z "},"І":{"ha":389,"x_min":125,"x_max":264,"o":"m 125 0 l 125 972 l 264 972 l 264 0 l 125 0 z "},"Ї":{"ha":389,"x_min":-4,"x_max":392,"o":"m 125 0 l 125 972 l 264 972 l 264 0 l 125 0 m 72 1063 q 17 1084 39 1063 q -4 1139 -4 1106 q 17 1194 -4 1172 q 72 1215 39 1215 q 127 1194 106 1215 q 149 1139 149 1172 q 127 1084 149 1106 q 72 1063 106 1063 m 315 1063 q 260 1084 282 1063 q 239 1139 239 1106 q 260 1194 239 1172 q 315 1215 282 1215 q 370 1194 349 1215 q 392 1139 392 1172 q 370 1084 392 1106 q 315 1063 349 1063 z "},"Ј":{"ha":590,"x_min":0,"x_max":472,"o":"m 188 -14 q 51 17 118 -14 q 0 49 19 32 l 42 139 l 56 139 q 92 111 74 124 q 174 83 132 83 q 294 127 254 83 q 333 264 333 171 l 333 972 l 472 972 l 472 264 q 401 56 472 126 q 188 -14 329 -14 z "},"Ћ":{"ha":903,"x_min":0,"x_max":819,"o":"m 194 875 l 0 875 l 0 972 l 583 972 l 583 875 l 333 875 l 333 604 l 389 614 q 528 625 458 625 q 741 550 663 625 q 819 354 819 475 l 819 0 l 681 0 l 681 354 q 631 481 681 433 q 493 528 581 528 q 379 517 438 528 l 333 507 l 333 0 l 194 0 l 194 875 z "},"Ю":{"ha":1125,"x_min":125,"x_max":1049,"o":"m 722 -14 q 492 96 578 -14 q 396 444 407 206 l 264 444 l 264 0 l 125 0 l 125 972 l 264 972 l 264 542 l 396 542 q 493 879 407 772 q 722 986 579 986 q 961 865 874 986 q 1049 486 1049 744 q 961 107 1049 228 q 722 -14 874 -14 m 722 83 q 813 122 771 83 q 883 251 856 161 q 910 486 910 342 q 883 721 910 631 q 813 850 856 811 q 722 889 771 889 q 631 850 674 889 q 562 721 589 811 q 535 486 535 631 q 562 251 535 342 q 631 122 589 161 q 722 83 674 83 z "},"Я":{"ha":792,"x_min":28,"x_max":667,"o":"m 111 -14 q 49 -7 74 -14 q 28 0 39 -6 l 42 90 l 49 90 l 57 86 q 76 83 71 83 q 108 99 93 83 q 132 146 124 115 l 174 292 q 239 388 194 357 q 285 410 263 404 q 184 453 232 418 q 106 547 136 489 q 76 674 76 604 q 163 895 76 818 q 424 972 249 972 l 667 972 l 667 0 l 528 0 l 528 375 l 438 375 q 359 347 392 375 q 313 271 326 319 l 271 125 q 111 -14 231 -14 m 528 472 l 528 875 l 424 875 q 215 674 215 875 q 424 472 215 472 l 528 472 z "},"Ђ":{"ha":889,"x_min":0,"x_max":819,"o":"m 604 -42 q 522 -32 561 -42 q 505 -26 514 -29 q 486 -21 496 -24 l 500 69 l 514 69 q 535 63 528 64 q 576 56 558 56 q 653 88 625 56 q 681 181 681 119 l 681 354 q 631 481 681 433 q 493 528 581 528 q 379 517 438 528 l 333 507 l 333 0 l 194 0 l 194 875 l 0 875 l 0 972 l 583 972 l 583 875 l 333 875 l 333 604 l 389 614 q 528 625 458 625 q 741 550 663 625 q 819 354 819 475 l 819 181 q 760 19 819 81 q 604 -42 700 -42 z "},"Ѣ":{"ha":881,"x_min":21,"x_max":832,"o":"m 492 611 q 747 533 663 611 q 832 306 832 454 q 747 78 832 157 q 492 0 663 0 l 228 0 l 228 736 l 21 736 l 21 833 l 228 833 l 228 1014 l 367 1014 l 367 833 l 646 833 l 646 736 l 367 736 l 367 611 l 492 611 m 492 97 q 693 306 693 97 q 492 514 693 514 l 367 514 l 367 97 l 492 97 z "},"Ѫ":{"ha":1194,"x_min":35,"x_max":1160,"o":"m 118 -14 q 35 0 69 -14 l 49 90 l 56 90 q 83 83 68 83 q 139 146 125 83 l 188 368 q 223 460 200 425 q 299 518 246 496 q 449 546 351 540 l 168 972 l 1026 972 l 746 547 q 894 522 843 542 q 968 468 946 503 q 1007 368 990 433 l 1056 146 q 1111 83 1071 83 q 1139 90 1125 83 l 1146 90 l 1160 0 q 1076 -14 1122 -14 q 971 23 1011 -14 q 917 125 931 60 l 868 347 q 743 451 843 451 l 667 451 l 667 0 l 528 0 l 528 451 l 451 451 q 326 347 351 451 l 278 125 q 224 23 264 60 q 118 -14 183 -14 m 594 521 l 600 521 l 821 875 l 374 875 l 594 521 z "},"Ѳ":{"ha":833,"x_min":76,"x_max":757,"o":"m 417 -14 q 167 106 257 -14 q 76 486 76 226 q 167 866 76 746 q 417 986 257 986 q 667 866 576 986 q 757 486 757 746 q 667 106 757 226 q 417 -14 576 -14 m 417 83 q 561 178 504 83 q 618 486 618 274 q 561 794 618 699 q 417 889 504 889 q 272 794 329 889 q 215 486 215 699 q 272 178 215 274 q 417 83 329 83 m 222 438 l 222 535 l 611 535 l 611 438 l 222 438 z "},"Ѵ":{"ha":764,"x_min":21,"x_max":799,"o":"m 21 972 l 160 972 l 361 243 q 368 210 365 229 q 374 179 371 190 l 379 146 l 385 146 l 389 179 q 403 243 399 226 l 535 750 q 581 888 558 838 q 638 962 604 938 q 722 986 671 986 q 799 972 761 986 l 792 882 l 786 882 q 757 889 772 889 q 709 860 731 889 q 667 750 688 831 l 465 0 l 292 0 l 21 972 z "},"Ғ":{"ha":681,"x_min":38,"x_max":667,"o":"m 667 875 l 264 875 l 264 535 l 426 535 l 426 438 l 264 438 l 264 0 l 125 0 l 125 438 l 38 438 l 38 535 l 125 535 l 125 972 l 667 972 l 667 875 z "},"Ҕ":{"ha":806,"x_min":125,"x_max":750,"o":"m 458 569 q 672 494 593 569 q 750 299 750 419 l 750 83 q 690 -78 750 -17 q 535 -139 631 -139 q 453 -129 483 -139 q 435 -124 444 -126 q 417 -118 426 -121 l 431 -28 l 444 -28 q 465 -35 458 -33 q 484 -39 471 -36 q 507 -42 497 -42 q 583 -10 556 -42 q 611 83 611 22 l 611 299 q 561 425 611 378 q 424 472 511 472 q 310 461 368 472 l 264 451 l 264 0 l 125 0 l 125 972 l 667 972 l 667 875 l 264 875 l 264 549 l 319 558 q 458 569 389 569 z "},"Җ":{"ha":1194,"x_min":35,"x_max":1160,"o":"m 1160 0 l 1160 -208 l 1049 -208 l 1029 -8 q 956 39 985 4 q 917 125 928 74 l 868 347 q 743 451 843 451 l 667 451 l 667 0 l 528 0 l 528 451 l 451 451 q 326 347 351 451 l 278 125 q 224 23 264 60 q 118 -14 183 -14 q 56 -7 81 -14 q 35 0 46 -6 l 49 90 l 56 90 l 64 86 q 83 83 78 83 q 139 146 125 83 l 188 368 q 271 482 203 439 q 333 507 300 499 q 271 528 297 514 q 194 632 207 561 l 160 826 q 104 889 150 889 q 85 885 101 889 q 76 882 76 882 l 69 882 l 56 972 l 76 979 q 139 986 101 986 q 247 949 206 986 q 299 847 288 911 l 333 653 q 375 576 342 604 q 465 549 408 549 l 528 549 l 528 972 l 667 972 l 667 549 l 729 549 q 819 576 786 549 q 861 653 853 604 l 896 847 q 949 949 908 911 q 1056 986 990 986 q 1118 979 1093 986 l 1139 972 l 1125 882 l 1118 882 q 1110 885 1118 882 q 1090 889 1093 889 q 1035 826 1044 889 l 1000 632 q 924 528 988 561 q 861 507 896 514 q 924 482 894 499 q 1007 368 988 442 l 1056 146 q 1111 83 1071 83 q 1139 90 1125 83 l 1146 90 l 1160 0 z "},"Ҙ":{"ha":722,"x_min":28,"x_max":653,"o":"m 653 257 q 590 84 653 153 q 403 -6 528 15 l 403 -208 l 292 -208 l 272 -14 q 96 24 171 -10 q 28 63 51 42 l 76 146 l 90 146 q 140 114 108 131 q 285 83 207 83 q 514 271 514 83 q 463 410 514 361 q 313 458 411 458 l 188 458 l 188 556 l 313 556 q 444 601 394 556 q 493 722 493 647 q 442 844 493 799 q 299 889 392 889 q 167 857 233 889 q 118 826 135 840 l 104 826 l 56 910 q 121 947 82 929 q 313 986 201 986 q 485 953 413 986 q 594 864 557 921 q 632 736 632 807 q 544 557 632 625 q 458 514 508 529 q 556 468 511 500 q 653 257 653 390 z "},"Қ":{"ha":813,"x_min":125,"x_max":778,"o":"m 778 0 l 778 -208 l 667 -208 l 647 -8 q 574 39 603 4 q 535 125 546 74 l 486 347 q 361 451 461 451 l 264 451 l 264 0 l 125 0 l 125 972 l 264 972 l 264 549 l 347 549 q 438 576 404 549 q 479 653 471 604 l 514 847 q 567 949 526 911 q 674 986 608 986 q 736 979 711 986 l 757 972 l 743 882 l 736 882 q 728 885 736 882 q 708 889 711 889 q 653 826 663 889 l 618 632 q 542 528 606 561 q 479 507 515 514 q 542 482 513 499 q 625 368 606 442 l 674 146 q 729 83 689 83 q 749 86 735 83 l 757 90 l 764 90 l 778 0 z "},"Ҝ":{"ha":854,"x_min":125,"x_max":819,"o":"m 819 0 q 799 -7 819 0 q 736 -14 779 -14 q 631 23 671 -14 q 576 125 590 60 l 528 347 q 438 447 507 432 l 438 292 l 375 292 l 375 451 l 264 451 l 264 0 l 125 0 l 125 972 l 264 972 l 264 549 l 375 549 l 375 681 l 438 681 l 438 556 q 521 653 508 576 l 556 847 q 609 949 568 911 q 715 986 650 986 q 778 979 758 986 l 799 972 l 785 882 l 778 882 q 769 885 778 882 q 750 889 753 889 q 694 826 707 889 l 660 632 q 583 528 647 561 q 521 507 557 514 q 583 482 560 497 q 667 368 647 442 l 715 146 q 771 83 731 83 q 790 86 776 83 l 799 90 l 806 90 l 819 0 z "},"Ҡ":{"ha":965,"x_min":14,"x_max":931,"o":"m 931 0 q 910 -7 921 -6 q 847 -14 885 -14 q 742 23 782 -14 q 688 125 701 60 l 639 347 q 514 451 614 451 l 417 451 l 417 0 l 278 0 l 278 875 l 14 875 l 14 972 l 417 972 l 417 549 l 500 549 q 590 576 557 549 q 632 653 624 604 l 667 847 q 720 949 679 911 q 826 986 761 986 q 889 979 864 986 l 910 972 l 896 882 l 889 882 q 881 885 889 882 q 861 889 864 889 q 806 826 815 889 l 771 632 q 694 528 758 561 q 632 507 668 514 q 694 482 665 499 q 778 368 758 442 l 826 146 q 882 83 842 83 q 901 86 888 83 l 910 90 l 917 90 l 931 0 z "},"Ң":{"ha":875,"x_min":125,"x_max":840,"o":"m 750 97 l 840 97 l 840 -208 l 729 -208 l 708 0 l 611 0 l 611 444 l 264 444 l 264 0 l 125 0 l 125 972 l 264 972 l 264 542 l 611 542 l 611 972 l 750 972 l 750 97 z "},"Ԥ":{"ha":875,"x_min":125,"x_max":840,"o":"m 750 97 l 840 97 l 840 -208 l 729 -208 l 708 0 l 611 0 l 611 875 l 264 875 l 264 0 l 125 0 l 125 972 l 750 972 l 750 97 z "},"Ҫ":{"ha":715,"x_min":76,"x_max":681,"o":"m 681 63 q 617 24 657 43 q 493 -11 558 -4 l 493 -208 l 382 -208 l 363 -8 q 76 486 76 40 q 168 866 76 746 q 424 986 260 986 q 603 947 522 986 q 667 910 642 929 l 618 826 l 604 826 q 557 857 583 842 q 438 889 496 889 q 215 486 215 889 q 277 176 215 269 q 451 83 339 83 q 571 114 513 83 q 618 146 600 131 l 632 146 l 681 63 z "},"Ү":{"ha":736,"x_min":0,"x_max":736,"o":"m 299 319 l 0 972 l 146 972 l 347 507 q 365 453 360 474 q 372 424 371 433 l 378 424 q 385 453 379 433 q 403 507 394 492 l 611 972 l 736 972 l 438 319 l 438 0 l 299 0 l 299 319 z "},"Ұ":{"ha":736,"x_min":0,"x_max":736,"o":"m 444 335 l 563 335 l 563 238 l 438 238 l 438 0 l 299 0 l 299 238 l 174 238 l 174 335 l 292 335 l 0 972 l 146 972 l 347 507 q 365 453 360 474 q 372 424 371 433 l 378 424 q 385 453 379 433 q 403 507 394 492 l 611 972 l 736 972 l 444 335 z "},"Ҷ":{"ha":833,"x_min":83,"x_max":799,"o":"m 799 97 l 799 -208 l 688 -208 l 667 0 l 569 0 l 569 382 q 514 371 569 382 q 375 361 453 361 q 162 436 240 361 q 83 632 83 511 l 83 972 l 222 972 l 222 632 q 272 506 222 553 q 410 458 322 458 q 524 468 472 458 q 569 479 576 482 l 569 972 l 708 972 l 708 97 l 799 97 z "},"Ҹ":{"ha":833,"x_min":83,"x_max":708,"o":"m 708 972 l 708 0 l 569 0 l 569 382 q 514 371 569 382 q 447 364 481 365 l 447 222 l 385 222 l 385 361 l 375 361 q 162 436 240 361 q 83 632 83 511 l 83 972 l 222 972 l 222 632 q 265 512 222 558 q 385 460 308 465 l 385 611 l 447 611 l 447 460 q 524 468 493 463 q 569 479 576 482 l 569 972 l 708 972 z "},"Һ":{"ha":833,"x_min":125,"x_max":750,"o":"m 264 590 q 319 601 264 590 q 458 611 381 611 q 672 536 593 611 q 750 340 750 461 l 750 0 l 611 0 l 611 340 q 561 467 611 419 q 424 514 511 514 q 310 504 361 514 q 264 493 257 492 l 264 0 l 125 0 l 125 972 l 264 972 l 264 590 z "},"Ӏ":{"ha":389,"x_min":125,"x_max":264,"o":"m 125 0 l 125 972 l 264 972 l 264 0 l 125 0 z "},"Ӂ":{"ha":1194,"x_min":35,"x_max":1160,"o":"m 118 -14 q 56 -7 81 -14 q 35 0 46 -6 l 49 90 l 56 90 l 64 86 q 83 83 78 83 q 139 146 125 83 l 188 368 q 271 482 203 439 q 333 507 300 499 q 271 528 297 514 q 194 632 207 561 l 160 826 q 104 889 150 889 q 85 885 101 889 q 76 882 76 882 l 69 882 l 56 972 l 76 979 q 139 986 101 986 q 247 949 206 986 q 299 847 288 911 l 333 653 q 375 576 342 604 q 465 549 408 549 l 528 549 l 528 972 l 667 972 l 667 549 l 729 549 q 819 576 786 549 q 861 653 853 604 l 896 847 q 949 949 908 911 q 1056 986 990 986 q 1118 979 1093 986 l 1139 972 l 1125 882 l 1118 882 q 1110 885 1118 882 q 1090 889 1093 889 q 1035 826 1044 889 l 1000 632 q 924 528 988 561 q 861 507 896 514 q 924 482 894 499 q 1007 368 988 442 l 1056 146 q 1111 83 1071 83 q 1139 90 1125 83 l 1146 90 l 1160 0 q 1076 -14 1122 -14 q 971 23 1011 -14 q 917 125 931 60 l 868 347 q 743 451 843 451 l 667 451 l 667 0 l 528 0 l 528 451 l 451 451 q 326 347 351 451 l 278 125 q 224 23 264 60 q 118 -14 183 -14 m 597 1042 q 442 1090 494 1042 q 389 1222 389 1138 l 514 1222 q 534 1148 514 1171 q 597 1125 554 1125 q 660 1148 640 1125 q 681 1222 681 1171 l 806 1222 q 753 1090 806 1138 q 597 1042 700 1042 z "},"Ӌ":{"ha":833,"x_min":83,"x_max":708,"o":"m 708 972 l 708 0 l 611 0 l 590 -208 l 479 -208 l 479 97 l 569 97 l 569 382 q 514 371 569 382 q 375 361 453 361 q 162 436 240 361 q 83 632 83 511 l 83 972 l 222 972 l 222 632 q 272 506 222 553 q 410 458 322 458 q 524 468 472 458 q 569 479 576 482 l 569 972 l 708 972 z "},"Ӑ":{"ha":792,"x_min":21,"x_max":771,"o":"m 21 0 l 306 972 l 486 972 l 771 0 l 632 0 l 556 250 l 236 250 l 160 0 l 21 0 m 528 347 l 417 729 q 408 765 411 744 q 403 794 404 785 l 399 826 l 393 826 l 389 793 q 375 729 379 746 l 264 347 l 528 347 m 396 1042 q 240 1090 293 1042 q 188 1222 188 1138 l 313 1222 q 333 1148 313 1171 q 396 1125 353 1125 q 459 1148 439 1125 q 479 1222 479 1171 l 604 1222 q 551 1090 604 1138 q 396 1042 499 1042 z "},"Ӓ":{"ha":792,"x_min":21,"x_max":771,"o":"m 21 0 l 306 972 l 486 972 l 771 0 l 632 0 l 556 250 l 236 250 l 160 0 l 21 0 m 528 347 l 417 729 q 408 765 411 744 q 403 794 404 785 l 399 826 l 393 826 l 389 793 q 375 729 379 746 l 264 347 l 528 347 m 274 1063 q 219 1084 240 1063 q 197 1139 197 1106 q 219 1194 197 1172 q 274 1215 240 1215 q 328 1194 307 1215 q 350 1139 350 1172 q 328 1084 350 1106 q 274 1063 307 1063 m 517 1063 q 462 1084 483 1063 q 440 1139 440 1106 q 462 1194 440 1172 q 517 1215 483 1215 q 572 1194 550 1215 q 593 1139 593 1172 q 572 1084 593 1106 q 517 1063 550 1063 z "},"Ӗ":{"ha":708,"x_min":125,"x_max":667,"o":"m 125 0 l 125 972 l 667 972 l 667 875 l 264 875 l 264 556 l 583 556 l 583 458 l 264 458 l 264 97 l 667 97 l 667 0 l 125 0 m 413 1042 q 257 1090 310 1042 q 204 1222 204 1138 l 329 1222 q 349 1148 329 1171 q 413 1125 369 1125 q 476 1148 456 1125 q 496 1222 496 1171 l 621 1222 q 568 1090 621 1138 q 413 1042 515 1042 z "},"Ә":{"ha":825,"x_min":76,"x_max":749,"o":"m 749 468 q 706 203 749 311 q 590 40 664 94 q 419 -14 515 -14 q 242 40 319 -14 q 121 203 165 93 q 76 474 76 313 l 76 503 l 115 542 l 608 542 q 553 803 604 718 q 388 889 503 889 q 285 869 336 889 q 171 801 235 850 l 151 801 l 111 865 q 251 957 182 928 q 396 986 321 986 q 656 860 564 986 q 749 468 749 733 m 419 85 q 608 444 599 85 l 215 444 q 272 174 215 264 q 419 85 329 85 z "},"Ӝ":{"ha":1194,"x_min":35,"x_max":1160,"o":"m 118 -14 q 56 -7 81 -14 q 35 0 46 -6 l 49 90 l 56 90 l 64 86 q 83 83 78 83 q 139 146 125 83 l 188 368 q 271 482 203 439 q 333 507 300 499 q 271 528 297 514 q 194 632 207 561 l 160 826 q 104 889 150 889 q 85 885 101 889 q 76 882 76 882 l 69 882 l 56 972 l 76 979 q 139 986 101 986 q 247 949 206 986 q 299 847 288 911 l 333 653 q 375 576 342 604 q 465 549 408 549 l 528 549 l 528 972 l 667 972 l 667 549 l 729 549 q 819 576 786 549 q 861 653 853 604 l 896 847 q 949 949 908 911 q 1056 986 990 986 q 1118 979 1093 986 l 1139 972 l 1125 882 l 1118 882 q 1110 885 1118 882 q 1090 889 1093 889 q 1035 826 1044 889 l 1000 632 q 924 528 988 561 q 861 507 896 514 q 924 482 894 499 q 1007 368 988 442 l 1056 146 q 1111 83 1071 83 q 1139 90 1125 83 l 1146 90 l 1160 0 q 1076 -14 1122 -14 q 971 23 1011 -14 q 917 125 931 60 l 868 347 q 743 451 843 451 l 667 451 l 667 0 l 528 0 l 528 451 l 451 451 q 326 347 351 451 l 278 125 q 224 23 264 60 q 118 -14 183 -14 m 475 1063 q 420 1084 442 1063 q 399 1139 399 1106 q 420 1194 399 1172 q 475 1215 442 1215 q 530 1194 508 1215 q 551 1139 551 1172 q 530 1084 551 1106 q 475 1063 508 1063 m 718 1063 q 663 1084 685 1063 q 642 1139 642 1106 q 663 1194 642 1172 q 718 1215 685 1215 q 773 1194 751 1215 q 794 1139 794 1172 q 773 1084 794 1106 q 718 1063 751 1063 z "},"Ӟ":{"ha":722,"x_min":28,"x_max":653,"o":"m 299 -14 q 96 24 176 -14 q 28 63 51 42 l 76 146 l 90 146 q 140 114 108 131 q 285 83 207 83 q 514 271 514 83 q 463 410 514 361 q 313 458 411 458 l 188 458 l 188 556 l 313 556 q 444 601 394 556 q 493 722 493 647 q 442 844 493 799 q 299 889 392 889 q 167 857 233 889 q 118 826 135 840 l 104 826 l 56 910 q 121 947 82 929 q 313 986 201 986 q 485 953 413 986 q 594 864 557 921 q 632 736 632 807 q 544 557 632 625 q 458 514 508 529 q 556 468 511 500 q 653 257 653 390 q 564 59 653 132 q 299 -14 475 -14 m 185 1063 q 130 1084 151 1063 q 108 1139 108 1106 q 130 1194 108 1172 q 185 1215 151 1215 q 240 1194 218 1215 q 261 1139 261 1172 q 240 1084 261 1106 q 185 1063 218 1063 m 428 1063 q 373 1084 394 1063 q 351 1139 351 1106 q 373 1194 351 1172 q 428 1215 394 1215 q 483 1194 461 1215 q 504 1139 504 1172 q 483 1084 504 1106 q 428 1063 461 1063 z "},"Ӣ":{"ha":875,"x_min":125,"x_max":750,"o":"m 125 972 l 264 972 l 264 354 q 261 279 264 326 l 258 236 l 264 236 l 276 279 q 282 294 279 286 q 288 308 285 301 q 306 354 299 342 l 611 972 l 750 972 l 750 0 l 611 0 l 611 618 q 614 693 611 640 l 617 736 l 611 736 l 599 693 q 569 618 576 633 l 264 0 l 125 0 l 125 972 m 250 1097 l 250 1194 l 625 1194 l 625 1097 l 250 1097 z "},"Ӥ":{"ha":875,"x_min":125,"x_max":750,"o":"m 125 972 l 264 972 l 264 354 q 261 279 264 326 l 258 236 l 264 236 l 276 279 q 282 294 279 286 q 288 308 285 301 q 306 354 299 342 l 611 972 l 750 972 l 750 0 l 611 0 l 611 618 q 614 693 611 640 l 617 736 l 611 736 l 599 693 q 569 618 576 633 l 264 0 l 125 0 l 125 972 m 315 1063 q 260 1084 282 1063 q 239 1139 239 1106 q 260 1194 239 1172 q 315 1215 282 1215 q 370 1194 349 1215 q 392 1139 392 1172 q 370 1084 392 1106 q 315 1063 349 1063 m 558 1063 q 503 1084 525 1063 q 482 1139 482 1106 q 503 1194 482 1172 q 558 1215 525 1215 q 613 1194 592 1215 q 635 1139 635 1172 q 613 1084 635 1106 q 558 1063 592 1063 z "},"Ӧ":{"ha":833,"x_min":76,"x_max":757,"o":"m 417 -14 q 167 106 257 -14 q 76 486 76 226 q 167 866 76 746 q 417 986 257 986 q 667 866 576 986 q 757 486 757 746 q 667 106 757 226 q 417 -14 576 -14 m 417 83 q 561 178 504 83 q 618 486 618 274 q 561 794 618 699 q 417 889 504 889 q 272 794 329 889 q 215 486 215 699 q 272 178 215 274 q 417 83 329 83 m 294 1063 q 240 1084 261 1063 q 218 1139 218 1106 q 240 1194 218 1172 q 294 1215 261 1215 q 349 1194 328 1215 q 371 1139 371 1172 q 349 1084 371 1106 q 294 1063 328 1063 m 538 1063 q 483 1084 504 1063 q 461 1139 461 1106 q 483 1194 461 1172 q 538 1215 504 1215 q 592 1194 571 1215 q 614 1139 614 1172 q 592 1084 614 1106 q 538 1063 571 1063 z "},"Ө":{"ha":833,"x_min":76,"x_max":757,"o":"m 417 -14 q 167 106 257 -14 q 76 486 76 226 q 167 866 76 746 q 417 986 257 986 q 667 866 576 986 q 757 486 757 746 q 667 106 757 226 q 417 -14 576 -14 m 417 83 q 561 178 504 83 q 618 486 618 274 q 561 794 618 699 q 417 889 504 889 q 272 794 329 889 q 215 486 215 699 q 272 178 215 274 q 417 83 329 83 m 222 438 l 222 535 l 611 535 l 611 438 l 222 438 z "},"Ӯ":{"ha":744,"x_min":14,"x_max":731,"o":"m 231 -21 q 124 0 174 -21 q 85 21 101 8 l 119 111 l 133 111 q 157 93 147 97 q 217 76 183 76 q 289 103 257 76 q 335 174 321 131 l 363 257 l 300 257 l 14 972 l 160 972 l 363 465 q 383 400 375 432 l 393 361 l 399 361 q 407 400 401 382 l 425 465 l 592 972 l 731 972 l 474 174 q 381 35 447 92 q 231 -21 315 -21 m 185 1097 l 185 1194 l 560 1194 l 560 1097 l 185 1097 z "},"Ӱ":{"ha":744,"x_min":14,"x_max":731,"o":"m 231 -21 q 124 0 174 -21 q 85 21 101 8 l 119 111 l 133 111 q 157 93 147 97 q 217 76 183 76 q 289 103 257 76 q 335 174 321 131 l 363 257 l 300 257 l 14 972 l 160 972 l 363 465 q 383 400 375 432 l 393 361 l 399 361 q 407 400 401 382 l 425 465 l 592 972 l 731 972 l 474 174 q 381 35 447 92 q 231 -21 315 -21 m 250 1063 q 195 1084 217 1063 q 174 1139 174 1106 q 195 1194 174 1172 q 250 1215 217 1215 q 305 1194 283 1215 q 326 1139 326 1172 q 305 1084 326 1106 q 250 1063 283 1063 m 493 1063 q 438 1084 460 1063 q 417 1139 417 1106 q 438 1194 417 1172 q 493 1215 460 1215 q 548 1194 526 1215 q 569 1139 569 1172 q 548 1084 569 1106 q 493 1063 526 1063 z "},"Ӳ":{"ha":744,"x_min":14,"x_max":731,"o":"m 231 -21 q 124 0 174 -21 q 85 21 101 8 l 119 111 l 133 111 q 157 93 147 97 q 217 76 183 76 q 289 103 257 76 q 335 174 321 131 l 363 257 l 300 257 l 14 972 l 160 972 l 363 465 q 383 400 375 432 l 393 361 l 399 361 q 407 400 401 382 l 425 465 l 592 972 l 731 972 l 474 174 q 381 35 447 92 q 231 -21 315 -21 m 247 1042 l 310 1250 l 442 1250 l 324 1042 l 247 1042 m 435 1042 l 497 1250 l 629 1250 l 511 1042 l 435 1042 z "},"Ӵ":{"ha":833,"x_min":83,"x_max":708,"o":"m 569 382 q 514 371 569 382 q 375 361 453 361 q 162 436 240 361 q 83 632 83 511 l 83 972 l 222 972 l 222 632 q 272 506 222 553 q 410 458 322 458 q 524 468 472 458 q 569 479 576 482 l 569 972 l 708 972 l 708 0 l 569 0 l 569 382 m 267 1063 q 212 1084 233 1063 q 190 1139 190 1106 q 212 1194 190 1172 q 267 1215 233 1215 q 322 1194 300 1215 q 343 1139 343 1172 q 322 1084 343 1106 q 267 1063 300 1063 m 510 1063 q 455 1084 476 1063 q 433 1139 433 1106 q 455 1194 433 1172 q 510 1215 476 1215 q 565 1194 543 1215 q 586 1139 586 1172 q 565 1084 586 1106 q 510 1063 543 1063 z "},"Ӷ":{"ha":681,"x_min":125,"x_max":667,"o":"m 667 875 l 264 875 l 264 97 l 354 97 l 354 -208 l 243 -208 l 222 0 l 125 0 l 125 972 l 667 972 l 667 875 z "},"Ӹ":{"ha":1111,"x_min":125,"x_max":986,"o":"m 125 972 l 264 972 l 264 611 l 375 611 q 631 533 546 611 q 715 306 715 454 q 631 78 715 157 q 375 0 546 0 l 125 0 l 125 972 m 847 0 l 847 972 l 986 972 l 986 0 l 847 0 m 375 97 q 576 306 576 97 q 375 514 576 514 l 264 514 l 264 97 l 375 97 m 433 1063 q 378 1084 400 1063 q 357 1139 357 1106 q 378 1194 357 1172 q 433 1215 400 1215 q 488 1194 467 1215 q 510 1139 510 1172 q 488 1084 510 1106 q 433 1063 467 1063 m 676 1063 q 622 1084 643 1063 q 600 1139 600 1106 q 622 1194 600 1172 q 676 1215 643 1215 q 731 1194 710 1215 q 753 1139 753 1172 q 731 1084 753 1106 q 676 1063 710 1063 z "},"Ԛ":{"ha":833,"x_min":76,"x_max":757,"o":"m 563 -215 q 405 -159 463 -215 q 347 -7 347 -103 q 149 135 221 14 q 76 486 76 257 q 167 866 76 746 q 417 986 257 986 q 667 866 576 986 q 757 486 757 746 q 685 135 757 257 q 486 -7 613 14 q 576 -118 486 -118 q 611 -111 594 -118 l 625 -104 l 639 -104 l 667 -194 q 650 -201 658 -199 q 635 -206 642 -203 q 563 -215 599 -215 m 417 83 q 561 178 504 83 q 618 486 618 274 q 561 794 618 699 q 417 889 504 889 q 272 794 329 889 q 215 486 215 699 q 272 178 215 274 q 417 83 329 83 z "},"Ԝ":{"ha":1135,"x_min":21,"x_max":1114,"o":"m 21 972 l 146 972 l 306 292 q 317 221 311 261 q 319 181 319 196 l 325 181 l 329 221 l 333 250 q 340 292 335 269 l 500 972 l 635 972 l 794 292 q 800 256 797 281 l 806 221 l 810 181 l 815 181 q 818 221 815 208 q 824 257 821 232 q 829 292 826 279 l 989 972 l 1114 972 l 885 0 l 744 0 l 585 681 q 578 716 581 693 q 572 751 575 739 l 567 792 l 561 792 l 556 751 l 543 681 l 383 0 l 250 0 l 21 972 z "},"а":{"ha":708,"x_min":63,"x_max":611,"o":"m 292 -14 q 123 44 183 -14 q 63 201 63 101 q 134 355 63 300 q 361 410 206 410 l 472 410 l 472 444 q 434 569 472 526 q 326 611 396 611 q 218 579 276 611 q 174 549 189 563 l 160 549 l 111 632 q 174 669 139 653 q 340 708 249 708 q 481 674 419 708 q 576 580 542 640 q 611 444 611 519 l 611 0 l 514 0 l 500 83 l 493 83 q 444 35 474 56 q 292 -14 383 -14 m 326 90 q 431 132 378 90 q 472 174 454 151 l 472 313 l 361 313 q 242 282 282 313 q 201 201 201 251 q 233 119 201 147 q 326 90 264 90 z "},"б":{"ha":729,"x_min":76,"x_max":660,"o":"m 368 -14 q 156 73 235 -14 q 76 319 76 160 l 76 451 q 114 730 76 628 q 228 883 151 832 q 438 958 306 935 l 632 993 l 653 875 l 458 840 q 260 748 319 815 q 201 542 201 681 q 285 624 235 596 q 403 653 336 653 q 532 614 474 653 q 625 499 590 575 q 660 319 660 424 q 581 73 660 160 q 368 -14 501 -14 m 368 83 q 478 142 435 83 q 521 319 521 201 q 478 491 521 433 q 368 549 435 549 q 258 491 301 549 q 215 319 215 433 q 258 142 215 201 q 368 83 301 83 z "},"в":{"ha":708,"x_min":104,"x_max":646,"o":"m 104 694 l 368 694 q 504 670 447 694 q 590 604 561 646 q 618 514 618 563 q 551 390 618 435 q 486 361 522 372 q 565 332 531 353 q 624 274 601 308 q 646 188 646 240 q 576 52 646 104 q 368 0 507 0 l 104 0 l 104 694 m 368 403 q 449 430 419 403 q 479 500 479 457 q 449 570 479 543 q 368 597 419 597 l 243 597 l 243 403 l 368 403 m 368 97 q 473 125 439 97 q 507 201 507 153 q 473 278 507 250 q 368 306 439 306 l 243 306 l 243 97 l 368 97 z "},"г":{"ha":576,"x_min":104,"x_max":563,"o":"m 104 0 l 104 694 l 563 694 l 563 597 l 243 597 l 243 0 l 104 0 z "},"ѓ":{"ha":576,"x_min":104,"x_max":563,"o":"m 104 0 l 104 694 l 563 694 l 563 597 l 243 597 l 243 0 l 104 0 m 319 764 l 382 972 l 535 972 l 410 764 l 319 764 z "},"ґ":{"ha":576,"x_min":104,"x_max":563,"o":"m 104 0 l 104 694 l 438 694 l 451 819 l 563 819 l 563 597 l 243 597 l 243 0 l 104 0 z "},"д":{"ha":778,"x_min":7,"x_max":729,"o":"m 7 97 l 76 97 q 113 151 99 122 q 153 306 147 225 l 174 694 l 639 694 l 639 97 l 729 97 l 729 -194 l 618 -194 l 597 0 l 146 0 l 125 -194 l 7 -194 l 7 97 m 500 97 l 500 597 l 306 597 l 292 306 q 251 151 286 225 q 215 97 238 122 l 500 97 z "},"е":{"ha":701,"x_min":69,"x_max":639,"o":"m 375 -14 q 150 78 231 -14 q 69 347 69 169 q 147 616 69 524 q 354 708 225 708 q 561 616 483 708 q 639 347 639 524 l 639 326 l 611 299 l 208 299 q 256 138 208 192 q 389 83 303 83 q 496 114 440 83 q 542 146 525 131 l 556 146 l 604 63 q 542 24 579 42 q 375 -14 469 -14 m 500 396 q 460 558 500 506 q 354 611 421 611 q 248 558 288 611 q 208 396 208 506 l 500 396 z "},"ѐ":{"ha":701,"x_min":69,"x_max":639,"o":"m 375 -14 q 150 78 231 -14 q 69 347 69 169 q 147 616 69 524 q 354 708 225 708 q 561 616 483 708 q 639 347 639 524 l 639 326 l 611 299 l 208 299 q 256 138 208 192 q 389 83 303 83 q 496 114 440 83 q 542 146 525 131 l 556 146 l 604 63 q 542 24 579 42 q 375 -14 469 -14 m 500 396 q 460 558 500 506 q 354 611 421 611 q 248 558 288 611 q 208 396 208 506 l 500 396 m 299 764 l 174 972 l 326 972 l 389 764 l 299 764 z "},"ё":{"ha":701,"x_min":69,"x_max":639,"o":"m 375 -14 q 150 78 231 -14 q 69 347 69 169 q 147 616 69 524 q 354 708 225 708 q 561 616 483 708 q 639 347 639 524 l 639 326 l 611 299 l 208 299 q 256 138 208 192 q 389 83 303 83 q 496 114 440 83 q 542 146 525 131 l 556 146 l 604 63 q 542 24 579 42 q 375 -14 469 -14 m 500 396 q 460 558 500 506 q 354 611 421 611 q 248 558 288 611 q 208 396 208 506 l 500 396 m 229 785 q 174 806 196 785 q 153 861 153 828 q 174 916 153 894 q 229 938 196 938 q 284 916 263 938 q 306 861 306 894 q 284 806 306 828 q 229 785 263 785 m 472 785 q 417 806 439 785 q 396 861 396 828 q 417 916 396 894 q 472 938 439 938 q 527 916 506 938 q 549 861 549 894 q 527 806 549 828 q 472 785 506 785 z "},"ж":{"ha":1028,"x_min":35,"x_max":993,"o":"m 118 -14 q 58 -7 86 -14 q 35 0 49 -6 l 49 90 l 56 90 l 64 86 q 83 83 78 83 q 125 125 115 83 l 160 257 q 195 317 169 294 q 230 342 221 339 q 285 361 239 346 q 252 369 275 361 q 206 396 229 376 q 174 451 182 415 l 146 569 q 104 611 136 611 q 85 607 101 611 q 76 604 76 604 l 69 604 l 56 694 l 79 701 q 139 708 104 708 q 231 679 197 708 q 278 590 264 650 l 306 472 q 396 403 321 403 l 444 403 l 444 694 l 583 694 l 583 403 l 632 403 q 722 472 707 403 l 750 590 q 797 679 764 650 q 889 708 831 708 q 949 701 924 708 l 972 694 l 958 604 l 951 604 q 943 607 951 604 q 924 611 926 611 q 882 569 893 611 l 854 451 q 823 397 846 417 q 777 369 800 376 q 743 361 754 361 q 778 351 751 361 q 831 317 804 340 q 868 257 858 294 l 903 125 q 944 83 914 83 q 964 86 950 83 l 972 90 l 979 90 l 993 0 q 969 -7 979 -6 q 910 -14 942 -14 q 820 15 853 -14 q 771 104 788 44 l 736 236 q 705 288 728 269 q 646 306 682 306 l 583 306 l 583 0 l 444 0 l 444 306 l 382 306 q 323 288 346 306 q 292 236 300 269 l 257 104 q 208 15 240 44 q 118 -14 175 -14 z "},"з":{"ha":625,"x_min":21,"x_max":563,"o":"m 278 -14 q 86 24 164 -14 q 21 63 46 42 l 69 146 l 83 146 q 132 114 99 132 q 264 83 196 83 q 387 111 350 83 q 424 194 424 139 q 285 306 424 306 l 167 306 l 167 403 l 285 403 q 378 431 346 403 q 410 507 410 458 q 264 611 410 611 q 147 579 206 611 q 104 549 122 564 l 90 549 l 42 632 q 103 669 65 651 q 278 708 178 708 q 481 656 413 708 q 549 521 549 604 q 475 394 549 440 q 403 361 444 372 q 482 331 449 353 q 563 181 563 278 q 492 39 563 92 q 278 -14 422 -14 z "},"и":{"ha":764,"x_min":104,"x_max":660,"o":"m 104 694 l 243 694 l 243 299 q 240 235 243 276 l 238 201 l 243 201 l 254 235 q 285 299 264 264 l 521 694 l 660 694 l 660 0 l 521 0 l 521 396 q 524 460 521 418 l 526 493 l 521 493 l 510 460 q 479 396 500 431 l 243 0 l 104 0 l 104 694 z "},"й":{"ha":764,"x_min":104,"x_max":660,"o":"m 104 694 l 243 694 l 243 299 q 240 235 243 276 l 238 201 l 243 201 l 254 235 q 285 299 264 264 l 521 694 l 660 694 l 660 0 l 521 0 l 521 396 q 524 460 521 418 l 526 493 l 521 493 l 510 460 q 479 396 500 431 l 243 0 l 104 0 l 104 694 m 382 764 q 226 812 279 764 q 174 944 174 860 l 299 944 q 319 870 299 893 q 382 847 339 847 q 445 870 425 847 q 465 944 465 893 l 590 944 q 538 812 590 860 q 382 764 485 764 z "},"ѝ":{"ha":764,"x_min":104,"x_max":660,"o":"m 104 694 l 243 694 l 243 299 q 240 235 243 276 l 238 201 l 243 201 l 254 235 q 285 299 264 264 l 521 694 l 660 694 l 660 0 l 521 0 l 521 396 q 524 460 521 418 l 526 493 l 521 493 l 510 460 q 479 396 500 431 l 243 0 l 104 0 l 104 694 m 329 764 l 204 972 l 357 972 l 419 764 l 329 764 z "},"к":{"ha":708,"x_min":104,"x_max":674,"o":"m 590 -14 q 501 15 533 -14 q 451 104 468 44 l 417 236 q 385 288 408 269 q 326 306 363 306 l 243 306 l 243 0 l 104 0 l 104 694 l 243 694 l 243 403 l 313 403 q 403 472 388 403 l 431 590 q 478 679 444 650 q 569 708 511 708 q 629 701 604 708 l 653 694 l 639 604 l 632 604 q 624 607 632 604 q 604 611 607 611 q 563 569 574 611 l 535 451 q 472 375 522 399 q 424 361 446 363 q 478 343 454 357 q 549 257 533 313 l 583 125 q 625 83 594 83 q 644 86 631 83 l 653 90 l 660 90 l 674 0 q 650 -7 660 -6 q 590 -14 622 -14 z "},"ќ":{"ha":708,"x_min":104,"x_max":674,"o":"m 590 -14 q 501 15 533 -14 q 451 104 468 44 l 417 236 q 385 288 408 269 q 326 306 363 306 l 243 306 l 243 0 l 104 0 l 104 694 l 243 694 l 243 403 l 313 403 q 403 472 388 403 l 431 590 q 478 679 444 650 q 569 708 511 708 q 629 701 604 708 l 653 694 l 639 604 l 632 604 q 624 607 632 604 q 604 611 607 611 q 563 569 574 611 l 535 451 q 472 375 522 399 q 424 361 446 363 q 478 343 454 357 q 549 257 533 313 l 583 125 q 625 83 594 83 q 644 86 631 83 l 653 90 l 660 90 l 674 0 q 650 -7 660 -6 q 590 -14 622 -14 m 313 764 l 375 972 l 528 972 l 403 764 l 313 764 z "},"л":{"ha":750,"x_min":14,"x_max":646,"o":"m 90 -14 q 36 -7 61 -14 q 14 0 28 -6 l 21 90 l 35 90 l 43 86 q 63 83 57 83 q 109 114 92 83 q 132 222 126 144 l 160 694 l 646 694 l 646 0 l 507 0 l 507 597 l 292 597 l 271 222 q 90 -14 257 -14 z "},"м":{"ha":972,"x_min":104,"x_max":868,"o":"m 104 694 l 250 694 l 458 306 q 476 269 474 278 q 483 250 482 254 l 489 250 q 496 269 490 254 q 514 306 499 279 l 722 694 l 868 694 l 868 0 l 729 0 l 729 368 q 732 432 729 390 l 735 465 l 729 465 l 717 433 l 706 408 q 688 368 694 381 l 556 118 l 417 118 l 285 368 q 256 433 267 400 l 243 465 l 238 465 l 240 432 q 243 368 243 390 l 243 0 l 104 0 l 104 694 z "},"н":{"ha":764,"x_min":104,"x_max":660,"o":"m 104 0 l 104 694 l 243 694 l 243 403 l 521 403 l 521 694 l 660 694 l 660 0 l 521 0 l 521 306 l 243 306 l 243 0 l 104 0 z "},"о":{"ha":736,"x_min":69,"x_max":667,"o":"m 368 -14 q 149 78 228 -14 q 69 347 69 169 q 149 617 69 525 q 368 708 228 708 q 587 617 507 708 q 667 347 667 525 q 587 78 667 169 q 368 -14 507 -14 m 368 83 q 484 147 440 83 q 528 347 528 210 q 484 548 528 485 q 368 611 440 611 q 252 548 296 611 q 208 347 208 485 q 252 147 208 210 q 368 83 296 83 z "},"п":{"ha":764,"x_min":104,"x_max":660,"o":"m 104 0 l 104 694 l 660 694 l 660 0 l 521 0 l 521 597 l 243 597 l 243 0 l 104 0 z "},"р":{"ha":743,"x_min":104,"x_max":674,"o":"m 104 694 l 201 694 l 215 611 l 222 611 q 271 660 238 633 q 424 708 339 708 q 549 667 492 708 q 640 545 606 626 q 674 347 674 464 q 597 78 674 171 q 396 -14 521 -14 q 288 7 340 -14 q 243 28 261 15 l 243 -236 l 201 -278 l 104 -278 l 104 694 m 375 83 q 491 147 447 83 q 535 347 535 210 q 494 542 535 479 q 389 604 453 604 q 285 563 338 604 q 243 521 263 543 l 243 111 q 281 97 257 104 q 375 83 328 83 z "},"с":{"ha":632,"x_min":69,"x_max":604,"o":"m 375 -14 q 150 78 231 -14 q 69 347 69 169 q 148 617 69 525 q 361 708 226 708 q 528 669 453 708 q 590 632 564 653 l 542 549 l 528 549 q 482 579 510 563 q 375 611 424 611 q 253 549 297 611 q 208 347 208 486 q 255 145 208 207 q 389 83 301 83 q 496 114 440 83 q 542 146 525 131 l 556 146 l 604 63 q 542 24 579 42 q 375 -14 469 -14 z "},"т":{"ha":583,"x_min":14,"x_max":569,"o":"m 222 0 l 222 597 l 14 597 l 14 694 l 569 694 l 569 597 l 361 597 l 361 0 l 222 0 z "},"у":{"ha":660,"x_min":26,"x_max":639,"o":"m 188 -292 q 86 -271 131 -292 q 49 -250 63 -262 l 83 -160 l 97 -160 q 119 -178 111 -174 q 174 -194 146 -194 q 238 -167 210 -194 q 278 -97 267 -140 l 306 0 l 264 0 l 26 694 l 160 694 l 313 236 q 332 165 319 215 q 342 125 336 153 l 347 125 q 356 165 350 147 l 374 236 l 500 694 l 639 694 l 417 -97 q 332 -238 392 -185 q 188 -292 272 -292 z "},"ў":{"ha":660,"x_min":26,"x_max":639,"o":"m 188 -292 q 86 -271 131 -292 q 49 -250 63 -262 l 83 -160 l 97 -160 q 119 -178 111 -174 q 174 -194 146 -194 q 238 -167 210 -194 q 278 -97 267 -140 l 306 0 l 264 0 l 26 694 l 160 694 l 313 236 q 332 165 319 215 q 342 125 336 153 l 347 125 q 356 165 350 147 l 374 236 l 500 694 l 639 694 l 417 -97 q 332 -238 392 -185 q 188 -292 272 -292 m 331 764 q 175 812 228 764 q 122 944 122 860 l 247 944 q 267 870 247 893 q 331 847 288 847 q 394 870 374 847 q 414 944 414 893 l 539 944 q 486 812 539 860 q 331 764 433 764 z "},"ф":{"ha":944,"x_min":63,"x_max":882,"o":"m 403 -14 q 151 83 239 -8 q 63 347 63 175 q 151 611 63 519 q 403 708 239 703 l 403 931 l 444 972 l 542 972 l 542 708 q 794 611 706 703 q 882 347 882 519 q 794 83 882 175 q 542 -14 706 -8 l 542 -278 l 403 -278 l 403 -14 m 403 611 q 253 542 304 606 q 201 347 201 479 q 253 152 201 215 q 403 83 304 89 l 403 611 m 542 83 q 692 152 640 89 q 743 347 743 215 q 692 542 743 479 q 542 611 640 606 l 542 83 z "},"х":{"ha":639,"x_min":21,"x_max":618,"o":"m 236 354 l 28 694 l 181 694 l 292 500 q 308 464 304 475 l 317 444 l 322 444 l 331 464 q 347 500 339 488 l 458 694 l 611 694 l 403 354 l 618 0 l 465 0 l 347 201 q 329 238 332 228 q 322 257 324 253 l 317 257 q 310 238 315 253 q 292 201 307 229 l 174 0 l 21 0 l 236 354 z "},"ч":{"ha":722,"x_min":76,"x_max":618,"o":"m 479 257 q 433 246 486 260 q 319 236 382 236 q 192 266 247 236 q 107 348 138 296 q 76 465 76 400 l 76 694 l 215 694 l 215 465 q 253 370 215 407 q 354 333 292 333 q 443 343 404 333 q 460 349 451 346 q 479 354 469 351 l 479 694 l 618 694 l 618 0 l 479 0 l 479 257 z "},"ц":{"ha":785,"x_min":104,"x_max":736,"o":"m 625 -194 l 604 0 l 104 0 l 104 694 l 243 694 l 243 97 l 507 97 l 507 694 l 646 694 l 646 97 l 736 97 l 736 -194 l 625 -194 z "},"ш":{"ha":1097,"x_min":104,"x_max":993,"o":"m 104 0 l 104 694 l 243 694 l 243 97 l 479 97 l 479 694 l 618 694 l 618 97 l 854 97 l 854 694 l 993 694 l 993 0 l 104 0 z "},"щ":{"ha":1132,"x_min":104,"x_max":1083,"o":"m 972 -194 l 951 0 l 104 0 l 104 694 l 243 694 l 243 97 l 479 97 l 479 694 l 618 694 l 618 97 l 854 97 l 854 694 l 993 694 l 993 97 l 1083 97 l 1083 -194 l 972 -194 z "},"џ":{"ha":764,"x_min":104,"x_max":660,"o":"m 326 -194 l 313 0 l 104 0 l 104 694 l 243 694 l 243 97 l 521 97 l 521 694 l 660 694 l 660 0 l 451 0 l 438 -194 l 326 -194 z "},"ь":{"ha":681,"x_min":104,"x_max":646,"o":"m 104 694 l 243 694 l 243 458 l 368 458 q 646 229 646 458 q 368 0 646 0 l 104 0 l 104 694 m 368 97 q 474 129 442 97 q 507 229 507 161 q 474 329 507 297 q 368 361 442 361 l 243 361 l 243 97 l 368 97 z "},"ъ":{"ha":771,"x_min":14,"x_max":736,"o":"m 194 597 l 14 597 l 14 694 l 333 694 l 333 458 l 458 458 q 736 229 736 458 q 458 0 736 0 l 194 0 l 194 597 m 458 97 q 565 129 532 97 q 597 229 597 161 q 565 329 597 297 q 458 361 532 361 l 333 361 l 333 97 l 458 97 z "},"ы":{"ha":986,"x_min":104,"x_max":882,"o":"m 104 694 l 243 694 l 243 458 l 354 458 q 632 229 632 458 q 354 0 632 0 l 104 0 l 104 694 m 743 0 l 743 694 l 882 694 l 882 0 l 743 0 m 354 97 q 460 129 428 97 q 493 229 493 161 q 460 329 493 297 q 354 361 428 361 l 243 361 l 243 97 l 354 97 z "},"љ":{"ha":1056,"x_min":14,"x_max":1021,"o":"m 90 -14 q 36 -7 61 -14 q 14 0 28 -6 l 21 90 l 35 90 l 43 86 q 63 83 57 83 q 109 114 92 83 q 132 222 126 144 l 160 694 l 618 694 l 618 458 l 743 458 q 1021 229 1021 458 q 743 0 1021 0 l 479 0 l 479 597 l 292 597 l 271 222 q 90 -14 257 -14 m 743 97 q 849 129 817 97 q 882 229 882 161 q 849 329 882 297 q 743 361 817 361 l 618 361 l 618 97 l 743 97 z "},"њ":{"ha":1069,"x_min":104,"x_max":1035,"o":"m 104 694 l 243 694 l 243 431 l 493 431 l 493 694 l 632 694 l 632 431 l 757 431 q 967 374 899 431 q 1035 215 1035 318 q 967 56 1035 113 q 757 0 899 0 l 493 0 l 493 333 l 243 333 l 243 0 l 104 0 l 104 694 m 757 97 q 863 126 829 97 q 896 215 896 156 q 863 304 896 275 q 757 333 829 333 l 632 333 l 632 97 l 757 97 z "},"ѕ":{"ha":639,"x_min":49,"x_max":590,"o":"m 306 -14 q 114 24 192 -14 q 49 63 74 42 l 97 146 l 111 146 q 160 114 126 132 q 292 83 224 83 q 413 110 375 83 q 451 181 451 136 q 412 250 451 226 q 289 301 372 274 q 171 347 215 326 q 94 407 126 368 q 63 507 63 446 q 128 654 63 600 q 326 708 194 708 q 506 669 425 708 q 569 632 544 651 l 521 549 l 507 549 q 460 579 486 564 q 340 611 399 611 q 236 585 271 611 q 201 521 201 560 q 241 451 201 475 q 364 400 281 428 q 482 354 438 375 q 558 294 526 333 q 590 194 590 256 q 521 41 590 96 q 306 -14 451 -14 z "},"є":{"ha":632,"x_min":69,"x_max":604,"o":"m 375 -14 q 150 78 231 -14 q 69 347 69 169 q 148 617 69 525 q 361 708 226 708 q 528 669 453 708 q 590 632 564 653 l 542 549 l 528 549 q 482 579 510 563 q 375 611 424 611 q 263 563 304 611 q 210 403 221 514 l 460 403 l 460 306 l 210 306 q 389 83 219 83 q 496 114 440 83 q 542 146 525 131 l 556 146 l 604 63 q 542 24 579 42 q 375 -14 469 -14 z "},"э":{"ha":632,"x_min":28,"x_max":563,"o":"m 257 -14 q 90 24 163 -14 q 28 63 53 42 l 76 146 l 90 146 q 135 114 104 132 q 243 83 190 83 q 370 137 324 83 q 422 306 417 190 l 172 306 l 172 403 l 422 403 q 369 563 411 514 q 257 611 328 611 q 149 579 207 611 q 104 549 119 563 l 90 549 l 42 632 q 104 669 68 653 q 271 708 179 708 q 484 617 406 708 q 563 347 563 525 q 482 78 563 169 q 257 -14 401 -14 z "},"і":{"ha":347,"x_min":90,"x_max":257,"o":"m 174 806 q 114 829 138 806 q 90 889 90 853 q 114 949 90 925 q 174 972 138 972 q 233 949 210 972 q 257 889 257 925 q 233 829 257 853 q 174 806 210 806 m 104 0 l 104 694 l 243 694 l 243 0 l 104 0 z "},"ї":{"ha":347,"x_min":14,"x_max":410,"o":"m 104 0 l 104 694 l 243 694 l 243 0 l 104 0 m 90 785 q 35 806 57 785 q 14 861 14 828 q 35 916 14 894 q 90 938 57 938 q 145 916 124 938 q 167 861 167 894 q 145 806 167 828 q 90 785 124 785 m 333 785 q 278 806 300 785 q 257 861 257 828 q 278 916 257 894 q 333 938 300 938 q 388 916 367 938 q 410 861 410 894 q 388 806 410 828 q 333 785 367 785 z "},"ј":{"ha":347,"x_min":-125,"x_max":257,"o":"m 174 806 q 114 829 138 806 q 90 889 90 853 q 114 949 90 925 q 174 972 138 972 q 233 949 210 972 q 257 889 257 925 q 233 829 257 853 q 174 806 210 806 m 14 -278 q -87 -257 -43 -278 q -125 -236 -111 -249 l -90 -146 l -76 -146 q -54 -164 -62 -160 q 0 -181 -28 -181 q 76 -149 49 -181 q 104 -56 104 -117 l 104 694 l 243 694 l 243 -56 q 181 -217 243 -156 q 14 -278 118 -278 z "},"ћ":{"ha":778,"x_min":35,"x_max":681,"o":"m 125 722 l 35 722 l 35 819 l 125 819 l 125 931 l 167 972 l 264 972 l 264 819 l 451 819 l 451 722 l 264 722 l 264 556 q 310 590 286 578 q 444 625 376 625 q 615 559 549 625 q 681 389 681 493 l 681 0 l 542 0 l 542 389 q 505 484 542 447 q 410 521 468 521 q 306 479 358 521 q 264 438 283 461 l 264 0 l 125 0 l 125 722 z "},"ю":{"ha":993,"x_min":104,"x_max":924,"o":"m 639 -14 q 440 67 515 -14 q 354 306 365 147 l 243 306 l 243 0 l 104 0 l 104 694 l 243 694 l 243 403 l 354 403 q 442 631 365 553 q 639 708 519 708 q 846 616 768 708 q 924 347 924 524 q 846 78 924 171 q 639 -14 768 -14 m 639 83 q 744 147 703 83 q 785 347 785 211 q 744 547 785 483 q 639 611 703 611 q 534 547 575 611 q 493 347 493 483 q 534 147 493 211 q 639 83 575 83 z "},"я":{"ha":708,"x_min":35,"x_max":604,"o":"m 118 -14 q 58 -7 86 -14 q 35 0 49 -6 l 49 90 l 56 90 l 64 86 q 83 83 78 83 q 125 125 113 83 l 153 215 q 201 281 165 256 q 236 299 218 293 q 153 329 186 307 q 92 388 115 353 q 69 479 69 422 q 138 638 69 582 q 347 694 206 694 l 604 694 l 604 0 l 465 0 l 465 264 l 368 264 q 285 194 306 264 l 257 104 q 207 15 239 43 q 118 -14 175 -14 m 465 361 l 465 597 l 347 597 q 242 568 275 597 q 208 479 208 539 q 242 390 208 419 q 347 361 275 361 l 465 361 z "},"ђ":{"ha":771,"x_min":35,"x_max":681,"o":"m 465 -194 q 386 -185 422 -194 q 371 -180 379 -182 q 354 -174 363 -178 l 368 -83 l 382 -83 q 399 -90 390 -89 q 438 -97 417 -97 q 514 -65 486 -97 q 542 28 542 -33 l 542 389 q 505 484 542 447 q 410 521 468 521 q 306 479 358 521 q 264 438 283 461 l 264 0 l 125 0 l 125 722 l 35 722 l 35 819 l 125 819 l 125 931 l 167 972 l 264 972 l 264 819 l 451 819 l 451 722 l 264 722 l 264 556 q 310 590 286 578 q 444 625 376 625 q 615 559 549 625 q 681 389 681 493 l 681 28 q 621 -133 681 -72 q 465 -194 561 -194 z "},"ѣ":{"ha":715,"x_min":21,"x_max":681,"o":"m 403 458 q 681 229 681 458 q 403 0 681 0 l 139 0 l 139 597 l 21 597 l 21 694 l 139 694 l 139 972 l 278 972 l 278 694 l 479 694 l 479 597 l 278 597 l 278 458 l 403 458 m 403 97 q 509 129 476 97 q 542 229 542 161 q 509 329 542 297 q 403 361 476 361 l 278 361 l 278 97 l 403 97 z "},"ѫ":{"ha":1028,"x_min":35,"x_max":993,"o":"m 118 -14 q 58 -7 86 -14 q 35 0 49 -6 l 49 90 l 56 90 l 64 86 q 83 83 78 83 q 125 125 115 83 l 160 257 q 192 325 171 301 q 258 360 214 349 q 385 374 303 371 l 165 694 l 853 694 l 633 375 q 763 361 717 372 q 833 326 810 350 q 868 257 857 301 l 903 125 q 944 83 914 83 q 964 86 950 83 l 972 90 l 979 90 l 993 0 q 969 -7 979 -6 q 910 -14 942 -14 q 820 15 853 -14 q 771 104 788 44 l 736 236 q 705 288 728 269 q 646 306 682 306 l 583 306 l 583 0 l 444 0 l 444 306 l 382 306 q 323 288 346 306 q 292 236 300 269 l 257 104 q 208 15 240 44 q 118 -14 175 -14 m 508 361 l 517 361 l 660 597 l 365 597 l 508 361 z "},"ѳ":{"ha":736,"x_min":69,"x_max":667,"o":"m 368 708 q 587 617 507 708 q 667 347 667 525 q 587 78 667 169 q 368 -14 507 -14 q 149 78 228 -14 q 69 347 69 169 q 149 617 69 525 q 368 708 228 708 m 368 611 q 260 559 303 611 q 210 396 218 507 l 526 396 q 476 559 518 507 q 368 611 433 611 m 368 83 q 476 135 433 83 q 526 299 518 188 l 210 299 q 260 135 218 188 q 368 83 303 83 z "},"ѵ":{"ha":647,"x_min":21,"x_max":668,"o":"m 21 694 l 160 694 l 306 236 q 316 197 313 214 q 324 139 319 181 l 329 139 q 336 197 333 181 q 346 235 339 213 l 411 472 q 458 615 438 567 q 510 685 479 663 q 592 708 540 708 q 668 694 633 708 l 660 604 l 650 604 q 626 611 640 611 q 549 472 589 611 l 410 0 l 243 0 l 21 694 z "},"ғ":{"ha":576,"x_min":26,"x_max":563,"o":"m 563 597 l 243 597 l 243 396 l 415 396 l 415 299 l 243 299 l 243 0 l 104 0 l 104 299 l 26 299 l 26 396 l 104 396 l 104 694 l 563 694 l 563 597 z "},"ҕ":{"ha":708,"x_min":104,"x_max":660,"o":"m 397 458 q 585 400 510 458 q 660 236 660 342 l 660 28 q 600 -133 660 -72 q 444 -194 540 -194 q 365 -185 390 -194 q 350 -180 358 -182 q 333 -174 342 -178 l 347 -83 l 361 -83 q 378 -90 363 -83 q 417 -97 396 -97 q 493 -65 465 -97 q 521 28 521 -33 l 521 208 q 481 318 521 283 q 375 353 440 353 q 243 326 311 353 l 243 0 l 104 0 l 104 694 l 563 694 l 563 597 l 243 597 l 243 431 q 397 458 317 458 z "},"җ":{"ha":1028,"x_min":35,"x_max":993,"o":"m 993 0 l 993 -194 l 882 -194 l 863 -7 q 806 31 828 3 q 771 104 783 58 l 736 236 q 705 288 728 269 q 646 306 682 306 l 583 306 l 583 0 l 444 0 l 444 306 l 382 306 q 323 288 346 306 q 292 236 300 269 l 257 104 q 208 15 240 44 q 118 -14 175 -14 q 58 -7 86 -14 q 35 0 49 -6 l 49 90 l 56 90 l 64 86 q 83 83 78 83 q 125 125 115 83 l 160 257 q 195 317 169 294 q 230 342 221 339 q 285 361 239 346 q 252 369 275 361 q 206 396 229 376 q 174 451 182 415 l 146 569 q 104 611 136 611 q 85 607 101 611 q 76 604 76 604 l 69 604 l 56 694 l 79 701 q 139 708 104 708 q 231 679 197 708 q 278 590 264 650 l 306 472 q 396 403 321 403 l 444 403 l 444 694 l 583 694 l 583 403 l 632 403 q 722 472 707 403 l 750 590 q 797 679 764 650 q 889 708 831 708 q 949 701 924 708 l 972 694 l 958 604 l 951 604 q 943 607 951 604 q 924 611 926 611 q 882 569 893 611 l 854 451 q 823 397 846 417 q 777 369 800 376 q 743 361 754 361 q 778 351 751 361 q 831 317 804 340 q 868 257 858 294 l 903 125 q 944 83 914 83 q 964 86 950 83 l 972 90 l 979 90 l 993 0 z "},"ҙ":{"ha":625,"x_min":21,"x_max":563,"o":"m 563 181 q 514 58 563 107 q 365 -8 465 8 l 365 -194 l 254 -194 l 235 -12 q 86 24 150 -7 q 21 63 46 42 l 69 146 l 83 146 q 132 114 99 132 q 264 83 196 83 q 387 111 350 83 q 424 194 424 139 q 285 306 424 306 l 167 306 l 167 403 l 285 403 q 378 431 346 403 q 410 507 410 458 q 264 611 410 611 q 147 579 206 611 q 104 549 122 564 l 90 549 l 42 632 q 103 669 65 651 q 278 708 178 708 q 481 656 413 708 q 549 521 549 604 q 475 394 549 440 q 403 361 444 372 q 482 331 449 353 q 563 181 563 278 z "},"қ":{"ha":708,"x_min":104,"x_max":674,"o":"m 674 0 l 674 -194 l 563 -194 l 543 -7 q 486 31 508 3 q 451 104 464 58 l 417 236 q 385 288 408 269 q 326 306 363 306 l 243 306 l 243 0 l 104 0 l 104 694 l 243 694 l 243 403 l 313 403 q 403 472 388 403 l 431 590 q 478 679 444 650 q 569 708 511 708 q 629 701 604 708 l 653 694 l 639 604 l 632 604 q 624 607 632 604 q 604 611 607 611 q 563 569 574 611 l 535 451 q 472 375 522 399 q 424 361 446 363 q 478 343 454 357 q 549 257 533 313 l 583 125 q 625 83 594 83 q 644 86 631 83 l 653 90 l 660 90 l 674 0 z "},"ҝ":{"ha":736,"x_min":104,"x_max":701,"o":"m 701 0 q 678 -7 700 -1 q 618 -14 650 -14 q 528 15 561 -14 q 479 104 496 44 l 444 236 q 418 283 438 265 q 368 304 399 301 l 368 167 l 313 167 l 313 306 l 243 306 l 243 0 l 104 0 l 104 694 l 243 694 l 243 403 l 313 403 l 313 528 l 368 528 l 368 406 q 431 472 417 417 l 458 590 q 506 679 472 650 q 597 708 539 708 q 657 701 632 708 l 681 694 l 667 604 l 660 604 q 651 607 660 604 q 632 611 635 611 q 590 569 601 611 l 563 451 q 500 375 550 399 q 451 361 474 363 q 506 343 482 357 q 576 257 564 308 l 611 125 q 653 83 622 83 q 672 86 658 83 l 681 90 l 688 90 l 701 0 z "},"ҡ":{"ha":826,"x_min":14,"x_max":792,"o":"m 792 0 q 768 -7 778 -6 q 708 -14 740 -14 q 619 15 651 -14 q 569 104 586 44 l 535 236 q 503 288 526 269 q 444 306 481 306 l 361 306 l 361 0 l 222 0 l 222 597 l 14 597 l 14 694 l 361 694 l 361 403 l 431 403 q 521 472 506 403 l 549 590 q 596 679 563 650 q 688 708 629 708 q 747 701 722 708 l 771 694 l 757 604 l 750 604 q 742 607 750 604 q 722 611 725 611 q 681 569 692 611 l 653 451 q 590 375 640 399 q 542 361 564 363 q 596 343 572 357 q 667 257 651 313 l 701 125 q 743 83 713 83 q 763 86 749 83 l 771 90 l 778 90 l 792 0 z "},"ң":{"ha":764,"x_min":104,"x_max":750,"o":"m 660 97 l 750 97 l 750 -194 l 639 -194 l 618 0 l 521 0 l 521 306 l 243 306 l 243 0 l 104 0 l 104 694 l 243 694 l 243 403 l 521 403 l 521 694 l 660 694 l 660 97 z "},"ԥ":{"ha":764,"x_min":104,"x_max":750,"o":"m 660 97 l 750 97 l 750 -194 l 639 -194 l 618 0 l 521 0 l 521 597 l 243 597 l 243 0 l 104 0 l 104 694 l 660 694 l 660 97 z "},"ҫ":{"ha":632,"x_min":69,"x_max":604,"o":"m 604 63 q 542 24 579 42 q 451 -7 499 3 l 451 -194 l 340 -194 l 321 -10 q 135 97 201 7 q 69 347 69 188 q 148 617 69 525 q 361 708 226 708 q 528 669 453 708 q 590 632 564 653 l 542 549 l 528 549 q 482 579 510 563 q 375 611 424 611 q 253 549 297 611 q 208 347 208 486 q 255 145 208 207 q 389 83 301 83 q 496 114 440 83 q 542 146 525 131 l 556 146 l 604 63 z "},"ү":{"ha":653,"x_min":21,"x_max":632,"o":"m 257 0 l 21 694 l 160 694 l 306 267 q 315 231 311 251 q 319 203 318 211 l 324 169 l 329 169 l 333 203 q 338 231 335 211 q 347 267 342 251 l 493 694 l 632 694 l 396 0 l 396 -236 l 354 -278 l 257 -278 l 257 0 z "},"ұ":{"ha":653,"x_min":21,"x_max":632,"o":"m 413 49 l 517 49 l 517 -49 l 396 -49 l 396 -236 l 354 -278 l 257 -278 l 257 -49 l 128 -49 l 128 49 l 240 49 l 21 694 l 160 694 l 306 267 q 315 231 311 251 q 319 203 318 211 l 324 169 l 329 169 l 333 203 q 338 231 335 211 q 347 267 342 251 l 493 694 l 632 694 l 413 49 z "},"ҷ":{"ha":722,"x_min":76,"x_max":708,"o":"m 708 97 l 708 -194 l 597 -194 l 576 0 l 479 0 l 479 257 q 433 246 486 260 q 319 236 382 236 q 192 266 247 236 q 107 348 138 296 q 76 465 76 400 l 76 694 l 215 694 l 215 465 q 253 370 215 407 q 354 333 292 333 q 443 343 404 333 q 460 349 451 346 q 479 354 469 351 l 479 694 l 618 694 l 618 97 l 708 97 z "},"ҹ":{"ha":722,"x_min":76,"x_max":618,"o":"m 618 694 l 618 0 l 479 0 l 479 257 q 433 246 486 260 q 390 240 419 243 l 390 113 l 335 113 l 335 236 l 319 236 q 192 266 247 236 q 107 348 138 296 q 76 465 76 400 l 76 694 l 215 694 l 215 465 q 248 376 215 411 q 335 335 281 340 l 335 474 l 390 474 l 390 335 q 443 343 422 338 q 460 349 451 346 q 479 354 469 351 l 479 694 l 618 694 z "},"һ":{"ha":757,"x_min":104,"x_max":660,"o":"m 104 931 l 146 972 l 243 972 l 243 639 q 289 674 265 661 q 424 708 356 708 q 594 642 528 708 q 660 472 660 576 l 660 0 l 521 0 l 521 472 q 484 567 521 531 q 389 604 447 604 q 285 563 338 604 q 243 521 263 543 l 243 0 l 104 0 l 104 931 z "},"ӏ":{"ha":347,"x_min":104,"x_max":243,"o":"m 104 0 l 104 931 l 146 972 l 243 972 l 243 0 l 104 0 z "},"ӂ":{"ha":1028,"x_min":35,"x_max":993,"o":"m 118 -14 q 58 -7 86 -14 q 35 0 49 -6 l 49 90 l 56 90 l 64 86 q 83 83 78 83 q 125 125 115 83 l 160 257 q 195 317 169 294 q 230 342 221 339 q 285 361 239 346 q 252 369 275 361 q 206 396 229 376 q 174 451 182 415 l 146 569 q 104 611 136 611 q 85 607 101 611 q 76 604 76 604 l 69 604 l 56 694 l 79 701 q 139 708 104 708 q 231 679 197 708 q 278 590 264 650 l 306 472 q 396 403 321 403 l 444 403 l 444 694 l 583 694 l 583 403 l 632 403 q 722 472 707 403 l 750 590 q 797 679 764 650 q 889 708 831 708 q 949 701 924 708 l 972 694 l 958 604 l 951 604 q 943 607 951 604 q 924 611 926 611 q 882 569 893 611 l 854 451 q 823 397 846 417 q 777 369 800 376 q 743 361 754 361 q 778 351 751 361 q 831 317 804 340 q 868 257 858 294 l 903 125 q 944 83 914 83 q 964 86 950 83 l 972 90 l 979 90 l 993 0 q 969 -7 979 -6 q 910 -14 942 -14 q 820 15 853 -14 q 771 104 788 44 l 736 236 q 705 288 728 269 q 646 306 682 306 l 583 306 l 583 0 l 444 0 l 444 306 l 382 306 q 323 288 346 306 q 292 236 300 269 l 257 104 q 208 15 240 44 q 118 -14 175 -14 m 514 764 q 358 812 411 764 q 306 944 306 860 l 431 944 q 451 870 431 893 q 514 847 471 847 q 577 870 557 847 q 597 944 597 893 l 722 944 q 669 812 722 860 q 514 764 617 764 z "},"ӌ":{"ha":722,"x_min":76,"x_max":618,"o":"m 618 694 l 618 0 l 521 0 l 500 -194 l 389 -194 l 389 97 l 479 97 l 479 257 q 433 246 486 260 q 319 236 382 236 q 192 266 247 236 q 107 348 138 296 q 76 465 76 400 l 76 694 l 215 694 l 215 465 q 253 370 215 407 q 354 333 292 333 q 443 343 404 333 q 460 349 451 346 q 479 354 469 351 l 479 694 l 618 694 z "},"ӑ":{"ha":708,"x_min":63,"x_max":611,"o":"m 292 -14 q 123 44 183 -14 q 63 201 63 101 q 134 355 63 300 q 361 410 206 410 l 472 410 l 472 444 q 434 569 472 526 q 326 611 396 611 q 218 579 276 611 q 174 549 189 563 l 160 549 l 111 632 q 174 669 139 653 q 340 708 249 708 q 481 674 419 708 q 576 580 542 640 q 611 444 611 519 l 611 0 l 514 0 l 500 83 l 493 83 q 444 35 474 56 q 292 -14 383 -14 m 326 90 q 431 132 378 90 q 472 174 454 151 l 472 313 l 361 313 q 242 282 282 313 q 201 201 201 251 q 233 119 201 147 q 326 90 264 90 m 354 764 q 199 812 251 764 q 146 944 146 860 l 271 944 q 291 870 271 893 q 354 847 311 847 q 417 870 397 847 q 438 944 438 893 l 563 944 q 510 812 563 860 q 354 764 457 764 z "},"ӓ":{"ha":708,"x_min":63,"x_max":611,"o":"m 292 -14 q 123 44 183 -14 q 63 201 63 101 q 134 355 63 300 q 361 410 206 410 l 472 410 l 472 444 q 434 569 472 526 q 326 611 396 611 q 218 579 276 611 q 174 549 189 563 l 160 549 l 111 632 q 174 669 139 653 q 340 708 249 708 q 481 674 419 708 q 576 580 542 640 q 611 444 611 519 l 611 0 l 514 0 l 500 83 l 493 83 q 444 35 474 56 q 292 -14 383 -14 m 326 90 q 431 132 378 90 q 472 174 454 151 l 472 313 l 361 313 q 242 282 282 313 q 201 201 201 251 q 233 119 201 147 q 326 90 264 90 m 232 785 q 177 806 199 785 q 156 861 156 828 q 177 916 156 894 q 232 938 199 938 q 287 916 265 938 q 308 861 308 894 q 287 806 308 828 q 232 785 265 785 m 475 785 q 420 806 442 785 q 399 861 399 828 q 420 916 399 894 q 475 938 442 938 q 530 916 508 938 q 551 861 551 894 q 530 806 551 828 q 475 785 508 785 z "},"ӗ":{"ha":701,"x_min":69,"x_max":639,"o":"m 375 -14 q 150 78 231 -14 q 69 347 69 169 q 147 616 69 524 q 354 708 225 708 q 561 616 483 708 q 639 347 639 524 l 639 326 l 611 299 l 208 299 q 256 138 208 192 q 389 83 303 83 q 496 114 440 83 q 542 146 525 131 l 556 146 l 604 63 q 542 24 579 42 q 375 -14 469 -14 m 500 396 q 460 558 500 506 q 354 611 421 611 q 248 558 288 611 q 208 396 208 506 l 500 396 m 351 764 q 196 812 249 764 q 143 944 143 860 l 268 944 q 288 870 268 893 q 351 847 308 847 q 415 870 394 847 q 435 944 435 893 l 560 944 q 507 812 560 860 q 351 764 454 764 z "},"ә":{"ha":701,"x_min":63,"x_max":632,"o":"m 326 708 q 551 617 471 708 q 632 347 632 525 q 554 78 632 171 q 347 -14 476 -14 q 140 78 218 -14 q 63 347 63 171 l 63 368 l 90 396 l 493 396 q 446 557 493 503 q 313 611 399 611 q 206 581 261 611 q 160 549 176 564 l 146 549 l 97 632 q 160 671 122 653 q 326 708 232 708 m 201 299 q 241 136 201 189 q 347 83 281 83 q 453 136 414 83 q 493 299 493 189 l 201 299 z "},"ӝ":{"ha":1028,"x_min":35,"x_max":993,"o":"m 118 -14 q 58 -7 86 -14 q 35 0 49 -6 l 49 90 l 56 90 l 64 86 q 83 83 78 83 q 125 125 115 83 l 160 257 q 195 317 169 294 q 230 342 221 339 q 285 361 239 346 q 252 369 275 361 q 206 396 229 376 q 174 451 182 415 l 146 569 q 104 611 136 611 q 85 607 101 611 q 76 604 76 604 l 69 604 l 56 694 l 79 701 q 139 708 104 708 q 231 679 197 708 q 278 590 264 650 l 306 472 q 396 403 321 403 l 444 403 l 444 694 l 583 694 l 583 403 l 632 403 q 722 472 707 403 l 750 590 q 797 679 764 650 q 889 708 831 708 q 949 701 924 708 l 972 694 l 958 604 l 951 604 q 943 607 951 604 q 924 611 926 611 q 882 569 893 611 l 854 451 q 823 397 846 417 q 777 369 800 376 q 743 361 754 361 q 778 351 751 361 q 831 317 804 340 q 868 257 858 294 l 903 125 q 944 83 914 83 q 964 86 950 83 l 972 90 l 979 90 l 993 0 q 969 -7 979 -6 q 910 -14 942 -14 q 820 15 853 -14 q 771 104 788 44 l 736 236 q 705 288 728 269 q 646 306 682 306 l 583 306 l 583 0 l 444 0 l 444 306 l 382 306 q 323 288 346 306 q 292 236 300 269 l 257 104 q 208 15 240 44 q 118 -14 175 -14 m 392 785 q 337 806 358 785 q 315 861 315 828 q 337 916 315 894 q 392 938 358 938 q 447 916 425 938 q 468 861 468 894 q 447 806 468 828 q 392 785 425 785 m 635 785 q 580 806 601 785 q 558 861 558 828 q 580 916 558 894 q 635 938 601 938 q 690 916 668 938 q 711 861 711 894 q 690 806 711 828 q 635 785 668 785 z "},"ӟ":{"ha":625,"x_min":21,"x_max":563,"o":"m 278 -14 q 86 24 164 -14 q 21 63 46 42 l 69 146 l 83 146 q 132 114 99 132 q 264 83 196 83 q 387 111 350 83 q 424 194 424 139 q 285 306 424 306 l 167 306 l 167 403 l 285 403 q 378 431 346 403 q 410 507 410 458 q 264 611 410 611 q 147 579 206 611 q 104 549 122 564 l 90 549 l 42 632 q 103 669 65 651 q 278 708 178 708 q 481 656 413 708 q 549 521 549 604 q 475 394 549 440 q 403 361 444 372 q 482 331 449 353 q 563 181 563 278 q 492 39 563 92 q 278 -14 422 -14 m 149 785 q 94 806 115 785 q 72 861 72 828 q 94 916 72 894 q 149 938 115 938 q 203 916 182 938 q 225 861 225 894 q 203 806 225 828 q 149 785 182 785 m 392 785 q 337 806 358 785 q 315 861 315 828 q 337 916 315 894 q 392 938 358 938 q 447 916 425 938 q 468 861 468 894 q 447 806 468 828 q 392 785 425 785 z "},"ӣ":{"ha":764,"x_min":104,"x_max":660,"o":"m 104 694 l 243 694 l 243 299 q 240 235 243 276 l 238 201 l 243 201 l 254 235 q 285 299 264 264 l 521 694 l 660 694 l 660 0 l 521 0 l 521 396 q 524 460 521 418 l 526 493 l 521 493 l 510 460 q 479 396 500 431 l 243 0 l 104 0 l 104 694 m 194 819 l 194 917 l 569 917 l 569 819 l 194 819 z "},"ӥ":{"ha":764,"x_min":104,"x_max":660,"o":"m 104 694 l 243 694 l 243 299 q 240 235 243 276 l 238 201 l 243 201 l 254 235 q 285 299 264 264 l 521 694 l 660 694 l 660 0 l 521 0 l 521 396 q 524 460 521 418 l 526 493 l 521 493 l 510 460 q 479 396 500 431 l 243 0 l 104 0 l 104 694 m 260 785 q 205 806 226 785 q 183 861 183 828 q 205 916 183 894 q 260 938 226 938 q 315 916 293 938 q 336 861 336 894 q 315 806 336 828 q 260 785 293 785 m 503 785 q 448 806 469 785 q 426 861 426 828 q 448 916 426 894 q 503 938 469 938 q 558 916 536 938 q 579 861 579 894 q 558 806 579 828 q 503 785 536 785 z "},"ӧ":{"ha":736,"x_min":69,"x_max":667,"o":"m 368 -14 q 149 78 228 -14 q 69 347 69 169 q 149 617 69 525 q 368 708 228 708 q 587 617 507 708 q 667 347 667 525 q 587 78 667 169 q 368 -14 507 -14 m 368 83 q 484 147 440 83 q 528 347 528 210 q 484 548 528 485 q 368 611 440 611 q 252 548 296 611 q 208 347 208 485 q 252 147 208 210 q 368 83 296 83 m 246 785 q 191 806 213 785 q 169 861 169 828 q 191 916 169 894 q 246 938 213 938 q 301 916 279 938 q 322 861 322 894 q 301 806 322 828 q 246 785 279 785 m 489 785 q 434 806 456 785 q 413 861 413 828 q 434 916 413 894 q 489 938 456 938 q 544 916 522 938 q 565 861 565 894 q 544 806 565 828 q 489 785 522 785 z "},"ө":{"ha":736,"x_min":69,"x_max":667,"o":"m 368 708 q 587 617 507 708 q 667 347 667 525 q 587 78 667 169 q 368 -14 507 -14 q 149 78 228 -14 q 69 347 69 169 q 149 617 69 525 q 368 708 228 708 m 368 611 q 260 559 303 611 q 210 396 218 507 l 526 396 q 476 559 518 507 q 368 611 433 611 m 368 83 q 476 135 433 83 q 526 299 518 188 l 210 299 q 260 135 218 188 q 368 83 303 83 z "},"ӯ":{"ha":660,"x_min":26,"x_max":639,"o":"m 188 -292 q 86 -271 131 -292 q 49 -250 63 -262 l 83 -160 l 97 -160 q 119 -178 111 -174 q 174 -194 146 -194 q 238 -167 210 -194 q 278 -97 267 -140 l 306 0 l 264 0 l 26 694 l 160 694 l 313 236 q 332 165 319 215 q 342 125 336 153 l 347 125 q 356 165 350 147 l 374 236 l 500 694 l 639 694 l 417 -97 q 332 -238 392 -185 q 188 -292 272 -292 m 143 819 l 143 917 l 518 917 l 518 819 l 143 819 z "},"ӱ":{"ha":660,"x_min":26,"x_max":639,"o":"m 188 -292 q 86 -271 131 -292 q 49 -250 63 -262 l 83 -160 l 97 -160 q 119 -178 111 -174 q 174 -194 146 -194 q 238 -167 210 -194 q 278 -97 267 -140 l 306 0 l 264 0 l 26 694 l 160 694 l 313 236 q 332 165 319 215 q 342 125 336 153 l 347 125 q 356 165 350 147 l 374 236 l 500 694 l 639 694 l 417 -97 q 332 -238 392 -185 q 188 -292 272 -292 m 208 785 q 153 806 175 785 q 132 861 132 828 q 153 916 132 894 q 208 938 175 938 q 263 916 242 938 q 285 861 285 894 q 263 806 285 828 q 208 785 242 785 m 451 785 q 397 806 418 785 q 375 861 375 828 q 397 916 375 894 q 451 938 418 938 q 506 916 485 938 q 528 861 528 894 q 506 806 528 828 q 451 785 485 785 z "},"ӳ":{"ha":660,"x_min":26,"x_max":639,"o":"m 188 -292 q 86 -271 131 -292 q 49 -250 63 -262 l 83 -160 l 97 -160 q 119 -178 111 -174 q 174 -194 146 -194 q 238 -167 210 -194 q 278 -97 267 -140 l 306 0 l 264 0 l 26 694 l 160 694 l 313 236 q 332 165 319 215 q 342 125 336 153 l 347 125 q 356 165 350 147 l 374 236 l 500 694 l 639 694 l 417 -97 q 332 -238 392 -185 q 188 -292 272 -292 m 206 764 l 268 972 l 400 972 l 282 764 l 206 764 m 393 764 l 456 972 l 588 972 l 469 764 l 393 764 z "},"ӵ":{"ha":722,"x_min":76,"x_max":618,"o":"m 479 257 q 433 246 486 260 q 319 236 382 236 q 192 266 247 236 q 107 348 138 296 q 76 465 76 400 l 76 694 l 215 694 l 215 465 q 253 370 215 407 q 354 333 292 333 q 443 343 404 333 q 460 349 451 346 q 479 354 469 351 l 479 694 l 618 694 l 618 0 l 479 0 l 479 257 m 239 785 q 184 806 206 785 q 163 861 163 828 q 184 916 163 894 q 239 938 206 938 q 294 916 272 938 q 315 861 315 894 q 294 806 315 828 q 239 785 272 785 m 482 785 q 427 806 449 785 q 406 861 406 828 q 427 916 406 894 q 482 938 449 938 q 537 916 515 938 q 558 861 558 894 q 537 806 558 828 q 482 785 515 785 z "},"ӷ":{"ha":576,"x_min":104,"x_max":563,"o":"m 563 597 l 243 597 l 243 97 l 333 97 l 333 -194 l 222 -194 l 201 0 l 104 0 l 104 694 l 563 694 l 563 597 z "},"ӹ":{"ha":986,"x_min":104,"x_max":882,"o":"m 104 694 l 243 694 l 243 458 l 354 458 q 632 229 632 458 q 354 0 632 0 l 104 0 l 104 694 m 743 0 l 743 694 l 882 694 l 882 0 l 743 0 m 354 97 q 460 129 428 97 q 493 229 493 161 q 460 329 493 297 q 354 361 428 361 l 243 361 l 243 97 l 354 97 m 371 785 q 316 806 338 785 q 294 861 294 828 q 316 916 294 894 q 371 938 338 938 q 426 916 404 938 q 447 861 447 894 q 426 806 447 828 q 371 785 404 785 m 614 785 q 559 806 581 785 q 538 861 538 828 q 559 916 538 894 q 614 938 581 938 q 669 916 647 938 q 690 861 690 894 q 669 806 690 828 q 614 785 647 785 z "},"ԛ":{"ha":743,"x_min":69,"x_max":639,"o":"m 500 -236 l 500 28 q 454 7 479 15 q 347 -14 403 -14 q 146 78 222 -14 q 69 347 69 171 q 103 545 69 464 q 194 667 138 626 q 319 708 251 708 q 472 660 404 708 q 521 611 506 633 l 528 611 l 542 694 l 639 694 l 639 -278 l 542 -278 l 500 -236 m 368 83 q 463 97 415 83 q 500 111 488 104 l 500 521 q 458 563 481 544 q 354 604 406 604 q 249 542 290 604 q 208 347 208 479 q 252 147 208 210 q 368 83 296 83 z "},"ԝ":{"ha":986,"x_min":21,"x_max":938,"o":"m 21 694 l 153 694 l 264 271 q 269 241 267 260 q 275 210 272 222 l 278 181 l 283 181 q 286 210 283 190 q 292 238 289 222 q 299 271 294 253 l 413 694 l 551 694 l 660 271 q 665 241 663 260 q 671 210 668 222 l 675 181 l 681 181 q 683 210 681 190 q 694 271 690 253 l 806 694 l 938 694 l 757 0 l 618 0 l 500 438 q 488 499 493 460 l 482 535 l 476 535 l 471 499 q 458 438 468 475 l 340 0 l 201 0 l 21 694 z "},"Ҥ":{"ha":1111,"x_min":125,"x_max":1097,"o":"m 1097 972 l 1097 875 l 750 875 l 750 0 l 611 0 l 611 444 l 264 444 l 264 0 l 125 0 l 125 972 l 264 972 l 264 542 l 611 542 l 611 972 l 1097 972 z "},"ҥ":{"ha":924,"x_min":104,"x_max":910,"o":"m 910 694 l 910 597 l 660 597 l 660 0 l 521 0 l 521 306 l 243 306 l 243 0 l 104 0 l 104 694 l 243 694 l 243 403 l 521 403 l 521 694 l 910 694 z "},"Ӕ":{"ha":1132,"x_min":-28,"x_max":1090,"o":"m -28 0 l 382 972 l 1090 972 l 1090 875 l 688 875 l 688 556 l 1007 556 l 1007 458 l 688 458 l 688 97 l 1090 97 l 1090 0 l 549 0 l 549 278 l 229 278 l 111 0 l -28 0 m 271 375 l 549 375 l 549 875 l 479 875 l 271 375 z "},"ӕ":{"ha":1090,"x_min":63,"x_max":1028,"o":"m 292 -14 q 123 44 183 -14 q 63 201 63 101 q 134 355 63 300 q 361 410 206 410 l 472 410 l 472 444 q 434 569 472 526 q 326 611 396 611 q 218 579 276 611 q 174 549 189 563 l 160 549 l 111 632 q 174 669 139 653 q 340 708 249 708 q 469 681 417 708 q 549 604 521 653 q 638 681 586 653 q 750 708 689 708 q 951 616 875 708 q 1028 347 1028 524 l 1028 326 l 1000 299 l 611 299 q 656 138 611 193 q 778 83 701 83 q 885 114 829 83 q 931 146 914 131 l 944 146 l 993 63 q 931 24 968 42 q 764 -14 858 -14 q 635 14 694 -14 q 538 97 576 42 q 472 42 511 69 q 292 -14 386 -14 m 889 396 q 850 558 889 504 q 750 611 811 611 q 650 558 689 611 q 611 396 611 504 l 889 396 m 326 90 q 431 132 378 90 q 472 174 454 151 l 472 313 l 361 313 q 242 282 282 313 q 201 201 201 251 q 233 119 201 147 q 326 90 264 90 z "},"¹":{"ha":451,"x_min":49,"x_max":403,"o":"m 69 500 l 69 583 l 174 583 l 174 847 l 90 799 l 49 861 l 181 972 l 299 972 l 299 583 l 403 583 l 403 500 l 69 500 z "},"²":{"ha":458,"x_min":49,"x_max":410,"o":"m 49 556 q 69 638 49 604 q 119 692 90 671 q 193 736 149 713 q 263 781 242 763 q 285 826 285 799 q 206 903 285 903 q 129 882 165 903 q 104 861 114 872 l 90 861 l 54 924 q 100 954 71 939 q 229 986 161 986 q 360 941 311 986 q 410 826 410 896 q 372 731 410 765 q 264 663 333 696 q 195 623 217 639 q 174 583 174 607 l 410 583 l 410 500 l 49 500 l 49 556 z "},"³":{"ha":446,"x_min":28,"x_max":397,"o":"m 203 486 q 74 517 132 486 q 28 549 43 533 l 64 611 l 78 611 q 104 590 88 600 q 182 569 136 569 q 272 639 272 569 q 175 708 272 708 l 83 708 l 83 778 l 250 889 l 50 889 l 50 972 l 375 972 l 375 882 l 222 792 q 351 750 304 792 q 397 639 397 708 q 346 530 397 574 q 203 486 294 486 z "},"⁴":{"ha":528,"x_min":49,"x_max":479,"o":"m 285 500 l 285 597 l 49 597 l 49 681 l 285 972 l 410 972 l 410 681 l 479 681 l 479 597 l 410 597 l 410 500 l 285 500 m 285 681 l 285 806 q 289 843 285 825 l 293 865 l 288 865 q 279 842 286 861 q 261 806 265 811 l 160 681 l 285 681 z "},"⁄":{"ha":597,"x_min":-139,"x_max":667,"o":"m -139 0 l 514 972 l 667 972 l 14 0 l -139 0 z "},"½":{"ha":1042,"x_min":49,"x_max":993,"o":"m 69 500 l 69 583 l 174 583 l 174 847 l 90 799 l 49 861 l 181 972 l 299 972 l 299 583 l 403 583 l 403 500 l 69 500 m 146 0 l 799 972 l 951 972 l 299 0 l 146 0 m 632 56 q 653 138 632 104 q 703 192 674 171 q 776 236 732 213 q 847 281 825 263 q 868 326 868 299 q 789 403 868 403 q 713 382 749 403 q 688 361 697 372 l 674 361 l 638 424 q 683 454 654 439 q 813 486 744 486 q 944 441 894 486 q 993 326 993 396 q 955 231 993 265 q 847 163 917 196 q 778 123 800 139 q 757 83 757 107 l 993 83 l 993 0 l 632 0 l 632 56 z "},"¼":{"ha":1056,"x_min":49,"x_max":1007,"o":"m 69 500 l 69 583 l 174 583 l 174 847 l 90 799 l 49 861 l 181 972 l 299 972 l 299 583 l 403 583 l 403 500 l 69 500 m 146 0 l 799 972 l 951 972 l 299 0 l 146 0 m 813 0 l 813 97 l 576 97 l 576 181 l 813 472 l 938 472 l 938 181 l 1007 181 l 1007 97 l 938 97 l 938 0 l 813 0 m 813 181 l 813 306 q 817 343 813 325 l 821 365 l 815 365 q 807 342 813 351 q 789 306 793 311 l 688 181 l 813 181 z "},"¾":{"ha":1042,"x_min":49,"x_max":993,"o":"m 224 486 q 94 517 153 486 q 49 549 64 533 l 85 611 l 99 611 q 125 590 108 600 q 203 569 157 569 q 293 639 293 569 q 196 708 293 708 l 104 708 l 104 778 l 271 889 l 71 889 l 71 972 l 396 972 l 396 882 l 243 792 q 372 750 325 792 q 418 639 418 708 q 367 530 418 574 q 224 486 315 486 m 132 0 l 785 972 l 938 972 l 285 0 l 132 0 m 799 0 l 799 97 l 563 97 l 563 181 l 799 472 l 924 472 l 924 181 l 993 181 l 993 97 l 924 97 l 924 0 l 799 0 m 799 181 l 799 306 q 803 343 799 325 l 807 365 l 801 365 q 793 342 799 351 q 775 306 779 311 l 674 181 l 799 181 z "},"*":{"ha":569,"x_min":42,"x_max":528,"o":"m 236 472 l 236 639 l 90 556 l 42 639 l 188 722 l 42 806 l 90 889 l 236 806 l 236 972 l 333 972 l 333 806 l 479 889 l 528 806 l 382 722 l 528 639 l 479 556 l 333 639 l 333 472 l 236 472 z "},"\\":{"ha":569,"x_min":0,"x_max":569,"o":"m 431 0 l 0 972 l 139 972 l 569 0 l 431 0 z "},"·":{"ha":403,"x_min":118,"x_max":285,"o":"m 201 403 q 142 426 165 403 q 118 486 118 450 q 142 546 118 522 q 201 569 165 569 q 261 546 238 569 q 285 486 285 522 q 261 426 285 450 q 201 403 238 403 z "},"•":{"ha":514,"x_min":90,"x_max":424,"o":"m 257 264 q 137 310 183 264 q 90 431 90 357 q 137 551 90 504 q 257 597 183 597 q 377 551 331 597 q 424 431 424 504 q 377 310 424 357 q 257 264 331 264 z "},":":{"ha":278,"x_min":56,"x_max":222,"o":"m 139 542 q 79 565 103 542 q 56 625 56 589 q 79 685 56 661 q 139 708 103 708 q 199 685 175 708 q 222 625 222 661 q 199 565 222 589 q 139 542 175 542 m 139 -14 q 79 10 103 -14 q 56 69 56 33 q 79 129 56 106 q 139 153 103 153 q 199 129 175 153 q 222 69 222 106 q 199 10 222 33 q 139 -14 175 -14 z "},",":{"ha":278,"x_min":56,"x_max":222,"o":"m 56 -132 q 93 -96 74 -117 q 132 -14 132 -54 q 78 10 100 -14 q 56 69 56 33 q 78 129 56 106 q 132 153 100 153 q 198 127 174 153 q 222 56 222 101 q 160 -122 222 -46 q 97 -181 132 -158 l 56 -132 z "},"…":{"ha":806,"x_min":56,"x_max":750,"o":"m 139 -14 q 79 10 103 -14 q 56 69 56 33 q 79 129 56 106 q 139 153 103 153 q 199 129 175 153 q 222 69 222 106 q 199 10 222 33 q 139 -14 175 -14 m 403 -14 q 343 10 367 -14 q 319 69 319 33 q 343 129 319 106 q 403 153 367 153 q 463 129 439 153 q 486 69 486 106 q 463 10 486 33 q 403 -14 439 -14 m 667 -14 q 607 10 631 -14 q 583 69 583 33 q 607 129 583 106 q 667 153 631 153 q 726 129 703 153 q 750 69 750 106 q 726 10 750 33 q 667 -14 703 -14 z "},"!":{"ha":403,"x_min":118,"x_max":285,"o":"m 146 250 l 118 972 l 285 972 l 257 250 l 146 250 m 201 -14 q 142 10 165 -14 q 118 69 118 33 q 142 129 118 106 q 201 153 165 153 q 261 129 238 153 q 285 69 285 106 q 261 10 285 33 q 201 -14 238 -14 z "},"¡":{"ha":403,"x_min":118,"x_max":285,"o":"m 201 542 q 142 565 165 542 q 118 625 118 589 q 142 685 118 661 q 201 708 165 708 q 261 685 238 708 q 285 625 285 661 q 261 565 285 589 q 201 542 238 542 m 118 -278 l 146 444 l 257 444 l 285 -278 l 118 -278 z "},"#":{"ha":917,"x_min":28,"x_max":889,"o":"m 111 0 l 168 250 l 28 250 l 28 347 l 190 347 l 254 625 l 111 625 l 111 722 l 276 722 l 333 972 l 472 972 l 415 722 l 610 722 l 667 972 l 806 972 l 749 722 l 889 722 l 889 625 l 726 625 l 663 347 l 806 347 l 806 250 l 640 250 l 583 0 l 444 0 l 501 250 l 307 250 l 250 0 l 111 0 m 329 347 l 524 347 l 588 625 l 393 625 l 329 347 z "},".":{"ha":278,"x_min":56,"x_max":222,"o":"m 139 -14 q 79 10 103 -14 q 56 69 56 33 q 79 129 56 106 q 139 153 103 153 q 199 129 175 153 q 222 69 222 106 q 199 10 222 33 q 139 -14 175 -14 z "},"?":{"ha":639,"x_min":0,"x_max":583,"o":"m 189 306 q 208 406 189 363 q 254 478 226 449 q 326 544 282 507 q 415 634 386 594 q 444 736 444 674 q 394 845 444 801 q 257 889 343 889 q 113 857 182 889 q 63 826 81 842 l 49 826 l 0 910 q 68 947 25 929 q 271 986 151 986 q 439 952 368 986 q 547 858 510 918 q 583 722 583 799 q 563 620 583 664 q 512 547 542 576 q 435 482 482 518 q 344 399 374 436 q 314 306 314 363 l 314 250 l 189 250 l 189 306 m 251 -14 q 192 10 215 -14 q 168 69 168 33 q 192 129 168 106 q 251 153 215 153 q 311 129 288 153 q 335 69 335 106 q 311 10 335 33 q 251 -14 288 -14 z "},"¿":{"ha":639,"x_min":56,"x_max":639,"o":"m 388 542 q 328 565 351 542 q 304 625 304 589 q 328 685 304 661 q 388 708 351 708 q 447 685 424 708 q 471 625 471 661 q 447 565 471 589 q 388 542 424 542 m 368 -292 q 200 -258 271 -292 q 92 -164 129 -224 q 56 -28 56 -104 q 76 74 56 31 q 126 147 97 118 q 203 211 156 175 q 294 294 264 257 q 325 389 325 332 l 325 444 l 450 444 l 450 389 q 431 289 450 332 q 385 217 413 246 q 313 150 357 188 q 224 60 253 100 q 194 -42 194 21 q 245 -151 194 -107 q 382 -194 296 -194 q 526 -164 460 -194 q 576 -132 560 -147 l 590 -132 l 639 -215 q 571 -254 611 -237 q 368 -292 489 -292 z "},"\"":{"ha":472,"x_min":56,"x_max":417,"o":"m 83 639 l 56 972 l 201 972 l 174 639 l 83 639 m 299 639 l 271 972 l 417 972 l 389 639 l 299 639 z "},"'":{"ha":257,"x_min":56,"x_max":201,"o":"m 83 639 l 56 972 l 201 972 l 174 639 l 83 639 z "},";":{"ha":278,"x_min":56,"x_max":222,"o":"m 139 542 q 79 565 103 542 q 56 625 56 589 q 79 685 56 661 q 139 708 103 708 q 199 685 175 708 q 222 625 222 661 q 199 565 222 589 q 139 542 175 542 m 56 -132 q 93 -96 74 -117 q 132 -14 132 -54 q 78 10 100 -14 q 56 69 56 33 q 78 129 56 106 q 132 153 100 153 q 198 127 174 153 q 222 56 222 101 q 160 -122 222 -46 q 97 -181 132 -158 l 56 -132 z "},"/":{"ha":569,"x_min":0,"x_max":569,"o":"m 0 0 l 431 972 l 569 972 l 139 0 l 0 0 z "},"_":{"ha":528,"x_min":0,"x_max":528,"o":"m 0 -181 l 0 -69 l 528 -69 l 528 -181 l 0 -181 z "},"{":{"ha":451,"x_min":56,"x_max":438,"o":"m 389 -236 q 221 -182 282 -236 q 160 -42 160 -128 l 160 208 q 135 310 160 281 q 56 340 110 340 l 56 438 q 135 467 110 438 q 160 569 160 497 l 160 819 q 221 960 160 906 q 389 1014 282 1014 l 438 1014 l 438 917 l 389 917 q 323 891 347 917 q 299 819 299 865 l 299 569 q 243 417 299 464 q 188 389 219 396 q 243 361 217 383 q 299 208 299 308 l 299 -42 q 323 -113 299 -87 q 389 -139 347 -139 l 438 -139 l 438 -236 l 389 -236 z "},"}":{"ha":451,"x_min":14,"x_max":396,"o":"m 14 -139 l 63 -139 q 128 -113 104 -139 q 153 -42 153 -87 l 153 208 q 208 361 153 308 q 264 389 235 383 q 208 417 232 396 q 153 569 153 464 l 153 819 q 128 891 153 865 q 63 917 104 917 l 14 917 l 14 1014 l 63 1014 q 231 960 169 1014 q 292 819 292 906 l 292 569 q 317 467 292 497 q 396 438 342 438 l 396 340 q 317 310 342 340 q 292 208 292 281 l 292 -42 q 231 -182 292 -128 q 63 -236 169 -236 l 14 -236 l 14 -139 z "},"[":{"ha":431,"x_min":125,"x_max":403,"o":"m 125 -236 l 125 1014 l 403 1014 l 403 917 l 264 917 l 264 -139 l 403 -139 l 403 -236 l 125 -236 z "},"]":{"ha":431,"x_min":28,"x_max":306,"o":"m 28 -236 l 28 -139 l 167 -139 l 167 917 l 28 917 l 28 1014 l 306 1014 l 306 -236 l 28 -236 z "},"(":{"ha":396,"x_min":76,"x_max":396,"o":"m 340 -243 q 144 41 213 -125 q 76 389 76 207 q 144 737 76 571 q 340 1021 213 903 l 396 965 q 261 699 307 838 q 215 389 215 560 q 261 79 215 218 q 396 -187 307 -60 l 340 -243 z "},")":{"ha":396,"x_min":0,"x_max":319,"o":"m 0 -187 q 135 79 89 -60 q 181 389 181 218 q 135 699 181 560 q 0 965 89 838 l 56 1021 q 251 737 183 903 q 319 389 319 571 q 251 41 319 207 q 56 -243 183 -125 l 0 -187 z "},"—":{"ha":1000,"x_min":42,"x_max":958,"o":"m 42 347 l 42 458 l 958 458 l 958 347 l 42 347 z "},"–":{"ha":708,"x_min":42,"x_max":667,"o":"m 42 347 l 42 458 l 667 458 l 667 347 l 42 347 z "},"-":{"ha":611,"x_min":42,"x_max":569,"o":"m 42 403 l 42 514 l 569 514 l 569 403 l 42 403 z "},"­":{"ha":611,"x_min":42,"x_max":569,"o":"m 42 403 l 42 514 l 569 514 l 569 403 l 42 403 z "},"«":{"ha":660,"x_min":14,"x_max":632,"o":"m 313 0 l 14 347 l 313 694 l 403 611 l 181 347 l 403 83 l 313 0 m 542 49 l 285 347 l 542 646 l 632 563 l 451 347 l 632 132 l 542 49 z "},"»":{"ha":660,"x_min":28,"x_max":646,"o":"m 347 0 l 257 83 l 479 347 l 257 611 l 347 694 l 646 347 l 347 0 m 118 49 l 28 132 l 208 347 l 28 563 l 118 646 l 375 347 l 118 49 z "},"‹":{"ha":458,"x_min":14,"x_max":444,"o":"m 278 69 l 14 361 l 278 653 l 444 653 l 181 361 l 444 69 l 278 69 z "},"›":{"ha":472,"x_min":14,"x_max":444,"o":"m 14 69 l 278 361 l 14 653 l 181 653 l 444 361 l 181 69 l 14 69 z "},"„":{"ha":500,"x_min":56,"x_max":444,"o":"m 56 -132 q 93 -96 74 -117 q 132 -14 132 -54 q 78 10 100 -14 q 56 69 56 33 q 78 129 56 106 q 132 153 100 153 q 198 127 174 153 q 222 56 222 101 q 160 -122 222 -46 q 97 -181 132 -158 l 56 -132 m 278 -132 q 315 -96 296 -117 q 354 -14 354 -54 q 300 10 322 -14 q 278 69 278 33 q 300 129 278 106 q 354 153 322 153 q 420 127 396 153 q 444 56 444 101 q 382 -122 444 -46 q 319 -181 354 -158 l 278 -132 z "},"“":{"ha":500,"x_min":56,"x_max":444,"o":"m 146 653 q 80 678 104 653 q 56 750 56 704 q 118 928 56 851 q 181 986 146 964 l 222 938 q 183 901 203 924 q 146 819 146 861 q 200 796 178 819 q 222 736 222 772 q 200 676 222 700 q 146 653 178 653 m 368 653 q 302 678 326 653 q 278 750 278 704 q 340 928 278 851 q 403 986 368 964 l 444 938 q 406 901 425 924 q 368 819 368 861 q 422 796 400 819 q 444 736 444 772 q 422 676 444 700 q 368 653 400 653 z "},"”":{"ha":500,"x_min":56,"x_max":444,"o":"m 56 701 q 93 738 74 717 q 132 819 132 779 q 78 843 100 819 q 56 903 56 867 q 78 963 56 939 q 132 986 100 986 q 198 960 174 986 q 222 889 222 935 q 160 711 222 788 q 97 653 132 675 l 56 701 m 278 701 q 315 738 296 717 q 354 819 354 779 q 300 843 322 819 q 278 903 278 867 q 300 963 278 939 q 354 986 322 986 q 420 960 396 986 q 444 889 444 935 q 382 711 444 788 q 319 653 354 675 l 278 701 z "},"‘":{"ha":278,"x_min":56,"x_max":222,"o":"m 146 653 q 80 678 104 653 q 56 750 56 704 q 118 928 56 851 q 181 986 146 964 l 222 938 q 183 901 203 924 q 146 819 146 861 q 200 796 178 819 q 222 736 222 772 q 200 676 222 700 q 146 653 178 653 z "},"’":{"ha":278,"x_min":56,"x_max":222,"o":"m 56 701 q 93 738 74 717 q 132 819 132 779 q 78 843 100 819 q 56 903 56 867 q 78 963 56 939 q 132 986 100 986 q 198 960 174 986 q 222 889 222 935 q 160 711 222 788 q 97 653 132 675 l 56 701 z "},"‚":{"ha":278,"x_min":56,"x_max":222,"o":"m 56 -132 q 93 -96 74 -117 q 132 -14 132 -54 q 78 10 100 -14 q 56 69 56 33 q 78 129 56 106 q 132 153 100 153 q 198 127 174 153 q 222 56 222 101 q 160 -122 222 -46 q 97 -181 132 -158 l 56 -132 z "}," ":{"ha":403,"x_min":0,"x_max":0,"o":""},"¢":{"ha":632,"x_min":69,"x_max":604,"o":"m 292 -4 q 127 108 185 21 q 69 347 69 196 q 128 590 69 500 q 292 701 188 679 l 292 778 l 431 778 l 431 701 q 547 660 494 689 q 590 632 576 643 l 542 549 l 528 549 q 482 579 510 563 q 375 611 424 611 q 253 549 297 611 q 208 347 208 486 q 255 145 208 207 q 389 83 301 83 q 496 114 440 83 q 542 146 525 131 l 556 146 l 604 63 q 557 32 572 40 q 431 -10 492 -1 l 431 -97 l 292 -97 l 292 -4 z "},"¤":{"ha":799,"x_min":28,"x_max":736,"o":"m 139 236 l 28 236 l 28 319 l 139 319 l 139 375 l 28 375 l 28 458 l 139 458 l 139 972 l 389 972 q 650 894 564 972 q 736 667 736 817 q 650 451 736 526 q 389 375 564 375 l 278 375 l 278 319 l 625 319 l 625 236 l 278 236 l 278 0 l 139 0 l 139 236 m 389 458 q 597 667 597 458 q 389 875 597 875 l 278 875 l 278 458 l 389 458 z "},"$":{"ha":688,"x_min":42,"x_max":646,"o":"m 264 -10 q 100 32 174 -1 q 42 63 76 43 l 90 146 l 104 146 q 161 114 124 132 q 313 83 236 83 q 456 128 406 83 q 507 250 507 174 q 481 333 507 299 q 415 389 454 367 q 308 443 376 411 q 176 510 226 479 q 91 594 126 542 q 56 722 56 646 q 110 885 56 818 q 264 976 164 953 l 264 1069 l 410 1069 l 410 983 q 571 942 496 975 q 625 910 600 928 l 576 826 l 563 826 q 513 857 544 842 q 368 889 443 889 q 243 844 292 889 q 194 736 194 800 q 221 653 194 688 q 286 597 247 619 q 393 543 325 575 q 525 476 475 507 q 610 392 575 444 q 646 264 646 340 q 585 83 646 154 q 410 -7 525 13 l 410 -97 l 264 -97 l 264 -10 z "},"€":{"ha":757,"x_min":14,"x_max":722,"o":"m 479 -14 q 124 361 164 -14 l 14 361 l 28 444 l 118 444 l 118 528 l 21 528 l 35 611 l 124 611 q 465 986 164 986 q 644 947 564 986 q 708 910 683 929 l 660 826 l 646 826 q 599 857 625 842 q 479 889 538 889 q 335 823 393 889 q 263 611 278 757 l 568 611 l 554 528 l 257 528 l 257 444 l 549 444 l 535 361 l 263 361 q 340 147 282 211 q 493 83 399 83 q 613 114 554 83 q 660 146 642 131 l 674 146 l 722 63 q 658 24 699 43 q 479 -14 581 -14 z "},"ƒ":{"ha":543,"x_min":-125,"x_max":633,"o":"m 8 -278 q -89 -257 -44 -278 q -125 -236 -111 -249 l -82 -146 l -68 -146 q -47 -164 -54 -160 q 3 -181 -26 -181 q 82 -149 53 -181 q 117 -56 111 -117 l 176 597 l 86 597 l 94 694 l 185 694 l 190 764 q 264 926 199 867 q 439 986 329 986 q 581 947 518 986 q 633 910 611 929 l 576 826 l 563 826 q 526 857 551 838 q 444 889 481 889 q 365 857 396 889 q 329 764 333 825 l 324 694 l 511 694 l 503 597 l 315 597 l 256 -56 q 181 -217 246 -157 q 8 -278 115 -278 z "},"₴":{"ha":721,"x_min":21,"x_max":700,"o":"m 506 514 q 424 475 476 497 q 361 444 415 472 l 700 444 l 700 347 l 254 347 q 228 233 228 301 q 272 124 228 165 q 394 83 317 83 q 524 101 465 83 q 617 146 582 119 l 631 146 l 679 63 q 558 8 635 31 q 394 -14 482 -14 q 162 49 249 -14 q 75 222 75 113 q 100 347 75 296 l 21 347 l 21 444 l 185 444 q 303 514 228 476 l 21 514 l 21 611 l 463 611 q 501 669 490 639 q 513 736 513 699 q 465 849 513 810 q 344 889 417 889 q 253 873 300 889 q 165 826 206 857 l 151 826 l 103 910 q 235 967 164 947 q 376 986 307 986 q 522 957 456 986 q 626 871 588 928 q 665 736 665 814 q 626 611 665 665 l 700 611 l 700 514 l 506 514 z "},"₽":{"ha":792,"x_min":28,"x_max":736,"o":"m 278 333 l 278 250 l 417 250 l 417 153 l 278 153 l 278 0 l 139 0 l 139 153 l 28 153 l 28 250 l 139 250 l 139 333 l 28 333 l 28 431 l 139 431 l 139 972 l 389 972 q 651 892 565 972 q 736 653 736 811 q 651 414 736 494 q 389 333 565 333 l 278 333 m 278 431 l 389 431 q 546 485 494 431 q 597 653 597 539 q 546 821 597 767 q 389 875 494 875 l 278 875 l 278 431 z "},"£":{"ha":660,"x_min":35,"x_max":646,"o":"m 35 97 q 86 139 64 108 q 139 347 139 208 l 139 458 l 49 458 l 49 556 l 139 556 l 139 750 q 171 869 139 815 q 258 955 203 924 q 382 986 314 986 q 554 947 482 986 q 611 910 589 929 l 563 826 l 549 826 q 508 857 535 840 q 396 889 453 889 q 313 850 347 889 q 278 750 278 811 l 278 556 l 465 556 l 465 458 l 278 458 l 278 347 q 229 144 278 222 q 181 97 204 110 l 646 97 l 646 0 l 35 0 l 35 97 z "},"₸":{"ha":667,"x_min":14,"x_max":653,"o":"m 14 875 l 14 972 l 653 972 l 653 875 l 14 875 m 264 0 l 264 708 l 14 708 l 14 806 l 653 806 l 653 708 l 403 708 l 403 0 l 264 0 z "},"₮":{"ha":667,"x_min":14,"x_max":653,"o":"m 653 875 l 403 875 l 403 615 l 594 667 l 594 583 l 403 532 l 403 449 l 594 500 l 594 417 l 403 365 l 403 0 l 264 0 l 264 329 l 74 278 l 74 361 l 264 413 l 264 496 l 74 444 l 74 528 l 264 579 l 264 875 l 14 875 l 14 972 l 653 972 l 653 875 z "},"¥":{"ha":736,"x_min":0,"x_max":736,"o":"m 299 250 l 90 250 l 90 347 l 286 347 l 251 424 l 90 424 l 90 521 l 207 521 l 0 972 l 146 972 l 340 549 q 358 494 353 515 q 365 465 364 475 l 371 465 q 378 494 372 475 q 396 549 388 533 l 590 972 l 736 972 l 529 521 l 646 521 l 646 424 l 485 424 l 450 347 l 646 347 l 646 250 l 438 250 l 438 0 l 299 0 l 299 250 z "},"∕":{"ha":569,"x_min":0,"x_max":569,"o":"m 0 0 l 431 972 l 569 972 l 139 0 l 0 0 z "},"+":{"ha":653,"x_min":42,"x_max":611,"o":"m 271 174 l 271 403 l 42 403 l 42 514 l 271 514 l 271 743 l 382 743 l 382 514 l 611 514 l 611 403 l 382 403 l 382 174 l 271 174 z "},"×":{"ha":607,"x_min":63,"x_max":544,"o":"m 142 218 l 63 296 l 225 458 l 63 621 l 142 699 l 304 538 l 465 699 l 544 621 l 382 458 l 544 296 l 465 218 l 304 379 l 142 218 z "},"÷":{"ha":653,"x_min":42,"x_max":611,"o":"m 326 611 q 267 635 290 611 q 243 694 243 658 q 267 754 243 731 q 326 778 290 778 q 386 754 363 778 q 410 694 410 731 q 386 635 410 658 q 326 611 363 611 m 42 403 l 42 514 l 611 514 l 611 403 l 42 403 m 326 139 q 267 163 290 139 q 243 222 243 186 q 267 282 243 258 q 326 306 290 306 q 386 282 363 306 q 410 222 410 258 q 386 163 410 186 q 326 139 363 139 z "},"=":{"ha":653,"x_min":49,"x_max":604,"o":"m 49 528 l 49 639 l 604 639 l 604 528 l 49 528 m 49 278 l 49 389 l 604 389 l 604 278 l 49 278 z "},">":{"ha":618,"x_min":49,"x_max":590,"o":"m 49 0 l 49 132 l 438 347 l 49 563 l 49 694 l 590 396 l 590 299 l 49 0 z "},"<":{"ha":653,"x_min":56,"x_max":597,"o":"m 597 0 l 56 299 l 56 396 l 597 694 l 597 563 l 208 347 l 597 132 l 597 0 z "},"±":{"ha":681,"x_min":56,"x_max":625,"o":"m 56 132 l 56 243 l 285 243 l 285 431 l 56 431 l 56 542 l 285 542 l 285 771 l 396 771 l 396 542 l 625 542 l 625 431 l 396 431 l 396 243 l 625 243 l 625 132 l 56 132 z "},"~":{"ha":681,"x_min":35,"x_max":646,"o":"m 458 340 q 391 353 419 340 q 322 390 363 365 q 269 421 290 411 q 222 431 249 431 q 172 414 194 431 q 137 377 150 397 q 124 354 124 357 l 111 354 l 35 424 q 103 516 53 476 q 222 556 154 556 q 292 543 263 556 q 358 506 321 531 q 410 476 388 486 q 458 465 432 465 q 508 482 486 465 q 544 519 531 499 q 557 542 557 539 l 569 542 l 646 472 q 577 380 628 419 q 458 340 526 340 z "},"¬":{"ha":639,"x_min":42,"x_max":597,"o":"m 472 333 l 472 458 l 42 458 l 42 569 l 597 569 l 597 333 l 472 333 z "},"µ":{"ha":764,"x_min":104,"x_max":660,"o":"m 104 694 l 243 694 l 243 222 q 280 127 243 164 q 375 90 317 90 q 479 125 428 90 q 521 160 499 138 l 521 694 l 660 694 l 660 0 l 563 0 l 549 69 l 542 69 q 490 28 522 50 q 361 -14 426 -14 q 276 7 315 -14 q 243 28 258 15 l 243 -236 l 201 -278 l 104 -278 l 104 694 z "},"%":{"ha":1111,"x_min":42,"x_max":1069,"o":"m 264 486 q 102 551 163 486 q 42 736 42 617 q 102 921 42 856 q 264 986 163 986 q 426 921 365 986 q 486 736 486 856 q 426 551 486 617 q 264 486 365 486 m 153 0 l 806 972 l 958 972 l 306 0 l 153 0 m 264 569 q 361 736 361 569 q 264 903 361 903 q 167 736 167 903 q 264 569 167 569 m 847 -14 q 685 51 746 -14 q 625 236 625 117 q 685 421 625 356 q 847 486 746 486 q 1009 421 949 486 q 1069 236 1069 356 q 1009 51 1069 117 q 847 -14 949 -14 m 847 69 q 944 236 944 69 q 847 403 944 403 q 750 236 750 403 q 847 69 750 69 z "},"‰":{"ha":1571,"x_min":28,"x_max":1543,"o":"m 250 486 q 88 551 149 486 q 28 736 28 617 q 88 921 28 856 q 250 986 149 986 q 412 921 351 986 q 472 736 472 856 q 412 551 472 617 q 250 486 351 486 m 139 0 l 792 972 l 944 972 l 292 0 l 139 0 m 250 569 q 347 736 347 569 q 250 903 347 903 q 153 736 153 903 q 250 569 153 569 m 833 -14 q 672 51 732 -14 q 611 236 611 117 q 672 421 611 356 q 833 486 732 486 q 995 421 935 486 q 1056 236 1056 356 q 995 51 1056 117 q 833 -14 935 -14 m 1321 -14 q 1159 51 1219 -14 q 1099 236 1099 117 q 1159 421 1099 356 q 1321 486 1219 486 q 1483 421 1422 486 q 1543 236 1543 356 q 1483 51 1543 117 q 1321 -14 1422 -14 m 833 69 q 931 236 931 69 q 833 403 931 403 q 736 236 736 403 q 833 69 736 69 m 1321 69 q 1418 236 1418 69 q 1321 403 1418 403 q 1224 236 1224 403 q 1321 69 1224 69 z "},"":{"ha":1785,"x_min":28,"x_max":1757,"o":"m 28 361 l 257 590 l 257 361 l 28 361 m 417 354 q 334 390 369 354 q 299 472 299 425 q 334 555 299 519 q 417 590 369 590 q 499 555 464 590 q 535 472 535 519 q 499 390 535 425 q 417 354 464 354 m 722 361 l 847 590 l 972 361 l 722 361 m 660 354 l 535 583 l 785 583 l 660 354 m 1215 389 l 1021 583 l 1215 583 l 1215 389 m 1488 389 l 1293 583 l 1488 583 l 1488 389 m 1632 354 l 1507 583 l 1757 583 l 1632 354 m 993 361 l 993 556 l 1188 361 l 993 361 m 1265 361 l 1265 556 l 1460 361 l 1265 361 z "},"@":{"ha":1292,"x_min":63,"x_max":1229,"o":"m 632 -167 q 344 -90 474 -167 q 138 119 214 -14 q 63 417 63 253 q 139 714 63 581 q 349 924 215 847 q 646 1000 482 1000 q 943 924 810 1000 q 1153 714 1076 847 q 1229 417 1229 581 q 1197 229 1229 306 q 1107 115 1164 153 q 979 76 1050 76 q 833 114 886 76 q 792 153 807 131 l 785 153 q 736 114 761 129 q 604 76 679 76 q 428 161 494 76 q 361 410 361 246 q 428 658 361 574 q 604 743 494 743 q 739 697 674 743 q 785 653 765 679 l 792 653 l 806 729 l 903 729 l 903 194 q 921 181 911 186 q 965 167 943 167 q 1031 192 999 167 q 1083 272 1063 217 q 1104 417 1104 328 q 1044 672 1104 561 q 881 842 985 782 q 646 903 776 903 q 411 842 515 903 q 247 672 307 782 q 188 417 188 561 q 247 162 188 272 q 411 -9 307 51 q 646 -69 515 -69 q 808 -39 731 -69 q 868 -7 846 -22 l 882 -7 l 931 -90 q 854 -129 903 -111 q 632 -167 764 -167 m 639 181 q 728 211 683 181 q 764 243 753 231 l 764 563 q 728 600 749 581 q 639 639 686 639 q 538 583 576 639 q 500 410 500 528 q 538 236 500 292 q 639 181 576 181 z "},"&":{"ha":854,"x_min":42,"x_max":847,"o":"m 333 -14 q 178 20 244 -14 q 77 114 113 54 q 42 250 42 174 q 94 399 42 336 q 243 528 147 463 q 183 599 210 560 q 125 764 125 685 q 190 926 125 865 q 368 986 254 986 q 492 959 439 986 q 575 884 546 932 q 604 778 604 836 q 510 589 604 683 q 417 514 467 546 l 625 264 q 653 444 653 329 l 778 444 q 701 174 778 296 l 847 0 l 681 0 l 611 83 q 333 -14 490 -14 m 347 604 q 406 654 381 628 q 465 778 465 719 q 438 865 465 835 q 368 896 411 896 q 292 863 319 896 q 264 764 264 829 q 306 656 264 719 q 347 604 322 632 m 361 83 q 549 153 479 83 l 313 438 q 215 347 249 390 q 181 250 181 303 q 230 129 181 175 q 361 83 279 83 z "},"¶":{"ha":785,"x_min":35,"x_max":771,"o":"m 313 403 q 174 441 238 403 q 72 544 110 479 q 35 688 35 610 q 72 831 35 765 q 174 934 110 896 q 313 972 238 972 l 771 972 l 771 875 l 660 875 l 660 -278 l 535 -278 l 535 875 l 438 875 l 438 -278 l 313 -278 l 313 403 z "},"§":{"ha":708,"x_min":63,"x_max":646,"o":"m 333 -292 q 142 -254 219 -292 q 76 -215 101 -236 l 125 -132 l 139 -132 q 188 -164 154 -146 q 319 -194 251 -194 q 449 -158 406 -194 q 493 -56 493 -121 q 469 14 493 -15 q 410 61 444 43 q 310 107 375 79 q 181 167 231 139 q 97 244 132 194 q 63 368 63 293 q 89 487 63 435 q 167 571 115 539 q 100 642 124 601 q 76 743 76 683 q 151 921 76 856 q 368 986 225 986 q 547 947 467 986 q 611 910 586 929 l 563 826 l 549 826 q 501 857 528 842 q 382 889 440 889 q 258 853 301 889 q 215 757 215 817 q 239 688 215 717 q 299 640 263 660 q 397 596 336 621 q 527 535 478 563 q 611 458 576 507 q 646 333 646 408 q 544 128 646 192 q 609 57 586 97 q 632 -42 632 17 q 557 -226 632 -160 q 333 -292 482 -292 m 424 194 q 490 244 465 210 q 514 319 514 278 q 453 433 514 389 q 292 507 392 476 q 226 458 250 492 q 201 382 201 424 q 263 267 201 311 q 424 194 324 224 z "},"©":{"ha":1194,"x_min":56,"x_max":1139,"o":"m 597 -42 q 317 26 440 -42 q 124 215 193 94 q 56 486 56 335 q 124 758 56 638 q 317 946 193 878 q 597 1014 440 1014 q 878 946 754 1014 q 1070 758 1001 878 q 1139 486 1139 638 q 1070 215 1139 335 q 878 26 1001 94 q 597 -42 754 -42 m 597 56 q 809 111 714 56 q 959 265 904 167 q 1014 486 1014 364 q 959 707 1014 608 q 809 861 904 806 q 597 917 714 917 q 385 861 481 917 q 235 707 290 806 q 181 486 181 608 q 235 265 181 364 q 385 111 290 167 q 597 56 481 56 m 618 174 q 418 253 489 174 q 347 486 347 332 q 417 718 347 638 q 604 799 488 799 q 750 764 678 799 q 806 729 775 753 l 764 660 l 751 660 q 711 683 726 676 q 618 708 658 708 q 512 654 551 708 q 472 486 472 600 q 632 264 472 264 q 725 288 675 264 q 765 313 744 296 l 778 313 l 819 243 q 764 208 789 219 q 618 174 697 174 z "},"®":{"ha":1194,"x_min":56,"x_max":1139,"o":"m 597 -42 q 317 26 440 -42 q 124 215 193 94 q 56 486 56 335 q 124 758 56 638 q 317 946 193 878 q 597 1014 440 1014 q 878 946 754 1014 q 1070 758 1001 878 q 1139 486 1139 638 q 1070 215 1139 335 q 878 26 1001 94 q 597 -42 754 -42 m 597 56 q 809 111 714 56 q 959 265 904 167 q 1014 486 1014 364 q 959 707 1014 608 q 809 861 904 806 q 597 917 714 917 q 385 861 481 917 q 235 707 290 806 q 181 486 181 608 q 235 265 181 364 q 385 111 290 167 q 597 56 481 56 m 389 785 l 592 785 q 780 733 718 785 q 842 590 842 682 q 807 479 842 525 q 717 417 772 433 l 856 188 l 724 188 l 599 396 l 514 396 l 514 188 l 389 188 l 389 785 m 592 486 q 688 511 658 486 q 717 590 717 536 q 688 669 717 644 q 592 694 658 694 l 514 694 l 514 486 l 592 486 z "},"™":{"ha":1181,"x_min":14,"x_max":1125,"o":"m 181 444 l 181 882 l 14 882 l 14 972 l 472 972 l 472 882 l 306 882 l 306 444 l 181 444 m 528 972 l 660 972 l 806 694 q 818 663 814 681 l 824 646 l 829 646 l 833 663 l 847 694 l 993 972 l 1125 972 l 1125 444 l 1000 444 l 1000 694 q 1001 746 1000 731 l 1004 771 l 997 771 l 988 744 q 965 694 976 713 l 882 535 l 771 535 l 688 694 q 665 744 676 713 l 656 771 l 649 771 q 650 746 649 756 q 653 694 653 715 l 653 444 l 528 444 l 528 972 z "},"°":{"ha":528,"x_min":28,"x_max":500,"o":"m 264 514 q 94 580 160 514 q 28 750 28 646 q 94 920 28 854 q 264 986 160 986 q 434 920 368 986 q 500 750 500 854 q 434 580 500 646 q 264 514 368 514 m 264 604 q 344 642 313 604 q 375 750 375 679 q 344 858 375 821 q 264 896 313 896 q 184 858 215 896 q 153 750 153 821 q 184 642 153 679 q 264 604 215 604 z "},"|":{"ha":389,"x_min":125,"x_max":264,"o":"m 125 -278 l 125 972 l 264 972 l 264 -278 l 125 -278 z "},"¦":{"ha":389,"x_min":125,"x_max":264,"o":"m 125 444 l 125 972 l 264 972 l 264 444 l 125 444 m 125 -278 l 125 250 l 264 250 l 264 -278 l 125 -278 z "},"†":{"ha":639,"x_min":28,"x_max":611,"o":"m 250 -278 l 250 569 l 28 569 l 28 667 l 250 667 l 250 972 l 389 972 l 389 667 l 611 667 l 611 569 l 389 569 l 389 -278 l 250 -278 z "},"‡":{"ha":639,"x_min":28,"x_max":611,"o":"m 250 -278 l 250 28 l 28 28 l 28 125 l 250 125 l 250 569 l 28 569 l 28 667 l 250 667 l 250 972 l 389 972 l 389 667 l 611 667 l 611 569 l 389 569 l 389 125 l 611 125 l 611 28 l 389 28 l 389 -278 l 250 -278 z "},"№":{"ha":1328,"x_min":125,"x_max":1279,"o":"m 1057 486 q 895 551 956 486 q 835 736 835 617 q 895 921 835 856 q 1057 986 956 986 q 1219 921 1158 986 q 1279 736 1279 856 q 1219 551 1279 617 q 1057 486 1158 486 m 125 972 l 278 972 l 569 354 q 578 333 575 343 q 585 314 582 322 l 597 279 q 605 256 601 267 q 611 236 608 244 l 617 236 l 614 279 q 611 354 611 326 l 611 972 l 750 972 l 750 0 l 597 0 l 306 618 q 288 667 297 635 l 278 693 q 272 713 275 701 q 264 736 268 724 l 258 736 l 261 693 q 264 618 264 640 l 264 0 l 125 0 l 125 972 m 1057 569 q 1154 736 1154 569 q 1057 903 1154 903 q 960 736 960 903 q 1057 569 960 569 m 863 306 l 863 403 l 1251 403 l 1251 306 l 863 306 z "},"^":{"ha":597,"x_min":0,"x_max":597,"o":"m 0 611 l 250 1000 l 347 1000 l 597 611 l 458 611 l 299 861 l 139 611 l 0 611 z "},"̈":{"ha":0,"x_min":-410,"x_max":-14,"o":"m -333 785 q -388 806 -367 785 q -410 861 -410 828 q -388 916 -410 894 q -333 938 -367 938 q -278 916 -300 938 q -257 861 -257 894 q -278 806 -257 828 q -333 785 -300 785 m -90 785 q -145 806 -124 785 q -167 861 -167 828 q -145 916 -167 894 q -90 938 -124 938 q -35 916 -57 938 q -14 861 -14 894 q -35 806 -14 828 q -90 785 -57 785 z "},"̇":{"ha":0,"x_min":-181,"x_max":-14,"o":"m -97 778 q -157 801 -133 778 q -181 861 -181 825 q -157 921 -181 897 q -97 944 -133 944 q -37 921 -61 944 q -14 861 -14 897 q -37 801 -14 825 q -97 778 -61 778 z "},"̀":{"ha":0,"x_min":-229,"x_max":-14,"o":"m -104 764 l -229 972 l -76 972 l -14 764 l -104 764 z "},"́":{"ha":0,"x_min":-229,"x_max":-14,"o":"m -229 764 l -167 972 l -14 972 l -139 764 l -229 764 z "},"̋":{"ha":0,"x_min":-396,"x_max":-14,"o":"m -396 764 l -333 972 l -201 972 l -319 764 l -396 764 m -208 764 l -146 972 l -14 972 l -132 764 l -208 764 z "},"̂":{"ha":0,"x_min":-417,"x_max":-28,"o":"m -417 778 l -271 958 l -174 958 l -28 778 l -118 778 l -222 868 l -326 778 l -417 778 z "},"̌":{"ha":0,"x_min":-417,"x_max":-28,"o":"m -271 778 l -417 958 l -326 958 l -222 868 l -118 958 l -28 958 l -174 778 l -271 778 z "},"̆":{"ha":0,"x_min":-431,"x_max":-14,"o":"m -222 778 q -378 826 -325 778 q -431 958 -431 874 l -306 958 q -285 884 -306 907 q -222 861 -265 861 q -159 884 -179 861 q -139 958 -139 907 l -14 958 q -67 826 -14 874 q -222 778 -119 778 z "},"̊":{"ha":0,"x_min":-292,"x_max":-14,"o":"m -153 750 q -253 787 -215 750 q -292 882 -292 824 q -253 977 -292 940 q -153 1014 -215 1014 q -52 977 -90 1014 q -14 882 -14 940 q -52 787 -14 824 q -153 750 -90 750 m -153 819 q -114 835 -131 819 q -97 882 -97 851 q -114 928 -97 913 q -153 944 -131 944 q -192 928 -175 944 q -208 882 -208 913 q -192 835 -208 851 q -153 819 -175 819 z "},"̃":{"ha":0,"x_min":-396,"x_max":-14,"o":"m -14 924 q -139 806 -53 806 q -183 815 -165 806 q -218 843 -200 825 q -230 853 -221 846 q -247 865 -239 861 q -264 868 -256 868 q -296 856 -282 868 q -318 830 -310 843 q -328 813 -326 817 l -340 813 l -396 847 q -348 934 -376 903 q -271 965 -319 965 q -227 956 -244 965 q -190 928 -210 946 q -166 908 -175 914 q -144 903 -157 903 q -112 915 -126 903 q -89 942 -97 928 q -82 958 -81 957 l -69 958 l -14 924 z "},"̄":{"ha":0,"x_min":-403,"x_max":-28,"o":"m -403 819 l -403 917 l -28 917 l -28 819 l -403 819 z "},"̦":{"ha":0,"x_min":-167,"x_max":-14,"o":"m -167 -285 q -132 -254 -142 -265 q -97 -181 -97 -211 q -145 -158 -124 -181 q -167 -104 -167 -136 q -145 -50 -167 -72 q -97 -28 -124 -28 q -37 -52 -60 -28 q -14 -117 -14 -76 q -69 -278 -14 -208 q -125 -328 -94 -310 l -167 -285 z "},"̧":{"ha":0,"x_min":-257,"x_max":-14,"o":"m -146 -264 q -228 -250 -186 -264 q -257 -236 -247 -243 l -235 -181 l -222 -181 q -212 -187 -221 -182 q -190 -197 -204 -192 q -160 -201 -175 -201 q -119 -187 -135 -201 q -104 -153 -104 -174 q -120 -117 -104 -131 q -167 -104 -136 -104 l -222 -104 l -222 28 l -139 28 l -139 -42 q -48 -73 -82 -42 q -14 -153 -14 -104 q -49 -233 -14 -201 q -146 -264 -85 -264 z "},"̨":{"ha":0,"x_min":-250,"x_max":-14,"o":"m -125 -215 q -218 -187 -186 -215 q -250 -111 -250 -160 q -215 -32 -250 -72 q -181 0 -201 -17 l -83 0 q -118 -26 -103 -11 q -153 -90 -153 -58 q -139 -125 -153 -111 q -104 -139 -125 -139 q -69 -132 -86 -139 q -40 -118 -51 -125 q -26 -108 -29 -111 l -14 -108 l -14 -181 q -43 -199 -29 -193 q -125 -215 -79 -215 z "},"̵":{"ha":0,"x_min":-514,"x_max":-125,"o":"m -514 417 l -514 514 l -125 514 l -125 417 l -514 417 z "},"ʼ":{"ha":125,"x_min":-28,"x_max":125,"o":"m -28 785 q 7 815 -3 804 q 42 889 42 858 q -6 911 15 889 q -28 965 -28 933 q -6 1019 -28 997 q 42 1042 15 1042 q 102 1017 79 1042 q 125 953 125 993 q 69 792 125 861 q 14 742 44 760 l -28 785 z "}}}
